<svg width="29" height="31" viewBox="0 0 29 31" fill="none" xmlns="http://www.w3.org/2000/svg">
<g clip-path="url(#clip0_3394_6130)">
<path d="M14.4823 0C6.96681 0 0.877441 6.08932 0.877441 13.6048C0.877441 21.1203 6.96681 27.2096 14.4823 27.2096C21.9979 27.2096 28.0872 21.1203 28.0872 13.6048C28.0872 6.08932 21.9958 0 14.4823 0ZM14.4823 24.0448C8.71604 24.0448 4.04009 19.3689 4.04009 13.6027C4.04009 7.83641 8.71392 3.16049 14.4823 3.16049C20.2508 3.16049 24.9267 7.83641 24.9267 13.6048C24.9267 19.3732 20.2508 24.047 14.4823 24.047V24.0448Z" fill="url(#paint0_linear_3394_6130)"/>
<path d="M17.3666 20.2342L18.1382 29.5244C18.2274 30.6062 19.7152 30.8337 20.1233 29.8262L21.7918 25.7157C21.9533 25.3182 22.3444 25.061 22.7737 25.0717L26.4125 25.163C27.5177 25.1907 27.8875 23.6965 26.8971 23.2055L18.8523 19.2204C18.1318 18.8633 17.2986 19.4308 17.3645 20.23L17.3666 20.2342Z" fill="#CD8CDE"/>
</g>
<defs>
<linearGradient id="paint0_linear_3394_6130" x1="0.877441" y1="13.6048" x2="28.0872" y2="13.6048" gradientUnits="userSpaceOnUse">
<stop stop-color="#CF8DDE"/>
<stop offset="0.14" stop-color="#C788DD"/>
<stop offset="0.35" stop-color="#B17BDA"/>
<stop offset="0.61" stop-color="#8D67D7"/>
<stop offset="0.9" stop-color="#5C4BD1"/>
<stop offset="1" stop-color="#4A41D0"/>
</linearGradient>
<clipPath id="clip0_3394_6130">
<rect width="27.2098" height="30.47" fill="none" transform="translate(0.877441)"/>
</clipPath>
</defs>
</svg>
