<svg width="548" height="146" viewBox="0 0 548 146" fill="none" xmlns="http://www.w3.org/2000/svg">
<path d="M65.4154 0C29.279 0 0 29.1629 0 65.156C0 101.149 29.279 130.312 65.4154 130.312C101.552 130.312 130.831 101.149 130.831 65.156C130.831 29.1629 101.542 0 65.4154 0ZM65.4154 106.9C42.2681 106.9 23.505 88.2115 23.505 65.156C23.505 42.1005 42.2681 23.4016 65.4154 23.4016C88.5627 23.4016 107.336 42.1005 107.336 65.156C107.336 88.2115 88.5729 106.9 65.4154 106.9V106.9Z" fill="url(#paint0_linear_3401_7323)"/>
<path d="M79.2833 96.9031L82.9929 141.396C83.4222 146.577 90.5759 147.666 92.538 142.841L100.56 123.155C101.337 121.251 103.217 120.02 105.282 120.071L122.778 120.508C128.092 120.641 129.87 113.485 125.108 111.133L86.4267 92.0477C82.9623 90.3376 78.9562 93.0554 79.273 96.8827L79.2833 96.9031Z" fill="#CD8CDE"/>
<path d="M211 107.94L202.795 96.9088C200.363 97.3951 197.993 97.6382 195.684 97.6382C189.667 97.6382 184.136 96.2403 179.091 93.4445C174.107 90.6487 170.126 86.7589 167.148 81.7751C164.231 76.7305 162.772 71.0781 162.772 64.818C162.772 58.5578 164.231 52.9359 167.148 47.9521C170.126 42.9683 174.107 39.0785 179.091 36.2827C184.136 33.4869 189.667 32.089 195.684 32.089C201.701 32.089 207.201 33.4869 212.185 36.2827C217.229 39.0785 221.18 42.9683 224.037 47.9521C226.954 52.9359 228.413 58.5578 228.413 64.818C228.413 70.288 227.288 75.3022 225.039 79.8606C222.851 84.3582 219.782 88.096 215.831 91.0741L229.871 107.94H211ZM178.726 64.818C178.726 70.4704 180.246 74.9983 183.285 78.4019C186.384 81.7447 190.517 83.4161 195.684 83.4161C200.789 83.4161 204.861 81.7143 207.9 78.3107C211 74.9072 212.549 70.4096 212.549 64.818C212.549 59.1656 211 54.668 207.9 51.3252C204.861 47.9217 200.789 46.2199 195.684 46.2199C190.517 46.2199 186.384 47.8913 183.285 51.2341C180.246 54.5769 178.726 59.1048 178.726 64.818ZM251.85 84.1454H273.913V97H234.437V84.6013L255.588 58.9833H234.62V46.1287H273.457V58.5275L251.85 84.1454ZM289.784 97.7293C287.049 97.7293 284.801 96.9392 283.038 95.359C281.336 93.718 280.485 91.7123 280.485 89.342C280.485 86.9108 281.336 84.8748 283.038 83.2338C284.801 81.5927 287.049 80.7722 289.784 80.7722C292.459 80.7722 294.647 81.5927 296.348 83.2338C298.111 84.8748 298.992 86.9108 298.992 89.342C298.992 91.7123 298.111 93.718 296.348 95.359C294.647 96.9392 292.459 97.7293 289.784 97.7293ZM339.309 97L323.81 75.6669V97H308.221V29.5363H323.81V66.8237L339.218 46.1287H358.454L337.303 71.6555L358.636 97H339.309ZM380.167 54.6073C381.99 51.8115 384.269 49.6235 387.004 48.0432C389.739 46.4022 392.778 45.5817 396.121 45.5817V62.083H391.836C387.946 62.083 385.029 62.9339 383.084 64.6357C381.139 66.2767 380.167 69.194 380.167 73.3877V97H364.577V46.1287H380.167V54.6073ZM400.473 71.4732C400.473 66.2463 401.445 61.6575 403.39 57.7069C405.396 53.7564 408.1 50.7175 411.504 48.5902C414.908 46.463 418.706 45.3994 422.9 45.3994C426.486 45.3994 429.616 46.1287 432.29 47.5874C435.025 49.0461 437.122 50.9606 438.581 53.3309V46.1287H454.17V97H438.581V89.7978C437.061 92.1681 434.934 94.0827 432.199 95.5413C429.525 97 426.395 97.7293 422.809 97.7293C418.676 97.7293 414.908 96.6657 411.504 94.5385C408.1 92.3505 405.396 89.2812 403.39 85.3306C401.445 81.3192 400.473 76.7001 400.473 71.4732ZM438.581 71.5644C438.581 67.6746 437.487 64.6053 435.299 62.3565C433.171 60.1077 430.558 58.9833 427.458 58.9833C424.359 58.9833 421.715 60.1077 419.527 62.3565C417.4 64.5445 416.336 67.5834 416.336 71.4732C416.336 75.363 417.4 78.4627 419.527 80.7722C421.715 83.021 424.359 84.1454 427.458 84.1454C430.558 84.1454 433.171 83.021 435.299 80.7722C437.487 78.5235 438.581 75.4542 438.581 71.5644ZM490.975 59.0745H482.588V97H466.998V59.0745H461.346V46.1287H466.998V44.67C466.998 38.4099 468.791 33.6692 472.377 30.448C475.963 27.1659 481.221 25.5249 488.149 25.5249C489.304 25.5249 490.155 25.5553 490.702 25.6161V38.8353C487.724 38.653 485.627 39.0785 484.411 40.1117C483.196 41.1449 482.588 42.9986 482.588 45.6729V46.1287H490.975V59.0745ZM526.654 83.7808V97H518.722C513.07 97 508.664 95.6325 505.503 92.8975C502.343 90.1017 500.762 85.5737 500.762 79.3136V59.0745H494.563V46.1287H500.762V33.73H516.352V46.1287H526.563V59.0745H516.352V79.4959C516.352 81.0154 516.717 82.1094 517.446 82.7779C518.175 83.4465 519.391 83.7808 521.093 83.7808H526.654Z" fill="#1A1A1A"/>
<defs>
<linearGradient id="paint0_linear_3401_7323" x1="0" y1="65.156" x2="130.831" y2="65.156" gradientUnits="userSpaceOnUse">
<stop stop-color="#CF8DDE"/>
<stop offset="0.14" stop-color="#C788DD"/>
<stop offset="0.35" stop-color="#B17BDA"/>
<stop offset="0.61" stop-color="#8D67D7"/>
<stop offset="0.9" stop-color="#5C4BD1"/>
<stop offset="1" stop-color="#4A41D0"/>
</linearGradient>
</defs>
</svg>
