<svg width="18" height="18" viewBox="0 0 18 18" fill="none" xmlns="http://www.w3.org/2000/svg">
<path d="M15.2143 2.57143C15.5801 2.57143 15.9424 2.64348 16.2803 2.78348C16.6183 2.92347 16.9254 3.12867 17.1841 3.38735C17.4428 3.64602 17.648 3.95312 17.788 4.2911C17.9279 4.62907 18 4.99132 18 5.35714V15.2143C18 15.5801 17.9279 15.9424 17.788 16.2803C17.648 16.6183 17.4428 16.9254 17.1841 17.1841C16.9254 17.4428 16.6183 17.648 16.2803 17.788C15.9424 17.9279 15.5801 18 15.2143 18H5.35714C4.99132 18 4.62907 17.9279 4.2911 17.788C3.95312 17.648 3.64602 17.4428 3.38735 17.1841C3.12867 16.9254 2.92347 16.6183 2.78348 16.2803C2.64348 15.9424 2.57143 15.5801 2.57143 15.2143V9.85886C2.97771 10.0286 3.40886 10.1503 3.85714 10.2206V15.2143C3.85714 15.3926 3.888 15.564 3.94543 15.7234L8.93657 10.8369C9.27872 10.5019 9.73323 10.3062 10.2117 10.2878C10.6901 10.2695 11.1583 10.4297 11.5251 10.7374L11.6349 10.8369L16.6251 15.7243C16.6826 15.5649 16.7143 15.3934 16.7143 15.2143V5.35714C16.7143 4.95932 16.5562 4.57779 16.2749 4.29648C15.9936 4.01518 15.6121 3.85714 15.2143 3.85714H10.2206C10.1523 3.41554 10.0309 2.98383 9.85886 2.57143H15.2143ZM9.90771 11.6949L9.83571 11.7549L4.85829 16.6294C5.01429 16.6843 5.18229 16.7143 5.35714 16.7143H15.2143C15.3883 16.7143 15.5563 16.6843 15.7114 16.6294L10.7357 11.7557C10.6272 11.6493 10.4844 11.5848 10.3329 11.5737C10.1813 11.5626 10.0306 11.6055 9.90771 11.6949ZM13.0731 5.57143C13.5851 5.57143 14.0761 5.7748 14.4381 6.1368C14.8001 6.4988 15.0034 6.98977 15.0034 7.50171C15.0034 8.01366 14.8001 8.50463 14.4381 8.86663C14.0761 9.22863 13.5851 9.432 13.0731 9.432C12.5612 9.432 12.0702 9.22863 11.7082 8.86663C11.3462 8.50463 11.1429 8.01366 11.1429 7.50171C11.1429 6.98977 11.3462 6.4988 11.7082 6.1368C12.0702 5.7748 12.5612 5.57143 13.0731 5.57143ZM4.71429 0C5.33337 -9.22514e-09 5.9464 0.121939 6.51836 0.358854C7.09033 0.595769 7.61003 0.94302 8.04779 1.38078C8.48555 1.81854 8.8328 2.33824 9.06972 2.91021C9.30663 3.48217 9.42857 4.0952 9.42857 4.71429C9.42857 5.33337 9.30663 5.9464 9.06972 6.51836C8.8328 7.09033 8.48555 7.61003 8.04779 8.04779C7.61003 8.48555 7.09033 8.8328 6.51836 9.06972C5.9464 9.30663 5.33337 9.42857 4.71429 9.42857C3.46398 9.42857 2.26488 8.93189 1.38078 8.04779C0.496682 7.16369 0 5.96459 0 4.71429C0 3.46398 0.496682 2.26488 1.38078 1.38078C2.26488 0.496682 3.46398 1.8631e-08 4.71429 0ZM13.0731 6.85714C12.9885 6.85714 12.9047 6.87382 12.8265 6.90621C12.7483 6.9386 12.6772 6.98608 12.6174 7.04593C12.5575 7.10579 12.51 7.17684 12.4776 7.25505C12.4452 7.33325 12.4286 7.41707 12.4286 7.50171C12.4286 7.58636 12.4452 7.67018 12.4776 7.74838C12.51 7.82658 12.5575 7.89764 12.6174 7.95749C12.6772 8.01735 12.7483 8.06483 12.8265 8.09722C12.9047 8.12961 12.9885 8.14629 13.0731 8.14629C13.2441 8.14629 13.408 8.07838 13.5289 7.95749C13.6498 7.83661 13.7177 7.67267 13.7177 7.50171C13.7177 7.33076 13.6498 7.16681 13.5289 7.04593C13.408 6.92505 13.2441 6.85714 13.0731 6.85714ZM4.71429 1.71429L4.63714 1.72029C4.55151 1.73593 4.47267 1.77728 4.41112 1.83883C4.34957 1.90039 4.30822 1.97922 4.29257 2.06486L4.28571 2.14286V4.28571H2.14114L2.064 4.29257C1.97837 4.30822 1.89953 4.34957 1.83798 4.41112C1.77642 4.47267 1.73507 4.55151 1.71943 4.63714L1.71257 4.71429L1.71943 4.79143C1.73507 4.87706 1.77642 4.9559 1.83798 5.01745C1.89953 5.07901 1.97837 5.12036 2.064 5.136L2.14114 5.14286H4.28571V7.28829L4.29257 7.36543C4.30822 7.45106 4.34957 7.5299 4.41112 7.59145C4.47267 7.65301 4.55151 7.69436 4.63714 7.71L4.71429 7.71771L4.79143 7.71C4.87706 7.69436 4.9559 7.65301 5.01745 7.59145C5.07901 7.5299 5.12036 7.45106 5.136 7.36543L5.14286 7.28829V5.14286H7.29L7.36714 5.136C7.45278 5.12036 7.53161 5.07901 7.59317 5.01745C7.65472 4.9559 7.69607 4.87706 7.71171 4.79143L7.71857 4.71429L7.71171 4.63714C7.69601 4.55139 7.65454 4.47247 7.59282 4.4109C7.5311 4.34934 7.45207 4.30806 7.36629 4.29257L7.28914 4.28571H5.14286V2.14286L5.136 2.06571C5.12051 1.97993 5.07923 1.9009 5.01767 1.83918C4.9561 1.77746 4.87718 1.73599 4.79143 1.72029L4.71429 1.71429Z" fill="white"/>
</svg>
