<svg width="36" height="36" viewBox="0 0 36 36" fill="none" xmlns="http://www.w3.org/2000/svg">
<g clip-path="url(#clip0_611_796)">
<path d="M18 2C14.8355 2 11.7421 2.93838 9.11088 4.69649C6.4797 6.45459 4.42894 8.95345 3.21793 11.8771C2.00693 14.8007 1.69008 18.0177 2.30744 21.1214C2.92481 24.2251 4.44866 27.0761 6.6863 29.3137C8.92394 31.5513 11.7749 33.0752 14.8786 33.6926C17.9823 34.3099 21.1993 33.9931 24.1229 32.7821C27.0466 31.5711 29.5454 29.5203 31.3035 26.8891C33.0616 24.2579 34 21.1645 34 18C34 13.7565 32.3143 9.68687 29.3137 6.68629C26.3131 3.68571 22.2435 2 18 2ZM18 32C15.2311 32 12.5243 31.1789 10.222 29.6406C7.91974 28.1022 6.12532 25.9157 5.06569 23.3576C4.00607 20.7994 3.72882 17.9845 4.26901 15.2687C4.80921 12.553 6.14258 10.0584 8.10051 8.1005C10.0584 6.14257 12.553 4.8092 15.2687 4.26901C17.9845 3.72881 20.7994 4.00606 23.3576 5.06569C25.9157 6.12531 28.1022 7.91973 29.6406 10.222C31.1789 12.5243 32 15.2311 32 18C32 21.713 30.525 25.274 27.8995 27.8995C25.274 30.525 21.713 32 18 32Z" fill="#F3636E"/>
<path d="M18.9199 18.4V10.75C18.9199 10.4848 18.8146 10.2304 18.627 10.0429C18.4395 9.85536 18.1851 9.75 17.9199 9.75C17.6547 9.75 17.4004 9.85536 17.2128 10.0429C17.0253 10.2304 16.9199 10.4848 16.9199 10.75V19.47L22.8199 23.47C22.9286 23.5517 23.0528 23.6105 23.185 23.6426C23.3171 23.6747 23.4544 23.6795 23.5885 23.6567C23.7226 23.6339 23.8506 23.584 23.9647 23.5101C24.0789 23.4362 24.1767 23.3397 24.2523 23.2267C24.3279 23.1136 24.3796 22.9864 24.4044 22.8526C24.4291 22.7189 24.4263 22.5815 24.3961 22.4489C24.3659 22.3163 24.309 22.1913 24.2289 22.0814C24.1487 21.9716 24.047 21.8792 23.9299 21.81L18.9199 18.4Z" fill="#F3636E"/>
<path d="M7.99996 17.9401C7.99082 16.1412 8.47006 14.3734 9.38659 12.8254C10.3031 11.2774 11.6226 10.0072 13.2043 9.15012C14.786 8.29306 16.5707 7.88133 18.368 7.95882C20.1653 8.0363 21.9079 8.60011 23.41 9.59012L24.26 8.23012C22.8332 7.29552 21.2171 6.68851 19.5279 6.45271C17.8387 6.21691 16.1182 6.35816 14.49 6.86631C12.8618 7.37447 11.3664 8.23692 10.1112 9.39171C8.85596 10.5465 7.87207 11.965 7.23019 13.5452C6.58832 15.1254 6.30439 16.8282 6.39882 18.5312C6.49324 20.2342 6.96367 21.8952 7.7763 23.3948C8.58894 24.8943 9.72361 26.1953 11.0988 27.2043C12.474 28.2132 14.0556 28.9051 15.73 29.2301L16 27.7001C13.7479 27.2404 11.723 26.019 10.266 24.2414C8.80891 22.4638 8.00869 20.2386 7.99996 17.9401Z" fill="#F3636E"/>
</g>
<defs>
<clipPath id="clip0_611_796">
<rect width="36" height="36" fill="white"/>
</clipPath>
</defs>
</svg>
