<svg width="32" height="32" viewBox="0 0 32 32" fill="none" xmlns="http://www.w3.org/2000/svg">
<path d="M20 18.666H12C11.6464 18.666 11.3073 18.8065 11.0572 19.0565C10.8072 19.3066 10.6667 19.6457 10.6667 19.9993C10.6667 20.353 10.8072 20.6921 11.0572 20.9422C11.3073 21.1922 11.6464 21.3327 12 21.3327H20C20.3537 21.3327 20.6928 21.1922 20.9428 20.9422C21.1929 20.6921 21.3334 20.353 21.3334 19.9993C21.3334 19.6457 21.1929 19.3066 20.9428 19.0565C20.6928 18.8065 20.3537 18.666 20 18.666ZM20 13.3327H14.6667C14.3131 13.3327 13.9739 13.4732 13.7239 13.7232C13.4738 13.9733 13.3334 14.3124 13.3334 14.666C13.3334 15.0196 13.4738 15.3588 13.7239 15.6088C13.9739 15.8589 14.3131 15.9993 14.6667 15.9993H20C20.3537 15.9993 20.6928 15.8589 20.9428 15.6088C21.1929 15.3588 21.3334 15.0196 21.3334 14.666C21.3334 14.3124 21.1929 13.9733 20.9428 13.7232C20.6928 13.4732 20.3537 13.3327 20 13.3327ZM22.6667 5.33268H21.0934C20.8183 4.55462 20.3093 3.88068 19.6361 3.40327C18.963 2.92585 18.1586 2.66833 17.3334 2.66602H14.6667C13.8414 2.66833 13.0371 2.92585 12.364 3.40327C11.6908 3.88068 11.1818 4.55462 10.9067 5.33268H9.33337C8.27251 5.33268 7.25509 5.75411 6.50495 6.50426C5.7548 7.2544 5.33337 8.27182 5.33337 9.33268V25.3327C5.33337 26.3935 5.7548 27.411 6.50495 28.1611C7.25509 28.9113 8.27251 29.3327 9.33337 29.3327H22.6667C23.7276 29.3327 24.745 28.9113 25.4951 28.1611C26.2453 27.411 26.6667 26.3935 26.6667 25.3327V9.33268C26.6667 8.27182 26.2453 7.2544 25.4951 6.50426C24.745 5.75411 23.7276 5.33268 22.6667 5.33268ZM13.3334 6.66602C13.3334 6.31239 13.4738 5.97326 13.7239 5.72321C13.9739 5.47316 14.3131 5.33268 14.6667 5.33268H17.3334C17.687 5.33268 18.0261 5.47316 18.2762 5.72321C18.5262 5.97326 18.6667 6.31239 18.6667 6.66602V7.99935H13.3334V6.66602ZM24 25.3327C24 25.6863 23.8596 26.0254 23.6095 26.2755C23.3595 26.5255 23.0203 26.666 22.6667 26.666H9.33337C8.97975 26.666 8.64061 26.5255 8.39057 26.2755C8.14052 26.0254 8.00004 25.6863 8.00004 25.3327V9.33268C8.00004 8.97906 8.14052 8.63992 8.39057 8.38987C8.64061 8.13983 8.97975 7.99935 9.33337 7.99935H10.6667V9.33268C10.6667 9.6863 10.8072 10.0254 11.0572 10.2755C11.3073 10.5255 11.6464 10.666 12 10.666H20C20.3537 10.666 20.6928 10.5255 20.9428 10.2755C21.1929 10.0254 21.3334 9.6863 21.3334 9.33268V7.99935H22.6667C23.0203 7.99935 23.3595 8.13983 23.6095 8.38987C23.8596 8.63992 24 8.97906 24 9.33268V25.3327Z" fill="white"/>
</svg>
