<svg width="16" height="16" viewBox="0 0 16 16" fill="none" xmlns="http://www.w3.org/2000/svg">
<path d="M12.8825 6.3125C12.8825 6.3125 12.5205 10.8025 12.3105 12.6938C12.2105 13.5972 11.6525 14.1265 10.7385 14.1432C8.99921 14.1745 7.25788 14.1765 5.51921 14.1398C4.63987 14.1218 4.09121 13.5858 3.99321 12.6985C3.78188 10.7905 3.42188 6.3125 3.42188 6.3125" stroke="#F3636E" stroke-linecap="round" stroke-linejoin="round"/>
<path d="M13.8053 4.15951H2.5" stroke="#F3636E" stroke-linecap="round" stroke-linejoin="round"/>
<path d="M11.6264 4.15998C11.1031 4.15998 10.6524 3.78998 10.5497 3.27732L10.3877 2.46665C10.2877 2.09265 9.94907 1.83398 9.56307 1.83398H6.74107C6.35507 1.83398 6.0164 2.09265 5.9164 2.46665L5.7544 3.27732C5.65173 3.78998 5.20107 4.15998 4.67773 4.15998" stroke="#F3636E" stroke-linecap="round" stroke-linejoin="round"/>
</svg>
