<svg width="34" height="32" viewBox="0 0 34 32" fill="none" xmlns="http://www.w3.org/2000/svg">
<path d="M24.8108 11.9458C19.7297 11.9458 15.6216 16.2593 15.6216 21.5944C15.6216 26.9296 19.7297 31.2431 24.8108 31.2431C29.8919 31.2431 34 26.9296 34 21.5944C34 16.2593 29.8919 11.9458 24.8108 11.9458ZM31.8378 21.0269H28.5946C28.5946 18.7566 28.2702 16.4863 27.6216 14.7836C29.8919 15.9188 31.6216 18.189 31.8378 21.0269ZM24.8108 28.9728C24.3783 28.7458 23.4054 26.9296 23.1891 23.2972H26.3243C26.1081 26.9296 25.2432 28.7458 24.8108 28.9728ZM23.1891 21.0269C23.2973 16.7134 24.3783 14.4431 24.7027 14.2161C25.1351 14.4431 26.2162 16.7134 26.3243 21.0269H23.1891ZM22 14.7836C21.3513 16.4863 21.1351 18.7566 21.027 21.0269H17.7837C18 18.189 19.7297 15.9188 22 14.7836ZM18 23.2972H21.027C21.1351 25.1134 21.4594 26.9296 22 28.4053C20.054 27.4972 18.5405 25.5674 18 23.2972ZM27.6216 28.4053C28.1621 26.9296 28.4864 25.2269 28.5946 23.2972H31.7297C31.081 25.5674 29.5675 27.4972 27.6216 28.4053Z" fill="#2C22AE"/>
<path d="M28.4865 8.94947C27.4928 3.80353 22.9659 0 17.666 0C12.3662 0 7.8393 3.80353 6.84559 9.06134C2.98114 9.84442 0 13.2005 0 17.3396C0 21.9262 3.75403 25.7297 8.28096 25.7297H12.1454V23.4924H8.28096C4.96857 23.4924 2.20825 20.6957 2.20825 17.3396C2.20825 14.0954 4.63733 11.4106 7.8393 11.1868H8.83302V10.18C9.38508 5.70529 13.1391 2.23737 17.666 2.23737C21.7513 2.23737 25.1741 5.14595 26.1678 8.94947H28.4865Z" fill="#2C22AE"/>
</svg>
