<svg width="30" height="36" viewBox="0 0 30 36" fill="none" xmlns="http://www.w3.org/2000/svg">
<path d="M22.0628 10.9378C21.4136 10.2889 20.5333 9.92432 19.6155 9.92432C18.6976 9.92432 17.8173 10.2889 17.1682 10.9378L16.6316 11.4732L18.2632 13.1047L18.7997 12.5693C19.0173 12.3592 19.3088 12.2429 19.6113 12.2455C19.9138 12.2481 20.2032 12.3695 20.4172 12.5834C20.6311 12.7973 20.7525 13.0867 20.7551 13.3893C20.7577 13.6918 20.6414 13.9833 20.4312 14.2009L16.6316 18.0005L18.2632 19.632L22.0628 15.8324C22.7117 15.1833 23.0763 14.303 23.0763 13.3851C23.0763 12.4672 22.7117 11.5869 22.0628 10.9378ZM11.2005 23.4317C10.9828 23.6418 10.6914 23.7581 10.3888 23.7555C10.0863 23.7529 9.79691 23.6315 9.58298 23.4176C9.36904 23.2037 9.2477 22.9143 9.24507 22.6117C9.24244 22.3092 9.35874 22.0177 9.56892 21.8001L13.3685 18.0005L11.737 16.369L7.93738 20.1686C7.60677 20.4879 7.34306 20.8699 7.16165 21.2922C6.98023 21.7145 6.88474 22.1687 6.88075 22.6283C6.87675 23.088 6.96434 23.5438 7.13838 23.9692C7.31243 24.3946 7.56946 24.7811 7.89448 25.1061C8.21949 25.4311 8.60598 25.6881 9.03139 25.8622C9.4568 26.0362 9.91261 26.1238 10.3722 26.1198C10.8319 26.1158 11.2861 26.0203 11.7084 25.8389C12.1307 25.6575 12.5127 25.3938 12.832 25.0632L13.3685 24.5278L11.737 22.8963L11.2005 23.4317ZM12.832 10.939C12.1765 10.3237 11.3073 9.98759 10.4084 10.0018C9.50952 10.0159 8.65139 10.3793 8.01561 11.0149C7.37984 11.6505 7.01629 12.5086 7.00191 13.4075C6.98752 14.3064 7.32342 15.1756 7.93854 15.8313L8.47392 16.3678L10.1055 14.7363L9.57007 14.1997C9.35989 13.9821 9.24359 13.6906 9.24622 13.3881C9.24885 13.0856 9.3702 12.7962 9.58413 12.5822C9.79806 12.3683 10.0875 12.247 10.39 12.2443C10.6925 12.2417 10.984 12.358 11.2016 12.5682L15.0001 16.369L16.6316 14.7374L12.832 10.939Z" fill="#006186"/>
<path d="M22.0626 20.1684L21.5273 19.6318L19.8957 21.2634L20.4311 21.7999C20.6413 22.0175 20.7576 22.309 20.755 22.6115C20.7523 22.9141 20.631 23.2035 20.417 23.4174C20.2031 23.6313 19.9137 23.7527 19.6112 23.7553C19.3086 23.7579 19.0172 23.6416 18.7996 23.4315L14.9999 19.6318L13.3684 21.2634L17.168 25.063C17.8209 25.6935 18.6953 26.0424 19.6029 26.0346C20.5105 26.0267 21.3787 25.6626 22.0205 25.0208C22.6623 24.379 23.0263 23.5108 23.0342 22.6032C23.0421 21.6956 22.6932 20.8212 22.0626 20.1684Z" fill="#006186"/>
<path d="M15 35.3081C14.7957 35.3083 14.595 35.2541 14.4185 35.1512L0.572308 27.0743C0.398103 26.9726 0.253587 26.8271 0.15317 26.6521C0.052752 26.4772 -5.9716e-05 26.279 5.06719e-08 26.0773V9.92349C-5.9716e-05 9.7218 0.052752 9.52361 0.15317 9.34869C0.253587 9.17377 0.398103 9.02822 0.572308 8.92657L14.4185 0.849648C14.595 0.746654 14.7956 0.692383 15 0.692383C15.2044 0.692383 15.405 0.746654 15.5815 0.849648L29.4277 8.92657L28.2646 10.9204L15 3.18272L2.30769 10.5858V25.415L15 32.8193L27.6923 25.415V16.8466H30V26.0773C30.0001 26.279 29.9472 26.4772 29.8468 26.6521C29.7464 26.8271 29.6019 26.9726 29.4277 27.0743L15.5815 35.1512C15.405 35.2541 15.2043 35.3083 15 35.3081Z" fill="#006186"/>
</svg>
