<svg width="24" height="27" viewBox="0 0 24 27" fill="none" xmlns="http://www.w3.org/2000/svg">
<path d="M1.5 6H22.5C23.325 6 24 6.675 24 7.5C24 8.325 23.325 9 22.5 9H1.5C0.675 9 0 8.325 0 7.5C0 6.675 0.675 6 1.5 6ZM1.5 15H22.5C23.325 15 24 14.325 24 13.5C24 12.675 23.325 12 22.5 12H1.5C0.675 12 0 12.675 0 13.5C0 14.325 0.675 15 1.5 15ZM1.5 21H9C9.825 21 10.5 20.325 10.5 19.5C10.5 18.675 9.825 18 9 18H1.5C0.675 18 0 18.675 0 19.5C0 20.325 0.675 21 1.5 21ZM1.5 27H9C9.825 27 10.5 26.325 10.5 25.5C10.5 24.675 9.825 24 9 24H1.5C0.675 24 0 24.675 0 25.5C0 26.325 0.675 27 1.5 27ZM17.115 22.755L16.05 21.69C15.9111 21.5511 15.7463 21.441 15.5648 21.3658C15.3834 21.2907 15.1889 21.252 14.9925 21.252C14.7961 21.252 14.6016 21.2907 14.4202 21.3658C14.2387 21.441 14.0739 21.5511 13.935 21.69C13.7961 21.8289 13.686 21.9937 13.6108 22.1752C13.5357 22.3566 13.497 22.5511 13.497 22.7475C13.497 22.9439 13.5357 23.1384 13.6108 23.3198C13.686 23.5013 13.7961 23.6661 13.935 23.805L16.065 25.935C16.65 26.52 17.595 26.52 18.18 25.935L22.935 21.18C23.0739 21.0411 23.184 20.8763 23.2592 20.6948C23.3343 20.5134 23.373 20.3189 23.373 20.1225C23.373 19.9261 23.3343 19.7316 23.2592 19.5502C23.184 19.3687 23.0739 19.2039 22.935 19.065C22.7961 18.9261 22.6313 18.816 22.4498 18.7408C22.2684 18.6657 22.0739 18.627 21.8775 18.627C21.6811 18.627 21.4866 18.6657 21.3052 18.7408C21.1237 18.816 20.9589 18.9261 20.82 19.065L17.115 22.755ZM0 1.5C0 2.325 0.675 3 1.5 3H22.5C23.325 3 24 2.325 24 1.5C24 0.675 23.325 0 22.5 0H1.5C0.675 0 0 0.675 0 1.5Z" fill="#BB4050"/>
</svg>
