<svg width="36" height="33" viewBox="0 0 36 33" fill="none" xmlns="http://www.w3.org/2000/svg">
<path d="M4.28398 24.2764C4.16014 24.2764 4.03631 24.2521 3.92138 24.2032C3.62013 24.074 3.42718 23.7982 3.42718 23.495V19.9002H3.14158C1.40903 19.9002 0 18.6151 0 17.0349V2.86527C0 1.2851 1.40903 0 3.14158 0H23.7047C25.4372 0 26.8463 1.2851 26.8463 2.86527V5.99102C26.8463 6.42248 26.4625 6.77245 25.9895 6.77245C25.5164 6.77245 25.1327 6.42248 25.1327 5.99102V2.86527C25.1327 2.14687 24.4924 1.56287 23.7047 1.56287H3.14158C2.3539 1.56287 1.71359 2.14687 1.71359 2.86527V17.0349C1.71359 17.7533 2.3539 18.3373 3.14158 18.3373H4.28398C4.75704 18.3373 5.14077 18.6873 5.14077 19.1187V21.8243L6.01984 21.1548C6.38016 20.88 6.92234 20.9218 7.2269 21.2545C7.52917 21.5852 7.48131 22.0786 7.11757 22.3554L4.83278 24.0952C4.67548 24.2143 4.4815 24.2764 4.28398 24.2764Z" fill="#4837B4"/>
<path d="M22.5622 21.2645C22.0891 21.2645 21.7054 20.9145 21.7054 20.4831V19.5246C21.7054 18.7808 22.1394 18.0818 22.8388 17.6992L23.8251 17.1588C24.4588 16.8129 24.8514 16.181 24.8514 15.5084V15.3192C24.8514 14.1684 23.8239 13.2313 22.5622 13.2313C21.3004 13.2313 20.2729 14.1684 20.2729 15.3192C20.2729 15.7507 19.8892 16.1007 19.4161 16.1007C18.9431 16.1007 18.5593 15.7507 18.5593 15.3192C18.5593 13.3067 20.3555 11.6685 22.5622 11.6685C24.7688 11.6685 26.565 13.3067 26.565 15.3192V15.5084C26.565 16.7274 25.8533 17.8731 24.7063 18.4988L23.7212 19.0392C23.5338 19.141 23.419 19.3272 23.419 19.5245V20.483C23.419 20.9144 23.0352 21.2645 22.5622 21.2645Z" fill="#4837B4"/>
<path d="M22.5622 25.1614C23.3319 25.1614 23.9559 24.5923 23.9559 23.8903C23.9559 23.1882 23.3319 22.6191 22.5622 22.6191C21.7924 22.6191 21.1685 23.1882 21.1685 23.8903C21.1685 24.5923 21.7924 25.1614 22.5622 25.1614Z" fill="#4837B4"/>
<path d="M31.7014 32.6119C31.5051 32.6119 31.3098 32.5498 31.1525 32.4308L25.6335 28.2356H12.2807C10.5482 28.2356 9.13916 26.9505 9.13916 25.3704V11.2007C9.13916 9.62055 10.5482 8.33545 12.2807 8.33545H32.8438C34.5764 8.33545 35.9854 9.62055 35.9854 11.2007V25.3704C35.9854 26.9505 34.5764 28.2356 32.8438 28.2356H32.5582V31.8305C32.5582 32.1336 32.3663 32.4094 32.0652 32.5386C31.9491 32.5875 31.8253 32.6119 31.7014 32.6119ZM12.2807 9.89832C11.4931 9.89832 10.8528 10.4823 10.8528 11.2007V25.3704C10.8528 26.0888 11.4931 26.6728 12.2807 26.6728H25.9438C26.1446 26.6728 26.3387 26.7368 26.4927 26.8538L30.8448 30.1617V27.4542C30.8448 27.0227 31.2285 26.6728 31.7016 26.6728H32.8439C33.6316 26.6728 34.2719 26.0888 34.2719 25.3704V11.2007C34.2719 10.4823 33.6316 9.89832 32.8439 9.89832H12.2807Z" fill="#4837B4"/>
</svg>
