<svg width="30" height="30" viewBox="0 0 30 30" fill="none" xmlns="http://www.w3.org/2000/svg">
<path d="M15 9.271C16.7615 9.271 18.3392 10.0705 19.3909 11.325L20.1608 10.7801C18.9381 9.28679 17.0806 8.3335 15 8.3335C11.3182 8.3335 8.33325 11.318 8.33325 14.9999C8.33325 18.6818 11.3182 21.6667 15 21.6667C18.1595 21.6667 20.8038 19.4682 21.4911 16.5179C21.0404 16.8372 20.6005 17.1488 20.1791 17.447C19.2597 19.3853 17.2842 20.7292 15 20.7292C11.8409 20.7292 9.27075 18.1591 9.27075 14.9999C9.27075 11.841 11.8409 9.271 15 9.271Z" fill="#983C9A"/>
<path d="M28.5184 12.4998H27.1632C26.7485 12.7937 26.304 13.1085 25.8401 13.4373H26.3958H28.5184C28.8132 13.4373 29.0625 13.7718 29.0625 14.1677V15.8333C29.0625 16.2286 28.8132 16.5627 28.5184 16.5627H26.3958H25.6407L25.4798 17.3005C25.2104 18.5362 24.7243 19.7081 24.0351 20.7835L23.6282 21.4188L24.1617 21.9523L25.6645 23.4551C25.7769 23.5672 25.7932 23.7164 25.7867 23.8217C25.7758 24.0102 25.6828 24.2046 25.5327 24.3551L24.3558 25.5326C24.193 25.6948 23.9848 25.7879 23.7843 25.7879C23.6904 25.7879 23.5572 25.7665 23.4547 25.6636L21.9518 24.1613L21.4183 23.628L20.7832 24.0351C19.7085 24.7238 18.5369 25.2098 17.3005 25.4797L16.5628 25.6407V26.3957V28.5188C16.5628 28.8135 16.2286 29.0625 15.8329 29.0625H14.1672C13.7716 29.0625 13.4374 28.8135 13.4374 28.5188V26.3957V25.6407L12.6997 25.4797C11.4631 25.2098 10.2913 24.7238 9.21696 24.0351L8.58169 23.6279L8.04818 24.1615L6.54487 25.6645C6.44301 25.7665 6.30982 25.7879 6.21597 25.7879C6.01547 25.7879 5.80708 25.6948 5.64513 25.5333L4.46766 24.3553C4.31704 24.2046 4.22435 24.0102 4.21326 23.8219C4.20708 23.7165 4.2232 23.5674 4.33641 23.4546L5.83865 21.9523L6.37207 21.4188L5.96512 20.7835C5.27606 19.7083 4.79004 18.5365 4.52041 17.3004L4.35951 16.5627H3.60443H1.48167C1.18676 16.5627 0.9375 16.2286 0.9375 15.8333V14.1677C0.9375 13.7718 1.18676 13.4373 1.48167 13.4373H3.60443H4.35951L4.52041 12.6996C4.79004 11.4634 5.27606 10.2917 5.96501 9.21708L6.37219 8.5818L5.83865 8.0483L4.33558 6.54499C4.23363 6.44337 4.21223 6.31038 4.21212 6.21666C4.212 6.01615 4.30505 5.80821 4.4673 5.64584L5.6448 4.46789C5.80753 4.30538 6.01582 4.21212 6.2163 4.21212C6.31005 4.21212 6.44313 4.23352 6.54567 4.33629L8.04818 5.83854L8.58169 6.37207L9.21696 5.96489C10.2911 5.2763 11.4629 4.7906 12.6994 4.52121L13.4374 4.36055V3.60523V1.4812C13.4374 1.18652 13.7716 0.9375 14.1672 0.9375H15.8329C16.2286 0.9375 16.5628 1.18652 16.5628 1.4812V3.60523V4.36055L17.3007 4.52121C18.5371 4.7906 19.7088 5.2763 20.7832 5.96489L21.4183 6.37195L21.9518 5.83866L23.4556 4.33547C23.5572 4.23352 23.6902 4.21212 23.7838 4.21212C23.9843 4.21212 24.1926 4.30538 24.3549 4.46742L25.5329 5.64605C25.6831 5.79633 25.7758 5.99041 25.7867 6.17855C25.7932 6.28395 25.7769 6.43317 25.6641 6.54579L24.5014 7.70862L26.7229 6.13643C26.7023 5.72948 26.5249 5.31211 26.1958 4.98309L25.0179 3.8047C24.6668 3.45382 24.2157 3.27462 23.7838 3.27462C23.4142 3.27462 23.0585 3.40598 22.7918 3.67334L21.289 5.17559C20.1464 4.44316 18.869 3.90335 17.5003 3.60523V1.4812C17.5003 0.66307 16.7539 0 15.8329 0H14.1672C13.2461 0 12.4999 0.66307 12.4999 1.4812V3.60523C11.1311 3.90335 9.85359 4.44316 8.71102 5.17559L7.20851 3.67334C6.94176 3.40598 6.58608 3.27462 6.2163 3.27462C5.78442 3.27462 5.33341 3.4537 4.98218 3.8047L3.80423 4.98309C3.1533 5.63405 3.09391 6.63059 3.67343 7.20874L5.1757 8.71113C4.44328 9.85371 3.903 11.1311 3.60443 12.4998H1.48167C0.663069 12.4998 0 13.2461 0 14.1677V15.8333C0 16.7539 0.663069 17.5002 1.48167 17.5002H3.60443C3.903 18.8689 4.44328 20.1463 5.1757 21.2893L3.67343 22.7916C3.09391 23.3699 3.1533 24.366 3.80423 25.0178L4.98218 26.1961C5.33329 26.5465 5.7843 26.7254 6.21597 26.7254C6.58584 26.7254 6.94165 26.5941 7.20851 26.3267L8.71102 24.8244C9.85359 25.5568 11.1311 26.097 12.4999 26.3957V28.5188C12.4999 29.3369 13.2461 30 14.1672 30H15.8329C16.7539 30 17.5003 29.3369 17.5003 28.5188V26.3957C18.869 26.097 20.1464 25.5568 21.289 24.8244L22.7918 26.3267C23.0585 26.594 23.4144 26.7254 23.7843 26.7254C24.2159 26.7254 24.6668 26.5465 25.0179 26.1961L26.1958 25.0178C26.8467 24.366 26.9062 23.3699 26.3269 22.7916L24.8245 21.2893C25.557 20.1463 26.0973 18.8689 26.3958 17.5002H28.5184C29.3369 17.5002 30 16.7539 30 15.8333V14.1677C30 13.2461 29.3369 12.4998 28.5184 12.4998Z" fill="#983C9A"/>
<path d="M16.2575 14.6798C16.2383 14.6524 16.2195 14.6243 16.2026 14.5977L14.367 12.1122C14.1291 11.7757 13.7424 11.5748 13.3327 11.5748C13.0642 11.5748 12.807 11.659 12.5889 11.8184L11.7758 12.4129C11.2115 12.8252 11.0819 13.6265 11.492 14.2061C11.5149 14.2374 13.7944 17.3381 14.7901 18.7514C14.9963 19.044 15.3333 19.2188 15.692 19.2188H15.6922C15.9275 19.2188 16.1598 19.1426 16.364 18.9985C18.921 17.1921 29.4688 9.71728 29.4746 9.71318C30.0385 9.30084 30.1681 8.49952 29.7632 7.92663L29.1779 7.09992C28.9401 6.76345 28.5535 6.5625 28.1438 6.5625C27.8754 6.5625 27.6183 6.64662 27.4055 6.80191L16.5475 14.486C16.4562 14.5561 16.3468 14.6283 16.2575 14.6798ZM27.9525 7.56328C28.0978 7.45709 28.3086 7.49416 28.4123 7.64133L28.9978 8.46806C29.1088 8.6253 29.0745 8.84433 28.9268 8.95237C28.9268 8.95237 18.38 16.4265 15.8231 18.2327C15.7773 18.2649 15.7334 18.2812 15.6922 18.2812C15.6284 18.2812 15.5791 18.2436 15.5565 18.2114C14.5555 16.7905 12.2703 13.682 12.2523 13.6578C12.1413 13.5008 12.1755 13.2819 12.329 13.1699L13.1422 12.5752C13.1985 12.534 13.2643 12.5123 13.3327 12.5123C13.4401 12.5123 13.5381 12.5638 13.6073 12.6614L15.4201 15.1141C15.5018 15.2418 15.6519 15.4567 15.8016 15.5698C15.9007 15.6442 16.0222 15.6834 16.1534 15.6834C16.4633 15.6834 16.8494 15.4366 17.1037 15.2406L27.9525 7.56328Z" fill="#983C9A"/>
</svg>
