<svg width="19" height="19" viewBox="0 0 19 19" fill="none" xmlns="http://www.w3.org/2000/svg">
<path d="M14.0468 2.00671H7.45988L4.01343 5.44815V7.52505H5.01676V6.82773H8.83444V3.01005H14.0468V15.05H4.01343C4.01343 15.3161 4.11914 15.5713 4.3073 15.7595C4.49546 15.9477 4.75066 16.0534 5.01676 16.0534H14.0468C14.3129 16.0534 14.5681 15.9477 14.7562 15.7595C14.9444 15.5713 15.0501 15.3161 15.0501 15.05V3.01005C15.0501 2.74395 14.9444 2.48874 14.7562 2.30058C14.5681 2.11242 14.3129 2.00671 14.0468 2.00671ZM8.02676 6.02005H5.01676V5.85951L7.87626 3.01005H8.02676V6.02005Z" fill="white"/>
<path d="M5.98998 13.1838C5.93747 13.2287 5.89482 13.2841 5.8647 13.3463C5.83459 13.4086 5.81767 13.4763 5.815 13.5454C5.81233 13.6145 5.82398 13.6834 5.8492 13.7478C5.87442 13.8122 5.91267 13.8706 5.96156 13.9195C6.01045 13.9684 6.06892 14.0067 6.1333 14.0319C6.19768 14.0571 6.26657 14.0688 6.33566 14.0661C6.40475 14.0634 6.47254 14.0465 6.53478 14.0164C6.59702 13.9863 6.65236 13.9436 6.69733 13.8911L9.53175 11.0366L6.68228 8.18716C6.58631 8.10497 6.46287 8.06203 6.33661 8.0669C6.21035 8.07178 6.09058 8.12412 6.00124 8.21346C5.9119 8.30281 5.85956 8.42258 5.85468 8.54883C5.8498 8.67509 5.89275 8.79854 5.97493 8.89451L7.62542 10.535H1.50508C1.37203 10.535 1.24443 10.5878 1.15035 10.6819C1.05627 10.776 1.00342 10.9036 1.00342 11.0366C1.00342 11.1697 1.05627 11.2973 1.15035 11.3914C1.24443 11.4854 1.37203 11.5383 1.50508 11.5383H7.64047L5.98998 13.1838Z" fill="white"/>
</svg>
