<svg width="58" height="46" viewBox="0 0 58 46" fill="none" xmlns="http://www.w3.org/2000/svg">
<path d="M21.3594 45.5699H51.3294C56.2194 45.5699 59.4294 40.4499 57.2894 36.0499L50.3494 21.7599C49.1294 19.2499 46.4694 17.7599 43.6894 18.0399L34.9294 18.9199C31.9294 19.2199 29.3894 21.2599 28.4494 24.1199L21.3694 45.58L21.3594 45.5699Z" fill="#00AAFF"/>
<path d="M32.4096 38.4504C32.2996 38.4504 32.2096 38.3604 32.2096 38.2604L32.0996 29.6004C32.0996 29.4904 32.1896 29.4004 32.2896 29.4004C32.3996 29.4004 32.4896 29.4904 32.4896 29.5904L32.5996 38.2504C32.5996 38.3604 32.5096 38.4504 32.4096 38.4504Z" fill="#193B68"/>
<path d="M35.7793 43.3905L36.5193 42.9805C36.5193 42.9805 38.0493 44.9505 40.0393 43.5605C40.5293 43.2205 40.5493 40.0505 39.6193 38.9705C37.7893 36.8505 34.3793 34.2005 32.3993 35.5205C30.4093 36.8405 27.7793 39.4305 27.7793 39.4305C27.7793 39.4305 28.8693 40.8705 29.9093 40.0705C31.3593 38.9505 33.1593 38.1305 33.1593 38.1305L30.0093 42.5805C30.0093 42.5805 30.6593 43.3205 31.5193 43.6005C32.3793 43.8805 33.5593 44.6705 35.7793 43.3805V43.3905Z" fill="white"/>
<path d="M29.1796 40.5203C28.3296 40.5203 27.5896 39.7303 27.5496 39.6803C27.4796 39.6003 27.4796 39.4903 27.5496 39.4103C27.6596 39.2903 30.1496 36.5603 32.2896 35.3403C33.3196 34.7503 35.6596 34.4203 39.7496 38.8303C39.8196 38.9103 39.8196 39.0303 39.7396 39.1103C39.6596 39.1803 39.5396 39.1803 39.4596 39.1003C38.1096 37.6503 34.7296 34.4003 32.4796 35.6903C30.6596 36.7303 28.5096 38.9603 27.9596 39.5403C28.2496 39.8003 28.9896 40.3603 29.6296 40.0003C29.9896 39.8003 30.4196 39.4903 30.8796 39.1603C31.7796 38.5103 32.7196 37.8503 33.3296 37.8003C33.4396 37.8003 33.5296 37.8703 33.5396 37.9803C33.5496 38.0903 33.4696 38.1803 33.3596 38.1903C32.8596 38.2303 31.9296 38.8903 31.1096 39.4803C30.6396 39.8103 30.1996 40.1303 29.8296 40.3403C29.6096 40.4703 29.3896 40.5203 29.1696 40.5203H29.1796Z" fill="#193B68"/>
<path d="M31.0494 43.5701C30.4194 43.5701 29.9494 42.9801 29.7694 42.6001C29.7394 42.5301 29.7494 42.4501 29.7894 42.3901L34.2694 36.6301C34.3394 36.5401 34.4594 36.5301 34.5494 36.6001C34.6394 36.6701 34.6494 36.7901 34.5794 36.8801L30.1794 42.5401C30.3294 42.7901 30.7494 43.3701 31.3394 43.1201C31.4394 43.0801 31.5594 43.1201 31.5994 43.2201C31.6394 43.3201 31.5994 43.4401 31.4994 43.4801C31.3394 43.5501 31.1894 43.5801 31.0494 43.5801V43.5701Z" fill="#193B68"/>
<path d="M32.5193 44.2902C31.8593 44.2902 31.1793 43.8102 31.1493 43.7802C31.1093 43.7502 31.0793 43.7002 31.0693 43.6402C31.0693 43.5902 31.0793 43.5303 31.1193 43.4903L35.9693 37.8402C36.0393 37.7602 36.1693 37.7502 36.2493 37.8202C36.3293 37.8902 36.3393 38.0102 36.2693 38.1002L31.5593 43.5803C31.9193 43.7903 32.5593 44.0502 32.9393 43.7702C33.5993 43.2802 37.3393 39.4602 37.3793 39.4202C37.4593 39.3402 37.5793 39.3402 37.6593 39.4202C37.7393 39.5002 37.7393 39.6202 37.6593 39.7002C37.4993 39.8602 33.8493 43.5802 33.1693 44.0902C32.9693 44.2402 32.7393 44.2902 32.5193 44.2902Z" fill="#193B68"/>
<path d="M33.9397 44.3204C33.6197 44.3204 33.3097 44.2404 33.0297 44.0704C32.9397 44.0104 32.9097 43.8904 32.9697 43.8004C33.0297 43.7104 33.1497 43.6804 33.2397 43.7404C34.1297 44.3004 35.4597 43.5404 36.4197 42.8004C37.4997 41.9704 38.3597 40.9904 38.3697 40.9804C38.4397 40.9004 38.5697 40.8904 38.6497 40.9604C38.7297 41.0304 38.7397 41.1604 38.6697 41.2404C38.5397 41.3804 35.9597 44.3204 33.9497 44.3204H33.9397Z" fill="#193B68"/>
<path d="M38.6899 44.22C37.9999 44.22 37.2199 43.96 36.4899 43.18C36.4199 43.1 36.4199 42.98 36.4999 42.9C36.5799 42.83 36.6999 42.83 36.7799 42.91C38.1799 44.43 39.6799 43.64 39.9899 43.45C40.3499 42.09 40.5399 40.26 39.4699 39.1C38.1199 37.65 34.7399 34.4 32.4899 35.69C32.3999 35.74 32.2799 35.71 32.2199 35.62C32.1599 35.53 32.1999 35.41 32.2899 35.35C33.3199 34.76 35.6599 34.43 39.7499 38.84C40.9599 40.15 40.7399 42.17 40.3399 43.63C40.3299 43.67 40.2999 43.71 40.2599 43.74C39.9199 43.98 39.3499 44.22 38.6799 44.22H38.6899Z" fill="#193B68"/>
<path d="M39.42 38.7002C39.33 38.7002 39.25 38.6402 39.23 38.5402C39.21 38.4302 39.28 38.3302 39.38 38.3102L49.32 36.2202C49.43 36.2002 49.53 36.2702 49.55 36.3702C49.57 36.4802 49.5 36.5802 49.4 36.6002L39.46 38.6902C39.46 38.6902 39.43 38.6902 39.42 38.6902V38.7002Z" fill="#193B68"/>
<path d="M38.7046 20.112C36.9556 20.1713 35.4884 18.8002 35.4291 17.0512L35.3144 13.6631L41.6607 13.4482L41.7755 16.8362C41.8347 18.5852 40.4636 20.0525 38.7146 20.1117L38.7046 20.112Z" fill="white"/>
<path d="M38.2801 20.32C37.5101 20.32 36.7701 20.03 36.2101 19.5C35.6201 18.95 35.2701 18.19 35.2501 17.38L35.1201 13.66C35.1201 13.61 35.1401 13.56 35.1701 13.52C35.2101 13.48 35.2501 13.46 35.3101 13.46L41.6501 13.25C41.7601 13.25 41.8501 13.33 41.8501 13.44L41.9801 17.16C42.0401 18.84 40.7201 20.24 39.0401 20.3L38.3801 20.32C38.3801 20.32 38.3101 20.32 38.2701 20.32H38.2801ZM35.5201 13.85L35.6401 17.37C35.6601 18.08 35.9601 18.73 36.4801 19.21C37.0001 19.69 37.6701 19.95 38.3801 19.92L39.0401 19.9C40.5001 19.85 41.6501 18.62 41.6001 17.17L41.4801 13.65L35.5301 13.85H35.5201Z" fill="#193B68"/>
<path d="M35.4596 18.0703L35.3096 13.6503L39.3396 13.5103L40.6796 14.9803C39.7396 16.7103 37.8996 17.8503 35.4596 18.0703Z" fill="#193B68"/>
<path d="M44.0798 9.10811C44.9184 5.6176 42.7687 2.10812 39.2781 1.26947C35.7876 0.430831 32.2782 2.5806 31.4395 6.07112L31.3601 6.40171C30.5214 9.89223 32.6712 13.4017 36.1617 14.2403C39.6522 15.079 43.1617 12.9292 44.0004 9.4387L44.0798 9.10811Z" fill="#193B68"/>
<path d="M40.9672 1.07615L40.9575 1.07381C38.047 0.374512 35.1206 2.16709 34.4213 5.07764L34.1597 6.16665C33.4604 9.0772 35.2529 12.0036 38.1635 12.7029L38.1732 12.7052C41.0838 13.4045 44.0101 11.6119 44.7094 8.70137L44.9711 7.61237C45.6704 4.70181 43.8778 1.77545 40.9672 1.07615Z" fill="#193B68"/>
<path d="M45.6197 7.17C45.5097 7.17 45.4297 7.08 45.4297 6.97C45.4697 5.37 45.0097 4.05 44.0697 3.07C43.0697 2.03 41.5097 1.38 39.8997 1.36C39.7897 1.36 39.6997 1.27 39.7097 1.16C39.7097 1.05 39.8097 0.959999 39.9097 0.969999C41.6297 0.999999 43.2897 1.69 44.3597 2.8C45.3797 3.87 45.8797 5.28 45.8297 6.99C45.8297 7.1 45.7397 7.18 45.6297 7.18L45.6197 7.17Z" fill="#193B68"/>
<path d="M31.7587 9.97299L32.9492 10.2822C33.6709 10.4696 34.4078 10.0366 34.5952 9.31494L34.5978 9.30526C34.7852 8.58362 34.3521 7.84667 33.6305 7.65923L32.44 7.35002C31.7184 7.16258 30.9814 7.59564 30.794 8.31728L30.7915 8.32696C30.604 9.0486 31.0371 9.78555 31.7587 9.97299Z" fill="white"/>
<path d="M33.389 10.5501C33.269 10.5501 33.149 10.5301 33.029 10.5001L31.569 10.1201C31.209 10.0301 30.899 9.79007 30.709 9.47007C30.519 9.15007 30.469 8.77007 30.559 8.40007L30.629 8.13007C30.829 7.38007 31.599 6.92007 32.349 7.12007L33.809 7.50007C34.559 7.70007 35.019 8.47007 34.819 9.22007L34.749 9.49007C34.659 9.85007 34.419 10.1601 34.099 10.3501C33.879 10.4801 33.639 10.5401 33.389 10.5401V10.5501ZM31.999 7.47007C31.549 7.47007 31.139 7.77007 31.019 8.23007L30.949 8.50007C30.879 8.76007 30.919 9.04007 31.059 9.27007C31.199 9.50007 31.419 9.67007 31.679 9.74007L33.139 10.1201C33.399 10.1901 33.679 10.1501 33.909 10.0101C34.139 9.87007 34.309 9.65007 34.379 9.39007L34.449 9.12007C34.589 8.58007 34.259 8.02007 33.719 7.88007L32.259 7.50007C32.169 7.48007 32.089 7.47007 31.999 7.47007Z" fill="#193B68"/>
<path d="M39.8002 3.46019L40.1002 3.53019C42.0902 4.01019 43.5702 5.52019 44.0902 7.36019L44.4602 7.34019C45.2102 7.30019 45.8402 7.87019 45.8802 8.62019C45.9202 9.37019 45.3502 10.0002 44.6002 10.0402L44.1602 10.0602C44.1602 10.0602 44.1602 10.1102 44.1502 10.1302L43.6602 12.1702C42.9502 15.1102 40.0002 16.9202 37.0502 16.2202L36.7502 16.1502C33.8102 15.4402 32.0002 12.4902 32.7002 9.54019L33.1902 7.50019C33.9002 4.56019 36.8502 2.75019 39.8002 3.45019V3.46019Z" fill="white"/>
<path d="M38.3299 16.5701C37.8899 16.5701 37.4499 16.5201 36.9999 16.4101L36.6999 16.3401C33.6599 15.6101 31.7799 12.5401 32.5099 9.50014L32.9999 7.46014C33.7299 4.42014 36.7999 2.54014 39.8399 3.27014L40.1399 3.34014C42.0799 3.81014 43.6299 5.26014 44.2299 7.16014H44.4399C45.2899 7.10014 46.0199 7.76014 46.0699 8.61014C46.1199 9.46014 45.4599 10.1901 44.5999 10.2401L44.3099 10.2601L43.8399 12.2301C43.2199 14.8301 40.8799 16.5801 38.3199 16.5801L38.3299 16.5701ZM38.5199 3.50014C36.1399 3.50014 33.9699 5.13014 33.3899 7.55014L32.8999 9.59014C32.2199 12.4201 33.9699 15.2801 36.7999 15.9601L37.0999 16.0301C39.9299 16.7101 42.7899 14.9601 43.4699 12.1301L43.9699 10.0301C43.9899 9.94014 44.0599 9.88014 44.1499 9.88014L44.5899 9.86014C45.2299 9.83014 45.7199 9.28014 45.6799 8.64014C45.6499 8.00014 45.0999 7.51014 44.4599 7.55014L44.0899 7.57014C43.9999 7.57014 43.9199 7.52014 43.8899 7.43014C43.3699 5.60014 41.8899 4.18014 40.0399 3.74014L39.7399 3.67014C39.3299 3.57014 38.9099 3.52014 38.5099 3.52014L38.5199 3.50014Z" fill="#193B68"/>
<path d="M32.9297 7.42031C34.0297 7.02031 35.2597 4.96031 35.8897 2.32031C34.7897 2.72031 33.5597 4.78031 32.9297 7.42031Z" fill="#193B68"/>
<path d="M32.5993 9.39995C32.5993 9.39995 32.5794 9.39995 32.5694 9.39995C32.4594 9.38995 32.3894 9.28995 32.3994 9.17995C32.4794 8.54995 31.9693 8.24995 31.9393 8.23995C31.8493 8.18995 31.8094 8.06995 31.8694 7.96995C31.9194 7.87995 32.0394 7.83995 32.1394 7.88995C32.1694 7.90995 32.9094 8.32995 32.7994 9.22995C32.7894 9.32995 32.6994 9.39995 32.6094 9.39995H32.5993Z" fill="#193B68"/>
<path d="M37.2999 7.2801C37.3299 7.5001 36.8499 7.7501 36.2299 7.8301C35.6099 7.9101 35.0899 7.8001 35.0599 7.5701C35.0299 7.3501 35.5099 7.1001 36.1299 7.0201C36.7499 6.9401 37.2699 7.0501 37.2999 7.2801Z" fill="#193B68"/>
<path d="M41.4401 7.95997C41.3701 8.17997 40.8301 8.19997 40.2401 8.00997C39.6401 7.81997 39.2201 7.49997 39.2801 7.27997C39.3501 7.05997 39.8901 7.03997 40.4801 7.22997C41.0801 7.41997 41.5001 7.73997 41.4401 7.95997Z" fill="#193B68"/>
<path d="M38.1497 11.0902C38.1497 11.0902 38.1097 11.0902 38.0797 11.0802C37.8297 10.9902 37.6297 10.8002 37.5297 10.5602C37.4297 10.3202 37.4297 10.0402 37.5497 9.80016L38.1797 8.46016C38.2297 8.36016 38.3397 8.32016 38.4397 8.37016C38.5397 8.42016 38.5797 8.53016 38.5297 8.63016L37.8997 9.97016C37.8297 10.1102 37.8297 10.2702 37.8997 10.4102C37.9597 10.5502 38.0697 10.6602 38.2197 10.7102C38.3197 10.7502 38.3797 10.8602 38.3397 10.9602C38.3097 11.0402 38.2397 11.0902 38.1497 11.0902Z" fill="#193B68"/>
<path d="M38.5902 13.8603C38.3502 13.8603 38.1202 13.7803 37.8802 13.6203C37.7902 13.5603 37.7702 13.4403 37.8302 13.3503C37.8902 13.2603 38.0102 13.2403 38.1002 13.3003C38.3202 13.4603 38.5402 13.5003 38.7502 13.4503C39.2802 13.3203 39.6402 12.6103 39.6402 12.6003C39.6902 12.5003 39.8102 12.4603 39.9002 12.5103C40.0002 12.5603 40.0402 12.6803 39.9902 12.7703C39.9702 12.8103 39.5502 13.6403 38.8502 13.8203C38.7602 13.8403 38.6702 13.8503 38.5802 13.8503L38.5902 13.8603Z" fill="#193B68"/>
<path d="M41.9895 2.80037C42.9795 3.42037 43.7995 4.12037 44.3695 4.79037C44.2995 4.98037 44.2095 5.16037 44.0995 5.34037C43.5795 6.18037 42.6895 6.69037 41.6695 6.85037C41.1295 6.62037 40.5595 6.33037 39.9995 5.97037C37.7195 4.54037 36.3195 2.67037 36.8695 1.80037C37.4195 0.92037 39.7095 1.37037 41.9895 2.80037Z" fill="#193B68"/>
<path d="M33.6 3.85027C32.71 4.60027 32.29 5.57027 32.3 6.45027C32.48 6.55027 32.67 6.63027 32.87 6.69027C33.81 6.98027 34.81 6.78027 35.69 6.23027C35.59 5.55027 36.25 4.42027 37.32 3.71027C39.56 2.23027 36.28 1.59027 33.61 3.85027H33.6Z" fill="#193B68"/>
<path d="M40.0898 9.32017C40.0198 9.69017 39.7698 9.96017 39.5298 9.91017C39.2898 9.86017 39.1598 9.52017 39.2298 9.15017C39.2998 8.78017 39.5498 8.51017 39.7898 8.56017C40.0298 8.61017 40.1598 8.95017 40.0898 9.32017Z" fill="#193B68"/>
<path d="M36.4199 9.32017C36.3499 9.69017 36.0999 9.96017 35.8599 9.91017C35.6199 9.86017 35.4899 9.52017 35.5599 9.15017C35.6299 8.78017 35.8799 8.51017 36.1199 8.56017C36.3599 8.61017 36.4899 8.95017 36.4199 9.32017Z" fill="#193B68"/>
<path d="M37.9297 1.79004C37.9297 1.79004 37.9097 1.79004 37.8997 1.79004C37.7897 1.77004 37.7197 1.67004 37.7397 1.56004C37.9097 0.560042 39.1297 0.300042 39.1797 0.290042C39.2897 0.270042 39.3897 0.340042 39.4097 0.440042C39.4297 0.550042 39.3597 0.650042 39.2597 0.670042C39.2597 0.670042 38.2597 0.880042 38.1297 1.62004C38.1097 1.72004 38.0297 1.78004 37.9397 1.78004L37.9297 1.79004Z" fill="#193B68"/>
<path d="M37.9598 1.35025C37.9598 1.35025 37.9598 1.35025 37.9498 1.35025C37.8398 1.35025 37.7598 1.25025 37.7698 1.14025C37.7998 0.800249 37.5598 0.710249 37.5098 0.690249C37.4098 0.660249 37.3498 0.550249 37.3798 0.450249C37.4098 0.350249 37.5198 0.290249 37.6198 0.320249C37.8198 0.380249 38.1998 0.630249 38.1598 1.18025C38.1598 1.28025 38.0698 1.36025 37.9598 1.36025V1.35025Z" fill="#193B68"/>
<path d="M40.1999 6.78017C40.1999 6.78017 40.1399 6.78017 40.1099 6.76017C38.6299 6.04017 37.6299 4.99017 37.1299 3.66017C37.0899 3.56017 37.1399 3.44017 37.2499 3.41017C37.3499 3.37017 37.4699 3.42017 37.4999 3.53017C37.9599 4.76017 38.8899 5.73017 40.2799 6.41017C40.3799 6.46017 40.4199 6.58017 40.3699 6.67017C40.3399 6.74017 40.2699 6.78017 40.1899 6.78017H40.1999Z" fill="#193B68"/>
<path d="M44.4294 5.96012L43.7194 9.54012L43.1094 9.56012L42.6494 5.12012L44.4294 5.96012Z" fill="#193B68"/>
<path d="M34.5996 18.8403L35.3796 23.5203L37.7096 20.9903L40.2396 23.7103L42.4296 18.3503L41.6096 16.3003L37.7096 19.8203L35.2796 17.5803L34.5996 18.8403Z" fill="white"/>
<path d="M40.2394 23.9102C40.1894 23.9102 40.1294 23.8902 40.0994 23.8502L37.7094 21.2802L35.5194 23.6502C35.4694 23.7102 35.3894 23.7302 35.3194 23.7102C35.2494 23.6902 35.1894 23.6302 35.1794 23.5502L34.3994 18.8802C34.3994 18.8802 34.3994 18.7902 34.4194 18.7502L35.0994 17.4802C35.1294 17.4302 35.1794 17.3902 35.2394 17.3802C35.2994 17.3802 35.3594 17.3802 35.4094 17.4302L37.7094 19.5502L41.4694 16.1502C41.4694 16.1502 41.5794 16.0902 41.6494 16.1002C41.7094 16.1102 41.7594 16.1602 41.7894 16.2202L42.6194 18.2602C42.6194 18.2602 42.6394 18.3602 42.6194 18.4102L40.4294 23.7702C40.3994 23.8302 40.3494 23.8802 40.2794 23.8902C40.2694 23.8902 40.2594 23.8902 40.2394 23.8902V23.9102ZM37.7094 20.7902C37.7594 20.7902 37.8194 20.8102 37.8494 20.8502L40.1694 23.3502L42.2094 18.3402L41.5194 16.6302L37.8394 19.9602C37.7594 20.0302 37.6494 20.0302 37.5794 19.9602L35.3294 17.8902L34.7994 18.8702L35.4994 23.0802L37.5594 20.8402C37.5594 20.8402 37.6494 20.7802 37.6994 20.7802L37.7094 20.7902Z" fill="#193B68"/>
<path d="M18.7197 44.0503H39.3697C40.3497 44.0503 41.1397 44.8403 41.1397 45.8203H18.7197V44.0503Z" fill="#193B68"/>
<path d="M27.4093 45.8201H7.02926L2.54926 32.2801C2.11926 30.9701 3.08926 29.6201 4.46926 29.6201H20.5993C21.4693 29.6201 22.2493 30.1801 22.5193 31.0101L27.4193 45.8201H27.4093Z" fill="#193B68"/>
<path d="M15.0224 38.3646C15.2051 37.5905 14.7258 36.815 13.9517 36.6323C13.1777 36.4496 12.4021 36.929 12.2195 37.703C12.0368 38.477 12.5161 39.2526 13.2902 39.4353C14.0642 39.618 14.8398 39.1386 15.0224 38.3646Z" fill="white"/>
<path d="M13.6202 39.6702C12.7202 39.6702 11.9902 38.9402 11.9902 38.0402C11.9902 37.1402 12.7202 36.4102 13.6202 36.4102C14.5202 36.4102 15.2502 37.1402 15.2502 38.0402C15.2502 38.9402 14.5202 39.6702 13.6202 39.6702ZM13.6202 36.8002C12.9402 36.8002 12.3802 37.3602 12.3802 38.0402C12.3802 38.7202 12.9402 39.2802 13.6202 39.2802C14.3002 39.2802 14.8602 38.7202 14.8602 38.0402C14.8602 37.3602 14.3002 36.8002 13.6202 36.8002Z" fill="#193B68"/>
<path d="M46.7392 36.87C46.6692 36.87 46.5992 36.83 46.5692 36.77L42.3792 29.18C42.3292 29.08 42.3592 28.97 42.4592 28.91C42.5592 28.86 42.6692 28.89 42.7292 28.99L46.9192 36.58C46.9692 36.68 46.9392 36.79 46.8392 36.85C46.8092 36.87 46.7792 36.87 46.7492 36.87H46.7392Z" fill="#193B68"/>
<path d="M22.2298 22.6903C15.4998 24.1503 8.7598 25.6103 2.0298 27.0803C1.0698 27.2903 0.299805 26.4803 0.299805 25.2603V5.16025C0.299805 3.94025 1.0798 3.13025 2.0298 3.34025C8.7598 4.80025 15.4998 6.26025 22.2298 7.73025C23.1898 7.95025 23.9598 8.68025 23.9598 9.38025C23.9598 13.2703 23.9598 17.1603 23.9598 21.0403C23.9598 21.7403 23.1798 22.4803 22.2298 22.6903Z" fill="white"/>
<path d="M1.72961 27.3101C1.39961 27.3101 1.07961 27.2001 0.819609 26.9901C0.359609 26.6201 0.0996094 25.9901 0.0996094 25.2601V5.16012C0.0996094 4.43012 0.359609 3.80012 0.819609 3.43012C1.16961 3.15012 1.61961 3.05012 2.06961 3.15012L22.2696 7.54012C23.3296 7.78012 24.1596 8.59012 24.1596 9.38012V21.0401C24.1596 21.8401 23.3296 22.6401 22.2696 22.8801L2.06961 27.2701C1.94961 27.3001 1.83961 27.3101 1.72961 27.3101ZM1.72961 3.50012C1.48961 3.50012 1.25961 3.58012 1.06961 3.74012C0.709609 4.03012 0.499609 4.55012 0.499609 5.16012V25.2601C0.499609 25.8701 0.709609 26.3901 1.06961 26.6801C1.32961 26.8901 1.64961 26.9601 1.98961 26.8901L22.1896 22.5001C23.0496 22.3101 23.7696 21.6401 23.7696 21.0401V9.38012C23.7696 8.78012 23.0496 8.11012 22.1896 7.92012L1.98961 3.53012C1.89961 3.51012 1.80961 3.50012 1.72961 3.50012Z" fill="#193B68"/>
<path d="M22.2298 22.6903C15.4998 24.1503 8.7598 25.6103 2.0298 27.0803C1.0698 27.2903 0.299805 26.4803 0.299805 25.2603V5.16025C0.299805 3.94025 1.0798 3.13025 2.0298 3.34025C8.7598 4.80025 15.4998 6.26025 22.2298 7.73025C23.1898 7.95025 23.9598 8.68025 23.9598 9.38025C23.9598 13.2703 23.9598 17.1603 23.9598 21.0403C23.9598 21.7403 23.1798 22.4803 22.2298 22.6903Z" fill="white"/>
<path d="M1.72961 27.3101C1.39961 27.3101 1.07961 27.2001 0.819609 26.9901C0.359609 26.6201 0.0996094 25.9901 0.0996094 25.2601V5.16012C0.0996094 4.43012 0.359609 3.80012 0.819609 3.43012C1.16961 3.15012 1.61961 3.05012 2.06961 3.15012L22.2696 7.54012C23.3296 7.78012 24.1596 8.59012 24.1596 9.38012V21.0401C24.1596 21.8401 23.3296 22.6401 22.2696 22.8801L2.06961 27.2701C1.94961 27.3001 1.83961 27.3101 1.72961 27.3101ZM1.72961 3.50012C1.48961 3.50012 1.25961 3.58012 1.06961 3.74012C0.709609 4.03012 0.499609 4.55012 0.499609 5.16012V25.2601C0.499609 25.8701 0.709609 26.3901 1.06961 26.6801C1.32961 26.8901 1.64961 26.9601 1.98961 26.8901L22.1896 22.5001C23.0496 22.3101 23.7696 21.6401 23.7696 21.0401V9.38012C23.7696 8.78012 23.0496 8.11012 22.1896 7.92012L1.98961 3.53012C1.89961 3.51012 1.80961 3.50012 1.72961 3.50012Z" fill="#193B68"/>
<path d="M1.94926 5.71996C1.94926 5.71996 1.87926 5.71996 1.84926 5.71996C1.50926 5.65996 1.23926 5.29996 1.23926 4.88996C1.23926 4.65996 1.32926 4.45996 1.47926 4.33996C1.60926 4.23996 1.76926 4.19996 1.92926 4.22996C2.26926 4.29996 2.53926 4.65996 2.53926 5.05996C2.53926 5.27996 2.45926 5.47996 2.30926 5.59996C2.20926 5.67996 2.08926 5.72996 1.95926 5.72996L1.94926 5.71996ZM1.80926 4.59996C1.80926 4.59996 1.74926 4.60996 1.71926 4.62996C1.65926 4.67996 1.62926 4.76996 1.62926 4.87996C1.62926 5.10996 1.77926 5.29996 1.91926 5.31996C1.96926 5.31996 2.00926 5.31996 2.04926 5.28996C2.10926 5.23996 2.13926 5.14996 2.13926 5.04996C2.13926 4.83996 1.99926 4.63996 1.84926 4.60996C1.83926 4.60996 1.82926 4.60996 1.81926 4.60996L1.80926 4.59996Z" fill="#193B68"/>
<path d="M3.46 5.99C3.46 5.99 3.39 5.99 3.36 5.99C3.02 5.93 2.75 5.57 2.75 5.17C2.75 4.95 2.83 4.76 2.98 4.63C3.11 4.53 3.27 4.49 3.43 4.52C3.77 4.59 4.04 4.95 4.04 5.33C4.04 5.54 3.96 5.74 3.81 5.86C3.71 5.94 3.59 5.99 3.46 5.99ZM3.32 4.9C3.32 4.9 3.26 4.91 3.23 4.93C3.18 4.98 3.14 5.06 3.14 5.16C3.14 5.36 3.27 5.56 3.43 5.59C3.48 5.59 3.52 5.59 3.56 5.56C3.62 5.51 3.65 5.43 3.65 5.33C3.65 5.13 3.51 4.93 3.36 4.9C3.35 4.9 3.34 4.9 3.33 4.9H3.32Z" fill="#193B68"/>
<path d="M4.97953 6.26006C4.97953 6.26006 4.90953 6.26006 4.87953 6.26006C4.53953 6.20006 4.26953 5.85006 4.26953 5.46006C4.26953 5.25006 4.34953 5.06006 4.49953 4.94006C4.62953 4.84006 4.78953 4.80006 4.95953 4.83006C5.29953 4.90006 5.56953 5.25006 5.56953 5.63006C5.56953 5.84006 5.48953 6.02006 5.34953 6.14006C5.24953 6.22006 5.12953 6.27006 4.99953 6.27006L4.97953 6.26006ZM4.83953 5.20006C4.83953 5.20006 4.76953 5.21006 4.74953 5.23006C4.69953 5.27006 4.66953 5.35006 4.66953 5.45006C4.66953 5.64006 4.79953 5.84006 4.95953 5.86006C5.00953 5.86006 5.05953 5.86006 5.09953 5.83006C5.14953 5.79006 5.17953 5.71006 5.17953 5.62006C5.17953 5.43006 5.03953 5.24006 4.88953 5.21006C4.87953 5.21006 4.86953 5.21006 4.84953 5.21006L4.83953 5.20006Z" fill="#193B68"/>
<path d="M10.6395 8.13009C11.4895 7.92009 11.9395 8.28009 12.1695 8.62009C12.1995 8.67009 12.2295 8.72009 12.2595 8.77009C12.3295 7.04009 12.8595 5.84009 13.8395 5.19009C14.6895 4.63009 15.9095 4.49009 17.3595 4.80009C18.4495 5.03009 19.2895 5.44009 19.2995 5.44009C19.3295 5.45009 19.3395 5.48009 19.3495 5.50009C19.3895 5.71009 20.4295 10.6101 19.7495 12.8801C19.0695 15.1601 18.8595 15.8801 18.8595 15.8801C18.8595 15.9101 18.8295 15.9301 18.8095 15.9401C18.7895 15.9401 17.7995 16.3901 16.2795 16.0701L16.0595 18.1101C16.0595 18.1101 16.0395 18.1601 16.0195 18.1801C15.9895 18.2001 15.5395 18.4701 14.2795 18.1801C13.3895 17.9701 12.1095 17.4801 10.2895 16.4201C10.2595 16.4001 10.2395 16.3601 10.2495 16.3201L11.0895 11.8001C10.4695 11.7101 9.88947 11.1001 9.69947 10.2701C9.46947 9.26009 9.88947 8.31009 10.6695 8.12009L10.6395 8.13009Z" fill="white"/>
<path d="M12.9694 2.96003C13.7394 3.14003 14.3894 3.58003 14.8394 4.17003C12.5994 4.26003 10.5794 5.88003 10.0294 8.25003C10.0094 8.35003 9.98935 8.46003 9.96935 8.56003C9.14935 7.78003 8.73935 6.60003 9.01935 5.41003C9.43935 3.64003 11.2094 2.54003 12.9794 2.96003H12.9694Z" fill="#193B68"/>
<path d="M11.7593 10.6701L9.81927 10.1101L9.21927 7.69012C8.92927 6.49012 9.31927 5.23012 10.2393 4.41012C11.2693 3.50012 12.4993 2.48012 12.7593 2.54012C13.0593 2.61012 16.7193 2.93012 18.9493 3.34012C20.2093 3.57012 21.0393 4.77012 20.8093 6.03012L19.8593 8.56012L19.2593 5.41012C19.2593 5.41012 16.7793 7.08012 13.5093 6.06012L11.7393 10.6701H11.7593Z" fill="#193B68"/>
<path d="M16.2294 10.45C16.1194 10.45 15.9994 10.44 15.8794 10.41C15.4894 10.32 15.1494 10.08 14.9394 9.73005C14.7294 9.39005 14.6594 8.98005 14.7494 8.58005C14.8394 8.18005 15.0794 7.85005 15.4294 7.64005C15.7694 7.43005 16.1794 7.36005 16.5794 7.45005C17.3894 7.64005 17.8994 8.46005 17.7094 9.27005C17.5494 9.97005 16.9194 10.44 16.2294 10.44V10.45ZM16.2294 7.81005C16.0194 7.81005 15.8194 7.87005 15.6394 7.98005C15.3794 8.14005 15.2094 8.39005 15.1394 8.68005C15.0694 8.97005 15.1194 9.27005 15.2794 9.53005C15.4394 9.79005 15.6894 9.96005 15.9794 10.03C16.5794 10.17 17.1894 9.80005 17.3294 9.19005C17.4694 8.59005 17.0994 7.98005 16.4894 7.84005C16.3994 7.82005 16.3194 7.81005 16.2294 7.81005Z" fill="#00AAFF"/>
<path d="M17.3189 12.93C16.9489 12.93 16.4189 12.84 16.1989 12.33C16.1589 12.23 16.1989 12.11 16.2989 12.07C16.3989 12.03 16.5189 12.07 16.5589 12.17C16.7789 12.67 17.5989 12.51 17.6089 12.51C17.7189 12.49 17.8189 12.56 17.8389 12.66C17.8589 12.77 17.7889 12.87 17.6889 12.89C17.6689 12.89 17.5189 12.92 17.3189 12.92V12.93Z" fill="#193B68"/>
<path d="M11.4496 11.71C10.7396 11.87 9.97956 11.22 9.75956 10.26C9.53956 9.30001 9.93956 8.38001 10.6596 8.22001C11.3696 8.06001 12.1296 8.71001 12.3496 9.67001L11.4496 11.71Z" fill="white"/>
<path d="M11.2298 11.9299C10.9098 11.9299 10.5798 11.7999 10.2998 11.5499C9.94976 11.2499 9.68976 10.7999 9.57976 10.2999C9.45976 9.78993 9.49976 9.27993 9.68976 8.85993C9.88976 8.41993 10.2198 8.11993 10.6298 8.02993C11.4498 7.83993 12.3098 8.55993 12.5598 9.62993C12.5798 9.73993 12.5198 9.83993 12.4098 9.86993C12.2998 9.88993 12.1998 9.82993 12.1698 9.71993C11.9798 8.85993 11.3198 8.27993 10.7098 8.41993C10.4298 8.47993 10.1898 8.69993 10.0498 9.02993C9.89976 9.37993 9.86976 9.79993 9.95976 10.2299C10.0598 10.6599 10.2698 11.0299 10.5598 11.2699C10.8298 11.4999 11.1398 11.5999 11.4198 11.5299C11.5298 11.5099 11.6298 11.5699 11.6598 11.6799C11.6798 11.7899 11.6198 11.8899 11.5098 11.9199C11.4198 11.9399 11.3298 11.9499 11.2398 11.9499L11.2298 11.9299Z" fill="#193B68"/>
<path d="M18.6297 9.1502C18.6297 9.1502 18.5997 9.1502 18.5797 9.1502L17.6997 8.9402C17.5897 8.9202 17.5297 8.8102 17.5497 8.7002C17.5697 8.5902 17.6797 8.5302 17.7897 8.5502L18.6697 8.7602C18.7797 8.7802 18.8397 8.8902 18.8197 9.0002C18.7997 9.0902 18.7197 9.1502 18.6297 9.1502Z" fill="#00AAFF"/>
<path d="M16.5593 8.79035C16.4993 9.05035 16.3393 9.23035 16.1993 9.20035C16.0593 9.17035 15.9993 8.93035 16.0593 8.68035C16.1193 8.42035 16.2793 8.24035 16.4193 8.27035C16.5593 8.30035 16.6193 8.54035 16.5593 8.79035Z" fill="#193B68"/>
<path d="M19.4997 9.10027C19.4397 9.36027 19.2797 9.54027 19.1397 9.51027C18.9997 9.48027 18.9397 9.24027 18.9997 8.99027C19.0597 8.74027 19.2197 8.55027 19.3597 8.58027C19.4997 8.61027 19.5597 8.85027 19.4997 9.10027Z" fill="#193B68"/>
<path d="M12.1089 9.17991C12.0089 9.17991 11.9289 9.10991 11.9189 9.00991C11.9089 8.89991 11.9789 8.79991 12.0889 8.78991L14.9189 8.43991C15.0289 8.42991 15.1289 8.49991 15.1389 8.60991C15.1489 8.71991 15.0789 8.81991 14.9689 8.82991L12.1389 9.17991H12.1189H12.1089Z" fill="#00AAFF"/>
<path d="M17.3298 16.32C16.2498 16.32 14.6698 15.97 12.8598 14.46C12.7798 14.39 12.7698 14.27 12.8398 14.18C12.9098 14.1 13.0298 14.09 13.1198 14.16C14.7498 15.53 16.1798 15.87 17.0898 15.92C17.8698 15.96 18.4098 15.8 18.6098 15.73C18.6898 15.47 18.9298 14.65 19.4798 12.82C20.1398 10.61 19.0798 5.63 19.0698 5.58C19.0498 5.47 19.1098 5.37 19.2198 5.35C19.3298 5.33 19.4298 5.39 19.4498 5.5C19.4898 5.71 20.5398 10.63 19.8498 12.94C19.1698 15.22 18.9598 15.94 18.9598 15.94C18.9398 15.99 18.9098 16.04 18.8498 16.06C18.7998 16.08 18.2398 16.33 17.3398 16.33L17.3298 16.32Z" fill="#193B68"/>
<path d="M10.3196 16.5403C10.3196 16.5403 10.2996 16.5403 10.2796 16.5403C10.1696 16.5203 10.0996 16.4203 10.1196 16.3103L10.9596 11.7503C10.9796 11.6403 11.0796 11.5703 11.1896 11.5903C11.2996 11.6103 11.3696 11.7103 11.3496 11.8203L10.5096 16.3803C10.4896 16.4703 10.4096 16.5403 10.3196 16.5403Z" fill="#193B68"/>
<path d="M15.9597 18.31C15.9597 18.31 15.9497 18.31 15.9397 18.31C15.8297 18.3 15.7497 18.2 15.7697 18.09L15.9897 15.99C15.9997 15.88 16.0997 15.8 16.2097 15.82C16.3197 15.83 16.3997 15.93 16.3797 16.04L16.1597 18.14C16.1497 18.24 16.0597 18.32 15.9597 18.32V18.31Z" fill="#193B68"/>
<path d="M19.7598 10.85C19.6398 10.85 19.5298 10.84 19.4098 10.81C19.2098 10.76 19.0298 10.68 18.8598 10.56C18.7698 10.5 18.7498 10.37 18.8198 10.29C18.8798 10.2 19.0098 10.18 19.0898 10.25C19.2098 10.34 19.3498 10.4 19.4998 10.44C19.7898 10.51 20.0898 10.46 20.3498 10.3C20.6098 10.14 20.7798 9.89004 20.8498 9.60004C20.9198 9.31004 20.8698 9.01004 20.7098 8.75004C20.5498 8.49004 20.2998 8.32004 20.0098 8.25004C19.4898 8.13004 18.9598 8.39004 18.7298 8.87004C18.6798 8.97004 18.5698 9.01004 18.4698 8.97004C18.3698 8.92004 18.3298 8.81004 18.3698 8.71004C18.6698 8.06004 19.3998 7.71004 20.0898 7.87004C20.4798 7.96004 20.8198 8.20004 21.0298 8.55004C21.2398 8.89004 21.3098 9.30004 21.2198 9.70004C21.1298 10.09 20.8898 10.43 20.5398 10.64C20.2998 10.79 20.0198 10.87 19.7398 10.87L19.7598 10.85Z" fill="#00AAFF"/>
<path d="M17.8997 12.02C17.8197 12.02 17.7497 11.97 17.7197 11.89C17.6797 11.79 17.7297 11.67 17.8397 11.64C18.2897 11.47 18.7297 11.24 18.8297 11.12C18.6897 10.69 18.2797 8.42997 18.1997 7.95997C18.1797 7.84997 18.2497 7.74997 18.3597 7.72997C18.4697 7.70997 18.5697 7.77997 18.5897 7.88997C18.8397 9.26997 19.1397 10.83 19.2097 11C19.2297 11.05 19.2497 11.14 19.2097 11.25C19.0697 11.57 18.3097 11.89 17.9897 12.01C17.9697 12.01 17.9397 12.02 17.9197 12.02H17.8997Z" fill="#193B68"/>
<path d="M10.9523 20.619L13.6292 21.2488C14.855 21.5372 16.0824 20.7773 16.3708 19.5516L16.3731 19.5419C16.6615 18.3161 15.9016 17.0887 14.6759 16.8003L11.999 16.1704C10.7733 15.882 9.54582 16.6419 9.25742 17.8677L9.25513 17.8774C8.96673 19.1031 9.72659 20.3306 10.9523 20.619Z" fill="#193B68"/>
<path d="M2.02977 27.0803C8.75977 25.6203 15.4998 24.1603 22.2298 22.6903C22.5398 22.6203 22.8198 22.5003 23.0698 22.3403C22.4298 21.0803 20.7398 20.0903 18.5598 19.7303L14.1698 19.0103L8.53977 19.6103C5.49977 19.9403 3.05977 21.2903 2.28977 23.0703L0.759766 26.6303C1.07977 27.0003 1.52977 27.1703 2.03977 27.0603L2.02977 27.0803Z" fill="#193B68"/>
<path d="M16.3594 22.9902V26.2802C16.3594 26.7502 16.9394 26.9602 17.2494 26.6102L20.3994 22.9402C20.6994 22.5902 20.4094 22.0602 19.9594 22.1102L16.8094 22.4902C16.5594 22.5202 16.3694 22.7402 16.3694 22.9902H16.3594Z" fill="#193B68"/>
</svg>
