<svg width="212" height="245" viewBox="0 0 212 245" fill="none" xmlns="http://www.w3.org/2000/svg">
<g clip-path="url(#clip0_3580_6684)">
<path d="M52.4054 118.289H181.344C185.278 118.289 188.473 121.474 188.473 125.397V211.71C188.473 215.633 185.28 218.816 181.345 218.816H52.4054C48.4708 218.816 45.2759 215.631 45.2759 211.708V125.397C45.2759 121.474 48.4708 118.289 52.4054 118.289V118.289Z" fill="#785BD4"/>
<path d="M31.2195 0H202.53C207.757 0 212.002 4.23195 212.002 9.44374V124.119C212.002 129.331 207.757 133.563 202.53 133.563H31.2195C25.9921 133.563 21.7476 129.331 21.7476 124.119V9.44374C21.7458 4.23195 25.9904 0 31.2195 0Z" fill="#785BD4"/>
<path d="M26.283 214.285H207.465C209.968 214.285 212 216.312 212 218.807V240.388C212 242.885 209.968 244.911 207.463 244.911H26.283C23.7786 244.911 21.7461 242.885 21.7461 240.388V218.809C21.7461 216.312 23.7786 214.285 26.283 214.285Z" fill="#785BD4"/>
<path d="M30.6598 118.379H159.596C163.531 118.379 166.726 121.564 166.726 125.487V211.8C166.726 215.721 163.533 218.906 159.598 218.906H30.6598C26.7252 218.906 23.5303 215.721 23.5303 211.798V125.487C23.5303 121.564 26.7252 118.379 30.6598 118.379V118.379Z" fill="#6042D1"/>
<path d="M9.47193 0.0898438H180.782C186.009 0.0898438 190.254 4.32179 190.254 9.53359V124.209C190.254 129.421 186.009 133.653 180.782 133.653H9.47193C4.24458 133.653 0 129.421 0 124.209V9.53359C0 4.32179 4.24458 0.0898438 9.47193 0.0898438Z" fill="#9C81F0"/>
<path d="M9.04581 214.375H181.208C183.649 214.375 185.633 216.35 185.633 218.786V240.59C185.633 243.026 183.649 245.001 181.208 245.001H9.04581C6.60297 245.001 4.62158 243.024 4.62158 240.59V218.788C4.62158 216.352 6.60473 214.377 9.04581 214.377V214.375Z" fill="#9C81F0"/>
<path d="M141.242 172.481C138.024 170.5 131.765 171.273 127.232 172.223V165.676C127.232 164.228 127.129 162.804 126.952 161.402H58.9238C58.7477 162.804 58.6455 164.228 58.6455 165.676V178.987C58.6455 197.792 74.0775 213.178 92.9385 213.178C103.152 213.178 112.353 208.661 118.651 201.537L118.647 201.544C118.647 201.544 134.833 197.572 139.914 191.556C144.994 185.54 146.642 175.807 141.244 172.481H141.242ZM137.649 184.789C135.932 189.214 128.214 191.595 124.408 192.519C125.93 189.028 126.879 185.236 127.145 181.266C129.495 178.058 133.204 176.184 135.925 176.676C138.354 177.113 139.824 179.185 137.649 184.789Z" fill="white"/>
<path d="M64.2144 165.674V178.99C64.2144 197.788 79.6445 213.184 98.4986 213.184C100.059 213.184 101.604 213.073 103.108 212.85C86.4112 210.601 73.4327 196.232 73.4327 178.988V165.672C73.4327 164.229 73.5295 162.798 73.7109 161.395H64.4926C64.3112 162.798 64.2144 164.229 64.2144 165.672V165.674Z" fill="#E8F2FF"/>
<path d="M106.91 210.195H78.9155V214.373H106.91V210.195Z" fill="white"/>
<path d="M47.1781 18.7383H23.9016C19.5566 18.7383 16.0342 22.2502 16.0342 26.5823V100.943C16.0342 105.276 19.5566 108.787 23.9016 108.787H47.1781C51.5232 108.787 55.0456 105.276 55.0456 100.943V26.5823C55.0456 22.2502 51.5232 18.7383 47.1781 18.7383Z" fill="white"/>
<path d="M117.365 19.4973C117.365 16.0731 120.15 13.2969 123.586 13.2969C127.022 13.2969 129.805 16.0731 129.805 19.4973C129.805 22.9215 127.02 25.6995 123.586 25.6995C120.152 25.6995 117.365 22.9232 117.365 19.4973V19.4973Z" fill="white"/>
<path d="M137.933 19.4973C137.933 16.0731 140.718 13.2969 144.154 13.2969C147.59 13.2969 150.371 16.0731 150.371 19.4973C150.371 22.9215 147.586 25.6995 144.154 25.6995C140.721 25.6995 137.933 22.9232 137.933 19.4973V19.4973Z" fill="white"/>
<path d="M157.664 19.4973C157.664 16.0731 160.447 13.2969 163.881 13.2969C167.316 13.2969 170.102 16.0731 170.102 19.4973C170.102 22.9215 167.316 25.6995 163.881 25.6995C160.447 25.6995 157.664 22.9232 157.664 19.4973V19.4973Z" fill="white"/>
<path d="M117.365 38.5051C117.365 35.0809 120.15 32.3047 123.586 32.3047C127.022 32.3047 129.805 35.0809 129.805 38.5051C129.805 41.9293 127.02 44.7073 123.586 44.7073C120.152 44.7073 117.365 41.9311 117.365 38.5051Z" fill="white"/>
<path d="M137.933 38.5051C137.933 35.0809 140.718 32.3047 144.154 32.3047C147.59 32.3047 150.371 35.0809 150.371 38.5051C150.371 41.9293 147.586 44.7073 144.154 44.7073C140.721 44.7073 137.933 41.9311 137.933 38.5051Z" fill="white"/>
<path d="M157.664 38.5051C157.664 35.0809 160.447 32.3047 163.881 32.3047C167.316 32.3047 170.102 35.0809 170.102 38.5051C170.102 41.9293 167.316 44.7073 163.881 44.7073C160.447 44.7073 157.664 41.9311 157.664 38.5051Z" fill="white"/>
<path d="M167.43 60.6675H120.037C118.568 60.6675 117.365 59.4682 117.365 58.0037C117.365 56.5392 118.568 55.3398 120.037 55.3398H167.43C168.901 55.3398 170.104 56.5392 170.104 58.0037C170.104 59.4682 168.901 60.6675 167.43 60.6675V60.6675Z" fill="white"/>
<path d="M117.365 80.2082C117.365 76.784 120.15 74.0078 123.586 74.0078C127.022 74.0078 129.805 76.784 129.805 80.2082C129.805 83.6324 127.02 86.4087 123.586 86.4087C120.152 86.4087 117.365 83.6324 117.365 80.2082Z" fill="white"/>
<path d="M137.933 80.2082C137.933 76.784 140.718 74.0078 144.154 74.0078C147.59 74.0078 150.371 76.784 150.371 80.2082C150.371 83.6324 147.586 86.4087 144.154 86.4087C140.721 86.4087 137.933 83.6324 137.933 80.2082Z" fill="white"/>
<path d="M157.664 80.2082C157.664 76.784 160.447 74.0078 163.881 74.0078C167.316 74.0078 170.102 76.784 170.102 80.2082C170.102 83.6324 167.316 86.4087 163.881 86.4087C160.447 86.4087 157.664 83.6324 157.664 80.2082Z" fill="white"/>
<path d="M117.365 99.2143C117.365 95.7919 120.15 93.0156 123.586 93.0156C127.022 93.0156 129.805 95.7919 129.805 99.2143C129.805 102.637 127.02 105.416 123.586 105.416C120.152 105.416 117.365 102.64 117.365 99.2143Z" fill="white"/>
<path d="M137.933 99.2143C137.933 95.7919 140.718 93.0156 144.154 93.0156C147.59 93.0156 150.371 95.7919 150.371 99.2143C150.371 102.637 147.586 105.416 144.154 105.416C140.721 105.416 137.933 102.64 137.933 99.2143Z" fill="white"/>
<path d="M157.664 99.2143C157.664 95.7919 160.447 93.0156 163.881 93.0156C167.316 93.0156 170.102 95.7919 170.102 99.2143C170.102 102.637 167.316 105.416 163.881 105.416C160.447 105.416 157.664 102.64 157.664 99.2143Z" fill="white"/>
<path d="M167.43 121.377H120.037C118.568 121.377 117.365 120.179 117.365 118.713C117.365 117.248 118.568 116.051 120.037 116.051H167.43C168.901 116.051 170.104 117.248 170.104 118.713C170.104 120.179 168.901 121.377 167.43 121.377V121.377Z" fill="white"/>
<path opacity="0.74" d="M55.0459 87.7383V100.943C55.0459 105.258 51.5093 108.787 47.1784 108.787H23.9002C19.5728 108.787 16.0327 105.26 16.0327 100.943V87.7383H55.0441H55.0459Z" fill="#3C38CD"/>
<path d="M43.3372 25.7021H27.7415C27.1426 25.7021 26.6548 25.2139 26.6548 24.6186C26.6548 24.0216 27.1426 23.5352 27.7415 23.5352H43.3372C43.9343 23.5352 44.4239 24.0216 44.4239 24.6186C44.4239 25.2139 43.9343 25.7021 43.3372 25.7021Z" fill="#BDACF2"/>
<path d="M48.7474 35.5575H22.3289C21.7336 35.5575 21.2422 35.0711 21.2422 34.4741C21.2422 33.8788 21.7336 33.3906 22.3289 33.3906H48.7474C49.3462 33.3906 49.8341 33.8788 49.8341 34.4741C49.8341 35.0711 49.3462 35.5575 48.7474 35.5575Z" fill="#BDACF2"/>
<path d="M48.7474 40.1786H22.3289C21.7336 40.1786 21.2422 39.6905 21.2422 39.0952C21.2422 38.4981 21.7336 38.0117 22.3289 38.0117H48.7474C49.3462 38.0117 49.8341 38.4981 49.8341 39.0952C49.8341 39.6905 49.3462 40.1786 48.7474 40.1786Z" fill="#BDACF2"/>
<path d="M86.2055 122.641C85.2527 122.641 84.4707 121.861 84.4707 120.911V10.3429C84.4707 9.39119 85.2527 8.61328 86.2055 8.61328C87.1584 8.61328 87.9403 9.39119 87.9403 10.3429V120.913C87.9403 121.863 87.1584 122.642 86.2055 122.642V122.641Z" fill="#6042D1"/>
<path d="M81.9434 133.65H104.212V143.182C104.212 147.333 100.833 150.701 96.6708 150.701H90.4959C85.7758 150.701 81.9434 146.88 81.9434 142.174V133.648V133.65Z" fill="#785BD4"/>
<path d="M92.856 156.74C91.6055 156.74 90.584 155.72 90.584 154.475V149.769C90.584 148.522 91.6055 147.504 92.856 147.504C94.1047 147.504 95.1262 148.522 95.1262 149.769V154.475C95.1262 155.72 94.1047 156.74 92.856 156.74Z" fill="#785BD4"/>
</g>
<defs>
<clipPath id="clip0_3580_6684">
<rect width="212" height="245" fill="white"/>
</clipPath>
</defs>
</svg>
