<?xml version="1.0" standalone="no"?>
<!DOCTYPE svg PUBLIC "-//W3C//DTD SVG 20010904//EN"
 "http://www.w3.org/TR/2001/REC-SVG-20010904/DTD/svg10.dtd">
<svg version="1.0" xmlns="http://www.w3.org/2000/svg"
 width="100.000000pt" height="100.000000pt" viewBox="0 0 100.000000 100.000000"
 preserveAspectRatio="xMidYMid meet">

<g transform="translate(0.000000,100.000000) scale(0.100000,-0.100000)"
fill="#000000" stroke="none">
<path d="M381 944 c-108 -29 -231 -118 -231 -167 0 -22 16 -37 40 -37 5 0 30
19 57 42 82 71 142 93 253 93 88 0 101 -3 162 -33 256 -126 290 -472 63 -644
-70 -53 -133 -73 -230 -72 -101 1 -175 28 -244 90 -57 51 -94 57 -99 15 -5
-33 65 -102 143 -140 127 -63 273 -64 402 -4 77 36 180 139 216 216 82 174 50
371 -82 510 -120 126 -287 175 -450 131z"/>
<path d="M122 597 c-45 -45 -82 -89 -82 -97 0 -20 161 -180 181 -180 20 0 39
20 39 40 0 9 -18 34 -41 55 l-40 40 192 5 c169 4 193 7 203 22 8 13 8 23 0 35
-10 16 -34 19 -203 23 l-192 5 40 40 c42 40 50 62 29 83 -23 23 -44 11 -126
-71z"/>
</g>
</svg>
