<svg width="221" height="165" viewBox="0 0 221 165" fill="none" xmlns="http://www.w3.org/2000/svg">
<path d="M69.93 90.3042L69.9633 90.324C74.9579 93.2919 81.4128 91.6491 84.3807 86.6545L97.4089 64.73C100.377 59.7354 98.7338 53.2805 93.7393 50.3126L93.706 50.2928C88.7114 47.3249 82.2565 48.9678 79.2886 53.9623L66.2604 75.8869C63.2924 80.8814 64.9354 87.3363 69.93 90.3042Z" fill="white"/>
<path d="M76.5036 93.7063C75.1062 93.7063 73.7087 93.3569 72.4277 92.5806L66.8379 89.2422C63.0338 86.9908 61.7529 82.0221 64.0431 78.218L80.3854 50.735C82.6368 46.9308 87.6055 45.6498 91.4097 47.9401L96.9994 51.2784C100.804 53.5299 102.085 58.4985 99.7943 62.3027L83.4521 89.7857C81.9382 92.3089 79.2596 93.7063 76.5424 93.7063H76.5036ZM67.5755 87.9225L73.1652 91.2608C76.2707 93.0852 80.269 92.076 82.0934 88.9705L98.4357 61.4875C100.26 58.3821 99.2509 54.3839 96.1454 52.5594L90.5557 49.2211C87.4502 47.3966 83.452 48.4059 81.6276 51.5113L65.2852 78.9943C63.4608 82.0998 64.47 86.098 67.5755 87.9225Z" fill="#193B68"/>
<path d="M123.592 37.5786C124.099 28.8035 113.042 21.0265 98.895 20.2083C84.7478 19.3901 72.8678 25.8405 72.3603 34.6156C71.8528 43.3907 82.91 51.1677 97.0572 51.9859C111.204 52.8041 123.084 46.3537 123.592 37.5786Z" fill="#193B68"/>
<path d="M59.3837 49.0269C60.7424 46.5814 64.5077 46.0379 67.7296 47.8624C68.1177 48.0953 68.5059 48.3281 68.8553 48.5999C70.0587 34.1208 81.5876 23.1354 94.9409 23.9117C108.527 24.6881 118.853 37.3815 117.999 52.2099C117.145 67.0383 105.422 78.4508 91.8354 77.6745C80.7335 77.0145 71.8054 68.4358 69.3987 57.2174C67.6131 58.1491 65.0899 58.0326 62.7609 56.7516C59.5002 54.9272 57.9863 51.4724 59.3837 49.0269Z" fill="white"/>
<path d="M93.155 78.4897C92.6892 78.4897 92.2622 78.4897 91.7964 78.4509C80.9662 77.8298 71.6499 69.6004 68.855 58.3044C66.9141 58.9255 64.5074 58.6537 62.4112 57.4504C58.8012 55.4319 57.132 51.5113 58.7235 48.6776C59.4998 47.2801 60.9361 46.3485 62.7606 46.1156C64.5074 45.8827 66.4095 46.2709 68.1175 47.2025C68.1563 47.2025 68.1951 47.2413 68.2339 47.2801C70.0195 32.8787 81.5872 22.3979 95.0182 23.1743C108.993 23.9894 119.667 37.0322 118.775 52.2876C117.921 67.0384 106.586 78.4897 93.155 78.4897ZM69.3984 56.4799C69.3984 56.4799 69.6314 56.48 69.709 56.5576C69.9419 56.6741 70.0971 56.8681 70.1359 57.101C72.5815 68.3582 81.3155 76.3547 91.874 76.937C105.033 77.7133 116.407 66.6114 117.222 52.21C118.037 37.8086 108.022 25.4645 94.9017 24.727C81.8978 23.9895 70.7959 34.5091 69.5926 48.7164C69.5926 48.9881 69.3985 49.221 69.1268 49.3375C68.855 49.4539 68.5833 49.4151 68.3504 49.2599C68.0398 49.027 67.6904 48.794 67.3411 48.5999C65.9048 47.7848 64.3521 47.4742 62.9546 47.6683C61.6348 47.8624 60.5867 48.4835 60.0433 49.4539C58.8787 51.5501 60.2763 54.5391 63.1488 56.1306C65.1285 57.2563 67.4575 57.4116 69.049 56.5964C69.1655 56.5576 69.2819 56.5188 69.3984 56.5188V56.4799Z" fill="#193B68"/>
<path d="M95.4426 16.187C104.759 14.479 113.415 16.1094 118.578 19.9524C119.975 21.0004 118.772 23.2131 117.103 22.592C112.134 20.7675 105.768 20.2629 99.0527 21.5051C85.2723 24.0282 75.3349 32.8787 76.8488 41.3022C76.9265 41.6515 77.0041 41.9621 77.0817 42.2726C75.0632 40.5258 73.6658 38.3908 73.2388 35.9841C71.7249 27.5606 81.6235 18.7102 95.4426 16.187Z" fill="#193B68"/>
<path d="M53.4814 34.0043C56.8973 23.7953 67.0287 17.3903 77.7036 18.7101L96.6855 21.0392L94.3565 23.9117C96.4139 20.6898 103.906 36.4499 83.8757 36.838C79.6833 36.9157 78.0918 41.3409 76.8496 45.6497C76.0345 48.5222 75.3357 51.3559 74.7535 53.9179C74.4429 55.2377 68.6979 54.9271 68.8532 48.6387C68.5038 48.3669 68.1156 48.134 67.7274 47.9011C64.4667 46.0767 60.7402 46.6201 59.3816 49.0657C58.023 51.5112 59.5369 54.966 62.7588 56.7904C65.049 58.0714 67.6109 58.1878 69.3966 57.2562C70.367 61.7591 72.3856 65.7961 75.1417 69.1345L69.9401 68.8239C67.1064 68.6686 64.5832 66.9218 63.4574 64.2822L61.3225 59.3136L61.0119 59.0807C53.4424 53.1804 50.4147 43.1653 53.4425 34.0431L53.4814 34.0043Z" fill="#193B68"/>
<path d="M110.427 52.7924C110.272 54.0346 110.893 55.1603 111.786 55.2767C112.679 55.3932 113.533 54.4615 113.688 53.1806C113.843 51.9384 113.222 50.8127 112.329 50.6962C111.436 50.5798 110.582 51.5114 110.427 52.7924Z" fill="#193B68"/>
<path d="M93.8119 51.2395C93.6566 52.4817 94.2777 53.6074 95.1706 53.7239C96.0634 53.8403 96.9173 52.9087 97.0726 51.6277C97.2279 50.3467 96.6068 49.2598 95.7139 49.1434C94.8211 49.0269 93.9672 49.9586 93.8119 51.2395Z" fill="#193B68"/>
<path d="M96.1025 67.0384C96.1025 67.0384 95.986 67.0384 95.9472 67.0384C94.0451 66.6502 92.376 65.4469 91.4444 63.7777C91.2115 63.3895 91.3667 62.8849 91.7549 62.652C92.1431 62.4191 92.6477 62.5744 92.8806 62.9626C93.5794 64.2047 94.8215 65.1363 96.2578 65.4081C96.7236 65.4857 96.9953 65.9515 96.9176 66.3785C96.84 66.7667 96.4907 67.0384 96.1025 67.0384Z" fill="#193B68"/>
<path d="M103.596 59.5853C103.207 59.5853 102.858 59.3135 102.78 58.8865C102.703 58.4207 103.013 57.9937 103.479 57.9161C104.76 57.6832 105.692 56.5575 105.653 55.2765L105.575 51.2006C105.575 50.7348 105.925 50.3466 106.39 50.3466C106.856 50.3466 107.244 50.696 107.244 51.1618L107.322 55.2377C107.361 57.3338 105.847 59.1971 103.751 59.5464C103.712 59.5464 103.673 59.5464 103.596 59.5464V59.5853Z" fill="#193B68"/>
<path d="M92.844 47.0473C92.844 47.0473 92.4946 46.9697 92.3393 46.8532C91.99 46.5815 91.9123 46.0381 92.2229 45.6887C93.3874 44.2524 95.5224 43.709 97.2304 44.4853C97.6574 44.6794 97.8514 45.1841 97.6573 45.5722C97.4632 45.9992 96.9586 46.1933 96.5704 45.9992C95.5612 45.5334 94.2414 45.8828 93.5427 46.7368C93.3874 46.9309 93.1545 47.0473 92.8828 47.0473H92.844Z" fill="#193B68"/>
<path d="M114.891 49.182C114.891 49.182 114.503 49.1044 114.348 48.988C113.494 48.2892 112.485 47.7846 111.436 47.5129C111.009 47.3964 110.738 46.9306 110.854 46.5036C110.971 46.0766 111.436 45.8049 111.863 45.9214C113.144 46.2319 114.387 46.853 115.396 47.707C115.745 48.0175 115.784 48.5221 115.512 48.8715C115.357 49.0656 115.124 49.182 114.852 49.182H114.891Z" fill="#193B68"/>
<path d="M69.4766 85.9426L89.4289 82.3714C95.2904 81.3233 101.152 84.0793 104.063 89.2421L143.347 158.338H80.4231L69.4766 85.9814V85.9426Z" fill="#00AAFF"/>
<path d="M79.6823 158.338H142.606L115.744 111.097H72.501L79.6823 158.338Z" fill="white"/>
<path d="M142.607 159.075H79.6837C79.2955 159.075 78.985 158.804 78.9462 158.415L71.8037 111.174C71.8037 110.941 71.8037 110.747 71.9978 110.553C72.153 110.398 72.3471 110.281 72.58 110.281H115.823C116.095 110.281 116.367 110.437 116.483 110.67L143.345 157.911C143.461 158.144 143.461 158.454 143.345 158.687C143.19 158.92 142.957 159.075 142.685 159.075H142.607ZM80.3436 157.561H141.288L115.318 111.873H73.434L80.3436 157.561Z" fill="#193B68"/>
<path d="M24.9525 107.021L45.6424 79.8095C50.6887 73.1717 60.2379 71.9683 66.7593 77.1699L76.4249 84.817L80.6173 80.353H80.8113C88.8078 80.353 95.7174 85.9816 97.2702 93.8616L100.88 162.492H16.9561L24.9525 107.021Z" fill="#00AAFF"/>
<path d="M105.499 133.96H107.75C110.351 133.96 112.642 132.33 113.534 129.885C114.194 128.099 112.874 126.197 110.972 126.197H92.1846L105.538 133.922L105.499 133.96Z" fill="white"/>
<path d="M107.712 134.737H105.461C105.034 134.737 104.684 134.387 104.684 133.96C104.684 133.533 105.034 133.184 105.461 133.184H107.712C109.964 133.184 112.021 131.748 112.797 129.613C113.03 128.992 112.914 128.332 112.564 127.827C112.176 127.284 111.594 126.973 110.934 126.973H92.1073C91.6803 126.973 91.3311 126.624 91.3311 126.197C91.3311 125.77 91.6803 125.42 92.1073 125.42H110.934C112.06 125.42 113.147 125.964 113.806 126.896C114.466 127.827 114.622 129.03 114.234 130.079C113.224 132.796 110.624 134.62 107.712 134.62V134.737Z" fill="#193B68"/>
<path d="M24.9525 107.021L4.61191 133.805C-5.67482 147.353 6.35871 166.412 23.0504 162.957L86.7893 149.643L94.4753 155.038C96.9596 156.785 100.181 157.057 102.938 155.776L105.034 154.806C107.596 156.514 110.934 156.591 113.574 154.961L115.359 153.874L98.784 138.386C100.841 139.511 110.779 143.587 116.834 144.053C118.503 144.169 120.134 143.432 121.182 142.112L121.725 141.413L102.782 130.506C96.7655 127.361 94.8634 125.653 90.2829 126.274L44.2061 132.524L56.395 119.171C56.395 119.171 48.6702 106.982 25.0301 106.982L24.9525 107.021Z" fill="white"/>
<path d="M19.0517 164.161C12.5691 164.161 6.70763 160.939 3.05875 155.194C-1.32766 148.245 -0.978223 139.9 3.99046 133.378L24.331 106.594C24.331 106.594 24.7192 106.283 24.9521 106.283C48.7474 106.283 56.6274 118.317 56.9768 118.821C57.1709 119.093 57.132 119.481 56.8991 119.753L46.1466 131.554L90.1271 125.576C94.1642 125.032 96.3768 126.236 100.336 128.371C101.151 128.836 102.083 129.302 103.092 129.846L122.074 140.754C122.074 140.754 122.385 141.064 122.462 141.258C122.501 141.491 122.462 141.685 122.307 141.879L121.764 142.578C120.56 144.131 118.658 144.946 116.756 144.791C112.525 144.441 106.586 142.462 102.588 140.87L115.863 153.292C115.863 153.292 116.135 153.68 116.096 153.913C116.096 154.146 115.941 154.379 115.747 154.495L113.961 155.582C111.205 157.29 107.75 157.29 104.994 155.66L103.286 156.475C100.297 157.872 96.765 157.562 94.0478 155.66L86.6335 150.458L23.2441 163.734C21.8466 164.044 20.4492 164.161 19.0905 164.161H19.0517ZM25.3403 107.797L5.23254 134.31C0.652036 140.327 0.341488 148.012 4.37854 154.417C8.4156 160.784 15.5193 163.811 22.8947 162.259L86.6335 148.944C86.8276 148.905 87.0605 148.944 87.2158 149.061L94.9018 154.456C97.1532 156.048 100.103 156.281 102.626 155.155L104.723 154.185C104.956 154.068 105.227 154.107 105.46 154.223C107.789 155.776 110.778 155.815 113.146 154.379L114.078 153.796L98.2402 138.968C97.9684 138.696 97.9295 138.269 98.1624 137.959C98.3954 137.648 98.8223 137.57 99.1329 137.726C101.346 138.929 111.128 142.85 116.873 143.316C118.27 143.432 119.668 142.811 120.56 141.685L102.355 131.204C101.346 130.661 100.414 130.156 99.5987 129.729C95.6781 127.594 93.8925 126.624 90.3213 127.09L44.2445 133.339C43.934 133.378 43.6234 133.223 43.4681 132.951C43.3129 132.679 43.3517 132.33 43.5846 132.097L55.3464 119.21C54.6088 118.278 52.6291 115.988 49.0191 113.775C44.7103 111.097 37.1021 107.914 25.3403 107.875V107.797Z" fill="#193B68"/>
<path d="M93.0781 144.247L105.034 154.767L93.0781 144.247Z" fill="white"/>
<path d="M105.032 155.543C105.032 155.543 104.683 155.465 104.528 155.349L92.5718 144.829C92.2613 144.558 92.2225 144.053 92.4942 143.742C92.766 143.432 93.2706 143.393 93.5811 143.665L105.537 154.185C105.848 154.456 105.886 154.961 105.615 155.271C105.459 155.427 105.265 155.543 105.032 155.543Z" fill="#193B68"/>
<path d="M99.0933 138.696L95.1338 135.474L99.0933 138.696Z" fill="white"/>
<path d="M99.0946 139.472C99.0946 139.472 98.7451 139.434 98.6287 139.317L94.6693 136.095C94.3587 135.824 94.2811 135.358 94.5528 135.008C94.8246 134.698 95.2904 134.62 95.6397 134.892L99.5991 138.114C99.9097 138.386 99.9873 138.851 99.7156 139.201C99.5603 139.395 99.3274 139.472 99.1333 139.472H99.0946Z" fill="#193B68"/>
<path d="M56.3144 119.986C56.3144 119.986 55.9263 119.908 55.771 119.792C55.4605 119.481 55.4605 119.016 55.771 118.705L68.2315 105.662C68.5032 105.352 69.0078 105.352 69.3184 105.662C69.6289 105.973 69.6289 106.439 69.3184 106.749L56.8579 119.792C56.8579 119.792 56.5085 120.025 56.3144 120.025V119.986Z" fill="white"/>
<path d="M155.032 162.453H64.8196C64.8196 158.532 68.0026 155.349 71.9232 155.349H155.032V162.453Z" fill="#193B68"/>
<path d="M120.017 162.491H202.039L220.051 107.991C221.798 102.712 217.877 97.3161 212.326 97.3161H147.423C143.929 97.3161 140.785 99.5675 139.698 102.906L119.979 162.491H120.017Z" fill="#193B68"/>
<path d="M175.528 136.949C178.722 136.949 181.312 134.36 181.312 131.165C181.312 127.971 178.722 125.382 175.528 125.382C172.334 125.382 169.744 127.971 169.744 131.165C169.744 134.36 172.334 136.949 175.528 136.949Z" fill="white"/>
<path d="M175.526 137.726C171.916 137.726 169.005 134.775 169.005 131.165C169.005 127.555 171.955 124.605 175.526 124.605C179.097 124.605 182.086 127.555 182.086 131.165C182.086 134.775 179.136 137.726 175.526 137.726ZM175.526 126.158C172.77 126.158 170.519 128.409 170.519 131.165C170.519 133.921 172.77 136.173 175.526 136.173C178.282 136.173 180.534 133.921 180.534 131.165C180.534 128.409 178.282 126.158 175.526 126.158Z" fill="#193B68"/>
<path d="M25.8828 135.358L44.1272 132.563L25.8828 135.358Z" fill="white"/>
<path d="M25.8814 136.134C25.4932 136.134 25.1826 135.862 25.1438 135.474C25.0662 135.047 25.3767 134.659 25.7649 134.62L44.0093 131.825C44.4363 131.748 44.8245 132.058 44.8633 132.446C44.941 132.873 44.6304 133.262 44.2422 133.3L25.9978 136.095C25.9978 136.095 25.9202 136.095 25.8814 136.095V136.134Z" fill="#193B68"/>
<path d="M68.1162 77.7522L94.8616 82.6433L94.3958 84.623C92.222 93.6675 81.9741 96.4625 76.3067 89.5917L68.1162 77.7522Z" fill="white"/>
<path d="M88.2637 80.4693L95.0179 82.3326L88.2637 80.4693Z" fill="white"/>
<path d="M95.0171 83.1089C95.0171 83.1089 94.9007 83.1089 94.823 83.1089L88.0686 81.2456C87.6805 81.1292 87.4088 80.7022 87.5253 80.314C87.6417 79.9258 88.0687 79.6541 88.4568 79.7705L95.2112 81.6338C95.5994 81.7503 95.8711 82.1772 95.7546 82.5654C95.677 82.9148 95.3664 83.1089 95.0171 83.1089Z" fill="#193B68"/>
<path d="M88.7686 79.3051L85.1973 85.7488L88.7686 79.3051Z" fill="white"/>
<path d="M85.2365 86.4864C85.2365 86.4864 85.0036 86.4864 84.8872 86.4087C84.499 86.2147 84.3825 85.7488 84.5766 85.3606L88.1479 78.9169C88.3419 78.5675 88.8077 78.4123 89.1959 78.6063C89.5841 78.8004 89.7006 79.2662 89.5065 79.6544L85.9352 86.0982C85.7799 86.3311 85.547 86.4864 85.2753 86.4864H85.2365Z" fill="#193B68"/>
<path d="M208.869 10.0153H175.447C175.02 10.0153 174.671 9.6659 174.671 9.2389C174.671 8.8119 175.02 8.46255 175.447 8.46255H208.869C209.296 8.46255 209.646 8.8119 209.646 9.2389C209.646 9.6659 209.296 10.0153 208.869 10.0153Z" fill="#193B68"/>
<path d="M206.23 16.381H175.409C174.982 16.381 174.633 16.0316 174.633 15.6046C174.633 15.1776 174.982 14.8282 175.409 14.8282H206.23C206.657 14.8282 207.007 15.1776 207.007 15.6046C207.007 16.0316 206.657 16.381 206.23 16.381Z" fill="#193B68"/>
<path d="M170.481 0.815022H149.325V21.9707H170.481V0.815022Z" fill="white"/>
<path d="M170.519 22.7084H149.363C148.936 22.7084 148.587 22.3591 148.587 21.9321V0.77636C148.587 0.349363 148.936 0 149.363 0H170.519C170.946 0 171.295 0.349363 171.295 0.77636V21.9321C171.295 22.3591 170.946 22.7084 170.519 22.7084ZM150.101 21.1945H169.743V1.5527H150.101V21.1945Z" fill="#193B68"/>
<path d="M157.67 15.7601C157.476 15.7601 157.281 15.6825 157.126 15.5272L153.671 12.0724C153.361 11.7619 153.361 11.2961 153.671 10.9855C153.982 10.675 154.448 10.675 154.758 10.9855L157.67 13.8969L165.433 6.13327C165.744 5.82273 166.21 5.82273 166.52 6.13327C166.831 6.44382 166.831 6.90964 166.52 7.22018L158.213 15.5272C158.213 15.5272 157.864 15.7601 157.67 15.7601Z" fill="#193B68"/>
<path d="M208.869 40.9919H175.447C175.02 40.9919 174.671 40.6425 174.671 40.2156C174.671 39.7886 175.02 39.4392 175.447 39.4392H208.869C209.296 39.4392 209.646 39.7886 209.646 40.2156C209.646 40.6425 209.296 40.9919 208.869 40.9919Z" fill="#193B68"/>
<path d="M206.23 47.3576H175.409C174.982 47.3576 174.633 47.0082 174.633 46.5812C174.633 46.1542 174.982 45.8049 175.409 45.8049H206.23C206.657 45.8049 207.007 46.1542 207.007 46.5812C207.007 47.0082 206.657 47.3576 206.23 47.3576Z" fill="#193B68"/>
<path d="M170.481 31.7916H149.325V52.9474H170.481V31.7916Z" fill="white"/>
<path d="M170.519 53.685H149.363C148.936 53.685 148.587 53.3357 148.587 52.9087V31.753C148.587 31.326 148.936 30.9766 149.363 30.9766H170.519C170.946 30.9766 171.295 31.326 171.295 31.753V52.9087C171.295 53.3357 170.946 53.685 170.519 53.685ZM150.101 52.1712H169.743V32.5293H150.101V52.1712Z" fill="#193B68"/>
<path d="M157.67 46.7367C157.476 46.7367 157.281 46.6591 157.126 46.5038L153.671 43.049C153.361 42.7385 153.361 42.2727 153.671 41.9621C153.982 41.6516 154.448 41.6516 154.758 41.9621L157.67 44.8735L165.433 37.1099C165.744 36.7994 166.21 36.7994 166.52 37.1099C166.831 37.4204 166.831 37.8863 166.52 38.1968L158.213 46.5038C158.213 46.5038 157.864 46.7367 157.67 46.7367Z" fill="#193B68"/>
<path d="M208.869 71.9683H175.447C175.02 71.9683 174.671 71.6189 174.671 71.1919C174.671 70.765 175.02 70.4156 175.447 70.4156H208.869C209.296 70.4156 209.646 70.765 209.646 71.1919C209.646 71.6189 209.296 71.9683 208.869 71.9683Z" fill="#193B68"/>
<path d="M206.23 78.334H175.409C174.982 78.334 174.633 77.9846 174.633 77.5576C174.633 77.1306 174.982 76.7813 175.409 76.7813H206.23C206.657 76.7813 207.007 77.1306 207.007 77.5576C207.007 77.9846 206.657 78.334 206.23 78.334Z" fill="#193B68"/>
<path d="M170.481 62.7681H149.325V83.9239H170.481V62.7681Z" fill="white"/>
<path d="M170.519 84.6615H149.363C148.936 84.6615 148.587 84.3122 148.587 83.8852V62.7294C148.587 62.3024 148.936 61.9531 149.363 61.9531H170.519C170.946 61.9531 171.295 62.3024 171.295 62.7294V83.8852C171.295 84.3122 170.946 84.6615 170.519 84.6615ZM150.101 83.1476H169.743V63.5058H150.101V83.1476Z" fill="#193B68"/>
<path d="M157.67 77.7132C157.476 77.7132 157.281 77.6356 157.126 77.4803L153.671 74.0255C153.361 73.715 153.361 73.2491 153.671 72.9386C153.982 72.6281 154.448 72.6281 154.758 72.9386L157.67 75.8499L165.433 68.0864C165.744 67.7758 166.21 67.7758 166.52 68.0864C166.831 68.3969 166.831 68.8627 166.52 69.1733L158.213 77.4803C158.213 77.4803 157.864 77.7132 157.67 77.7132Z" fill="#193B68"/>
</svg>
