<svg width="27" height="27" viewBox="0 0 27 27" fill="none" xmlns="http://www.w3.org/2000/svg">
<path d="M13.5 0C6.05603 0 0 6.05603 0 13.5C0 20.944 6.05603 27 13.5 27C20.944 27 27 20.944 27 13.5C27 6.05603 20.944 0 13.5 0ZM13.5 25.3123C6.98649 25.3123 1.68766 20.0132 1.68766 13.4997C1.68766 6.98617 6.98649 1.68766 13.5 1.68766C20.0135 1.68766 25.3123 6.98649 25.3123 13.5C25.3123 20.0135 20.0135 25.3123 13.5 25.3123ZM17.4586 10.6833C17.4586 13.1971 16.1899 13.9281 15.2635 14.4618C14.4624 14.9234 13.9787 15.2022 13.9787 16.5943C13.9787 17.0603 13.6009 17.4381 13.1348 17.4381C12.6688 17.4381 12.291 17.0603 12.291 16.5943C12.291 14.2269 13.5218 13.5174 14.4207 12.9995C15.2335 12.531 15.7707 12.2218 15.7707 10.683C15.7707 9.43072 14.7517 8.41173 13.4994 8.41173C12.2471 8.41173 11.2281 9.43072 11.2281 10.683C11.2281 11.149 10.8503 11.5269 10.3843 11.5269C9.91823 11.5269 9.54042 11.149 9.54042 10.683C9.54042 8.50026 11.3163 6.72439 13.4991 6.72439C15.6828 6.72471 17.4586 8.50058 17.4586 10.6833ZM13.9256 19.1153V19.4318C13.9256 19.8978 13.5477 20.2756 13.0817 20.2756C12.6157 20.2756 12.2379 19.8978 12.2379 19.4318V19.1153C12.2379 18.6493 12.6157 18.2715 13.0817 18.2715C13.5477 18.2715 13.9256 18.6493 13.9256 19.1153Z" fill="#F3636E"/>
</svg>
