<svg width="60" height="60" viewBox="0 0 60 60" fill="none" xmlns="http://www.w3.org/2000/svg">
<circle cx="30" cy="30" r="30" fill="#5D5D5D"/>
<path d="M26.6293 38.9887H38.9888V36.5168H26.6293V38.9887ZM26.6293 31.573H34.045V29.1011H26.6293V31.573ZM26.6293 21.6854V24.1573H41.4608V21.6854H26.6293ZM21.6855 21.0674C21.4419 21.0675 21.2008 21.1155 20.9758 21.2088C20.7508 21.3021 20.5464 21.4387 20.3743 21.611C20.2021 21.7833 20.0656 21.9878 19.9725 22.2128C19.8794 22.4378 19.8315 22.679 19.8315 22.9226C19.8316 23.1661 19.8797 23.4072 19.9729 23.6322C20.0662 23.8572 20.2029 24.0616 20.3752 24.2337C20.5474 24.4059 20.7519 24.5424 20.977 24.6356C21.202 24.7287 21.4432 24.7766 21.6867 24.7765C22.1786 24.7763 22.6502 24.5808 22.9979 24.2329C23.3456 23.885 23.5408 23.4132 23.5406 22.9213C23.5405 22.4295 23.3449 21.9578 22.997 21.6101C22.6491 21.2625 22.1773 21.0672 21.6855 21.0674ZM21.6855 28.4831C21.4419 28.4832 21.2008 28.5312 20.9758 28.6245C20.7508 28.7178 20.5464 28.8545 20.3743 29.0267C20.2021 29.199 20.0656 29.4035 19.9725 29.6285C19.8794 29.8536 19.8315 30.0947 19.8315 30.3383C19.8316 30.5818 19.8797 30.823 19.9729 31.0479C20.0662 31.2729 20.2029 31.4773 20.3752 31.6495C20.5474 31.8216 20.7519 31.9582 20.977 32.0513C21.202 32.1444 21.4432 32.1923 21.6867 32.1922C22.1786 32.1921 22.6502 31.9965 22.9979 31.6486C23.3456 31.3007 23.5408 30.8289 23.5406 30.337C23.5405 29.8452 23.3449 29.3735 22.997 29.0259C22.6491 28.6782 22.1773 28.4829 21.6855 28.4831ZM21.6855 35.8988C21.4419 35.8989 21.2008 35.947 20.9758 36.0403C20.7508 36.1335 20.5464 36.2702 20.3743 36.4425C20.2021 36.6147 20.0656 36.8192 19.9725 37.0443C19.8794 37.2693 19.8315 37.5105 19.8315 37.754C19.8316 37.9976 19.8797 38.2387 19.9729 38.4637C20.0662 38.6886 20.2029 38.893 20.3752 39.0652C20.5474 39.2374 20.7519 39.3739 20.977 39.467C21.202 39.5601 21.4432 39.608 21.6867 39.6079C22.1786 39.6078 22.6502 39.4122 22.9979 39.0643C23.3456 38.7164 23.5408 38.2446 23.5406 37.7528C23.5405 37.2609 23.3449 36.7893 22.997 36.4416C22.6491 36.0939 22.1773 35.8987 21.6855 35.8988Z" fill="white"/>
</svg>
