<svg width="21" height="21" viewBox="0 0 21 21" fill="none" xmlns="http://www.w3.org/2000/svg">
<path d="M6.35195 18.1083C5.83519 18.0939 5.34341 17.9613 4.87661 17.7104C4.4098 17.4594 3.96855 17.0897 3.55284 16.6011C2.97867 15.912 2.52995 15.0904 2.20669 14.1361C1.88343 13.1818 1.72208 12.202 1.72266 11.1966C1.72266 10.0052 1.94888 8.88556 2.40133 7.83769C2.85378 6.78982 3.46729 5.87832 4.24185 5.10318C5.01699 4.32804 5.9285 3.71454 6.97637 3.26266C8.02424 2.81078 9.14388 2.58456 10.3353 2.58398C11.5267 2.58398 12.6464 2.81365 13.6942 3.273C14.7421 3.73234 15.6536 4.35675 16.4287 5.14624C17.2039 5.93574 17.8177 6.86159 18.2701 7.92382C18.7226 8.98604 18.9485 10.1272 18.9479 11.3473C18.9479 12.4526 18.7685 13.4861 18.4096 14.4479C18.0508 15.4096 17.5412 16.2207 16.8809 16.881C16.479 17.2829 16.0555 17.5881 15.6105 17.7965C15.1655 18.0049 14.7134 18.1088 14.254 18.1083C13.9957 18.1083 13.7373 18.0761 13.4789 18.0118C13.2205 17.9475 12.9621 17.8505 12.7038 17.7207L11.498 17.1178C11.3257 17.0317 11.1426 16.9671 10.9485 16.924C10.7544 16.881 10.55 16.8594 10.3353 16.8594C10.12 16.8594 9.91529 16.881 9.72121 16.924C9.52714 16.9671 9.34427 17.0317 9.17259 17.1178L7.96682 17.7207C7.69409 17.8642 7.4248 17.9685 7.15896 18.0333C6.89311 18.0982 6.62411 18.1232 6.35195 18.1083ZM6.39501 16.3857C6.5242 16.3857 6.65712 16.3714 6.79378 16.3427C6.93043 16.314 7.06307 16.2637 7.19168 16.1919L8.39745 15.5891C8.69889 15.4312 9.01125 15.3163 9.33451 15.2446C9.65777 15.1728 9.98419 15.1369 10.3138 15.1369C10.6439 15.1369 10.9741 15.1728 11.3042 15.2446C11.6344 15.3163 11.9502 15.4312 12.2516 15.5891L13.4789 16.1919C13.6081 16.2637 13.7373 16.314 13.8665 16.3427C13.9957 16.3714 14.1249 16.3857 14.254 16.3857C14.5268 16.3857 14.7852 16.314 15.0292 16.1704C15.2732 16.0269 15.5172 15.8116 15.7613 15.5245C16.2206 14.979 16.5795 14.3259 16.8378 13.5651C17.0962 12.8043 17.2254 12.022 17.2254 11.2182C17.2254 9.29466 16.5579 7.66199 15.223 6.32015C13.888 4.9783 12.2588 4.30709 10.3353 4.30651C8.41181 4.30651 6.78258 4.98117 5.44762 6.33048C4.11266 7.67979 3.44519 9.3162 3.44519 11.2397C3.44519 12.0579 3.57782 12.8546 3.84309 13.6297C4.10836 14.4048 4.47813 15.058 4.9524 15.5891C5.19642 15.8762 5.43327 16.0808 5.66294 16.2031C5.89261 16.3254 6.13663 16.3863 6.39501 16.3857ZM10.3353 12.9191C10.809 12.9191 11.2146 12.7506 11.5523 12.4136C11.8899 12.0765 12.0584 11.6709 12.0578 11.1966C12.0578 11.0818 12.0469 10.967 12.0251 10.8521C12.0033 10.7373 11.9711 10.6224 11.9286 10.5076L13.0052 9.06499C13.1488 9.2516 13.2745 9.44883 13.3824 9.65668C13.4904 9.86453 13.58 10.0908 13.6512 10.3354H15.4168C15.2014 9.07217 14.6166 8.03865 13.6624 7.23481C12.7081 6.43096 11.5991 6.02904 10.3353 6.02904C9.07211 6.02904 7.95964 6.43469 6.9979 7.24601C6.03615 8.05732 5.4548 9.0871 5.25384 10.3354H7.01943C7.22039 9.56022 7.62949 8.9358 8.24673 8.46211C8.86397 7.98841 9.56016 7.75157 10.3353 7.75157C10.5793 7.75157 10.809 7.7731 11.0243 7.81616C11.2396 7.85922 11.4478 7.92382 11.6487 8.00995L10.5506 9.49563C10.5219 9.49563 10.486 9.49189 10.443 9.48443C10.3999 9.47696 10.364 9.47352 10.3353 9.47409C9.8616 9.47409 9.45623 9.6429 9.11919 9.98052C8.78215 10.3181 8.61334 10.7235 8.61277 11.1966C8.61277 11.6703 8.78158 12.076 9.11919 12.4136C9.45681 12.7512 9.86217 12.9197 10.3353 12.9191Z" fill="#3C38CD"/>
</svg>
