<svg width="54" height="47" viewBox="0 0 54 47" fill="none" xmlns="http://www.w3.org/2000/svg">
<path d="M24.1998 18.4697L14.5098 20.4797L1.80983 37.2797C0.30983 39.2697 0.249846 41.9897 1.66985 44.0397C3.26985 46.3497 6.30984 47.1597 8.84984 45.9697L21.0598 40.2397H28.8598L24.1998 18.4697Z" fill="#193B68"/>
<path d="M29.7098 18.4697L39.3998 20.4797L52.0998 37.2797C53.5998 39.2697 53.6598 41.9897 52.2398 44.0397C50.6398 46.3497 47.5998 47.1597 45.0598 45.9697L32.8498 40.2397H25.0498L29.7098 18.4697Z" fill="#193B68"/>
<path d="M38.4767 11.492C38.9233 9.59999 37.7515 7.7042 35.8594 7.25764C33.9674 6.81107 32.0716 7.98283 31.625 9.87489C31.1784 11.7669 32.3502 13.6628 34.2423 14.1094C36.1343 14.5559 38.0302 13.3841 38.4767 11.492Z" fill="#193B68"/>
<path d="M19.0796 17.2797C21.0236 17.2797 22.5995 15.7038 22.5995 13.7597C22.5995 11.8157 21.0236 10.2397 19.0796 10.2397C17.1355 10.2397 15.5596 11.8157 15.5596 13.7597C15.5596 15.7038 17.1355 17.2797 19.0796 17.2797Z" fill="#193B68"/>
<path d="M32.7993 7.59984C32.7993 4.00447 29.8846 1.08984 26.2892 1.08984C22.6939 1.08984 19.7793 4.00447 19.7793 7.59984V9.66984C19.7793 13.2652 22.6939 16.1798 26.2892 16.1798C29.8846 16.1798 32.7993 13.2652 32.7993 9.66984V7.59984Z" fill="#193B68"/>
<path d="M27.8892 0.509766H27.8792C24.8803 0.509766 22.4492 2.94086 22.4492 5.93977V7.05977C22.4492 10.0587 24.8803 12.4898 27.8792 12.4898H27.8892C30.8881 12.4898 33.3192 10.0587 33.3192 7.05977V5.93977C33.3192 2.94086 30.8881 0.509766 27.8892 0.509766Z" fill="#193B68"/>
<path d="M32.3598 8.73992L33.5398 8.38992C34.2598 8.17992 34.6698 7.41992 34.4498 6.69992C34.2398 5.97992 33.4798 5.56992 32.7598 5.78992L31.5798 6.13992C30.8598 6.34992 30.4498 7.10992 30.6698 7.82992C30.8798 8.54992 31.6398 8.95992 32.3598 8.73992Z" fill="white"/>
<path d="M31.9697 8.99984C31.7197 8.99984 31.4597 8.93984 31.2297 8.80984C30.8697 8.60984 30.5997 8.27984 30.4797 7.88984C30.2397 7.06984 30.7097 6.19984 31.5297 5.95984L32.7097 5.60984C33.1097 5.48984 33.5297 5.53984 33.8897 5.72984C34.2497 5.92984 34.5197 6.25984 34.6397 6.64984C34.8797 7.46984 34.4097 8.33984 33.5897 8.57984L32.4097 8.92984C32.2597 8.96984 32.1097 8.99984 31.9697 8.99984ZM33.1497 5.93984C33.0397 5.93984 32.9297 5.95984 32.8197 5.98984L31.6397 6.33984C31.0297 6.51984 30.6797 7.16984 30.8597 7.77984C30.9497 8.07984 31.1497 8.31984 31.4197 8.46984C31.6897 8.61984 32.0097 8.64984 32.2997 8.55984L33.4797 8.20984C34.0897 8.02984 34.4397 7.37984 34.2597 6.76984C34.1097 6.26984 33.6497 5.93984 33.1497 5.93984Z" fill="#193B68"/>
<path d="M22.2398 11.3498L21.0098 11.3298C20.2598 11.3198 19.6698 10.6998 19.6798 9.94975C19.6898 9.19975 20.3098 8.60975 21.0598 8.61975L22.2898 8.63975C23.0398 8.64975 23.6298 9.26975 23.6198 10.0198C23.6098 10.7698 22.9898 11.3598 22.2398 11.3498Z" fill="white"/>
<path d="M22.26 11.5399C22.26 11.5399 22.2399 11.5399 22.2299 11.5399L20.9999 11.5199C20.1399 11.4999 19.4599 10.7899 19.4799 9.93986C19.4999 9.07986 20.2099 8.39986 21.0599 8.41986L22.2899 8.43986C22.6999 8.43986 23.0899 8.61986 23.3799 8.90986C23.6699 9.20986 23.8199 9.59986 23.8099 10.0199C23.7899 10.8699 23.1 11.5399 22.26 11.5399ZM22.2399 11.1499C22.2399 11.1499 22.25 11.1499 22.26 11.1499C22.89 11.1499 23.4099 10.6399 23.4199 10.0099C23.4199 9.69986 23.3099 9.40986 23.0999 9.17986C22.8899 8.95986 22.5999 8.82986 22.2899 8.82986L21.0599 8.80986C20.7499 8.80986 20.4599 8.91986 20.2299 9.12986C20.0099 9.33986 19.8799 9.62986 19.8799 9.93986C19.8699 10.5799 20.38 11.1099 21.02 11.1199L22.2499 11.1399L22.2399 11.1499Z" fill="#193B68"/>
<path d="M22.1792 18.7597C24.1232 18.7597 25.6992 17.1838 25.6992 15.2397C25.6992 13.2957 24.1232 11.7197 22.1792 11.7197C20.2352 11.7197 18.6592 13.2957 18.6592 15.2397C18.6592 17.1838 20.2352 18.7597 22.1792 18.7597Z" fill="#193B68"/>
<path d="M32.6392 16.8896C34.5832 16.8896 36.1591 15.3137 36.1591 13.3696C36.1591 11.4256 34.5832 9.84961 32.6392 9.84961C30.6951 9.84961 29.1191 11.4256 29.1191 13.3696C29.1191 15.3137 30.6951 16.8896 32.6392 16.8896Z" fill="#193B68"/>
<path d="M31.5136 10.8791L23.2227 12.1641L24.9227 23.1331L33.2137 21.8481L31.5136 10.8791Z" fill="white"/>
<path d="M24.9197 23.3497C24.9197 23.3497 24.8397 23.3397 24.7997 23.3097C24.7597 23.2797 24.7296 23.2297 24.7196 23.1797L23.0197 12.2097C22.9997 12.0997 23.0797 11.9997 23.1797 11.9897L31.4796 10.6997C31.5296 10.6997 31.5797 10.6997 31.6297 10.7397C31.6697 10.7697 31.6997 10.8197 31.7097 10.8697L33.4096 21.8397C33.4296 21.9497 33.3497 22.0497 33.2497 22.0597L24.9497 23.3497C24.9497 23.3497 24.9297 23.3497 24.9197 23.3497ZM23.4397 12.3497L25.0797 22.9297L32.9897 21.6997L31.3496 11.1197L23.4397 12.3497Z" fill="#193B68"/>
<path d="M27.3201 16.18C24.2901 16.18 21.8301 13.72 21.8301 10.69V8.94996C21.8301 5.91996 24.2901 3.45996 27.3201 3.45996C30.3501 3.45996 32.8101 5.91996 32.8101 8.94996V10.69C32.8101 13.72 30.3501 16.18 27.3201 16.18Z" fill="white"/>
<path d="M21.5498 8.56967C24.0698 7.91967 25.9298 5.62967 25.9298 2.90967C23.4098 3.55967 21.5498 5.84967 21.5498 8.56967Z" fill="#193B68"/>
<path d="M24.0991 8.02962C24.0991 8.02962 24.0492 8.02962 24.0292 8.01962C23.9692 7.99962 23.9291 7.94962 23.9091 7.89962C23.8791 7.79962 23.9292 7.68962 24.0192 7.64962C25.3992 6.76962 26.0192 5.06962 25.5192 3.50962C25.4892 3.40962 25.5392 3.28962 25.6492 3.25962C25.7492 3.22962 25.8592 3.27962 25.8992 3.37962C26.4492 5.12962 25.7491 7.02962 24.1991 7.99962C24.1691 8.01962 24.1291 8.02962 24.0991 8.02962Z" fill="#193B68"/>
<path d="M31.9395 5.48993C29.4395 6.22993 26.6695 5.22993 25.2695 2.88993C27.7695 2.14993 30.5395 3.14993 31.9395 5.48993Z" fill="#193B68"/>
<path d="M27.3199 16.3797C24.1899 16.3797 21.6299 13.8297 21.6299 10.6897C21.6299 10.5797 21.7199 10.4897 21.8299 10.4897C21.9399 10.4897 22.0299 10.5797 22.0299 10.6897C22.0299 13.6097 24.3999 15.9797 27.3199 15.9797C28.5299 15.9797 29.7199 15.5597 30.6599 14.7897C30.7399 14.7197 30.8699 14.7297 30.9399 14.8197C31.0099 14.8997 30.9999 15.0297 30.9099 15.0997C29.8999 15.9197 28.6299 16.3797 27.3199 16.3797Z" fill="#193B68"/>
<path d="M32.68 7.84961C32.59 7.84961 32.5 7.77961 32.49 7.68961C32.34 6.78961 33.07 6.34961 33.1 6.32961C33.19 6.26961 33.31 6.29961 33.37 6.39961C33.43 6.48961 33.4 6.60961 33.3 6.66961C33.28 6.68961 32.77 7.00961 32.88 7.62961C32.9 7.73961 32.83 7.83961 32.72 7.85961C32.71 7.85961 32.7 7.85961 32.69 7.85961L32.68 7.84961Z" fill="#193B68"/>
<path d="M21.8097 10.7698C21.7097 10.7698 21.6297 10.6998 21.6097 10.5898C21.5397 9.95983 20.9697 9.77983 20.9397 9.77983C20.8397 9.74983 20.7797 9.63983 20.7997 9.53983C20.8297 9.43983 20.9397 9.37983 21.0397 9.39983C21.0697 9.39983 21.8997 9.64983 21.9897 10.5498C21.9997 10.6598 21.9197 10.7498 21.8197 10.7698C21.8197 10.7698 21.8097 10.7698 21.7997 10.7698H21.8097Z" fill="#193B68"/>
<path d="M25.7694 7.40962C25.8494 7.61962 25.4394 7.96962 24.8594 8.19962C24.2794 8.41962 23.7394 8.43962 23.6594 8.22962C23.5794 8.01962 23.9894 7.66962 24.5694 7.43962C25.1494 7.20962 25.6894 7.19962 25.7694 7.40962Z" fill="#193B68"/>
<path d="M29.9695 7.10959C29.9495 7.33959 29.4396 7.47959 28.8096 7.43959C28.1796 7.39959 27.6896 7.17959 27.7096 6.94959C27.7296 6.71959 28.2395 6.57959 28.8695 6.61959C29.4895 6.65959 29.9895 6.87959 29.9695 7.10959Z" fill="#193B68"/>
<path d="M24.29 9.62997C24.29 9.62997 24.21 9.61997 24.18 9.59997C24.09 9.53997 24.07 9.41997 24.13 9.32997C24.64 8.58997 25.49 8.79997 25.86 9.00997C25.95 9.05997 25.99 9.17997 25.93 9.27997C25.88 9.36997 25.76 9.40997 25.66 9.34997C25.63 9.32997 24.88 8.91997 24.45 9.54997C24.41 9.60997 24.35 9.62997 24.29 9.62997Z" fill="#193B68"/>
<path d="M28.5398 8.55994C28.6098 8.85994 28.8099 9.06994 29.0099 9.02994C29.2099 8.98994 29.2998 8.70994 29.2398 8.40994C29.1698 8.10994 28.9699 7.89994 28.7699 7.93994C28.5799 7.97994 28.4798 8.25994 28.5398 8.55994Z" fill="#193B68"/>
<path d="M27.4494 10.9196C27.4494 10.9196 27.4394 10.9196 27.4294 10.9196C27.1694 10.8896 26.9294 10.7596 26.7694 10.5396C26.6094 10.3296 26.5594 10.0596 26.6094 9.79961L26.9094 8.34961C26.9294 8.23961 27.0394 8.17961 27.1394 8.19961C27.2494 8.21961 27.3094 8.32961 27.2894 8.42961L26.9894 9.87961C26.9594 10.0296 26.9894 10.1796 27.0794 10.3096C27.1694 10.4396 27.3094 10.5096 27.4594 10.5296C27.5694 10.5396 27.6494 10.6396 27.6394 10.7496C27.6294 10.8496 27.5394 10.9296 27.4394 10.9296L27.4494 10.9196Z" fill="#193B68"/>
<path d="M28.3599 12.4496C28.2599 12.4496 28.1799 12.3796 28.1699 12.2796C28.1599 12.1696 28.2299 12.0696 28.3399 12.0596C28.6099 12.0196 28.7999 11.9196 28.9299 11.7296C29.1799 11.3496 29.0799 10.7196 29.0199 10.4996C28.9899 10.3996 29.0499 10.2896 29.1599 10.2596C29.2699 10.2296 29.3699 10.2896 29.3999 10.3996C29.4099 10.4396 29.6599 11.3496 29.2599 11.9496C29.0699 12.2296 28.7799 12.3996 28.3999 12.4496C28.3999 12.4496 28.3799 12.4496 28.3699 12.4496H28.3599Z" fill="#193B68"/>
<path d="M39.0697 29.24L39.7797 15.31L38.5697 14.52C38.5697 14.52 28.5997 17.39 27.6797 17.98L32.5297 32.03L39.0597 29.23L39.0697 29.24Z" fill="white"/>
<path d="M32.5397 32.2298C32.5397 32.2298 32.4897 32.2298 32.4597 32.2098C32.4097 32.1898 32.3697 32.1498 32.3497 32.0898L27.4997 18.0398C27.4697 17.9498 27.4997 17.8598 27.5797 17.8098C28.5097 17.1998 38.1097 14.4398 38.5197 14.3198C38.5697 14.2998 38.6297 14.3198 38.6797 14.3398L39.8897 15.1298C39.9497 15.1698 39.9797 15.2298 39.9797 15.2998L39.2697 29.2298C39.2697 29.2998 39.2197 29.3698 39.1497 29.3998L32.6197 32.1998C32.6197 32.1998 32.5697 32.2198 32.5397 32.2198V32.2298ZM27.9297 18.0798L32.6597 31.7698L38.8797 29.1098L39.5797 15.4198L38.5397 14.7398C35.2397 15.6898 29.0897 17.5198 27.9297 18.0798Z" fill="#193B68"/>
<path d="M40.4998 15.04V30.04L27.5098 34.62V17.97C27.5098 17.97 40.7598 14.78 40.4998 15.04Z" fill="#00AAFF"/>
<path d="M16.0596 29.24L15.3496 15.31L16.5596 14.52C16.5596 14.52 26.5296 17.39 27.4496 17.98L22.5996 32.03L16.0696 29.23L16.0596 29.24Z" fill="white"/>
<path d="M22.5894 32.2298C22.5894 32.2298 22.5394 32.2298 22.5094 32.2098L15.9794 29.4098C15.9094 29.3798 15.8594 29.3098 15.8594 29.2398L15.1494 15.3098C15.1494 15.2398 15.1794 15.1698 15.2394 15.1398L16.4494 14.3498C16.4494 14.3498 16.5594 14.3098 16.6094 14.3298C17.0194 14.4498 26.6194 17.2098 27.5494 17.8198C27.6294 17.8698 27.6594 17.9598 27.6294 18.0498L22.7794 32.0998C22.7594 32.1498 22.7194 32.1898 22.6694 32.2198C22.6394 32.2298 22.6194 32.2398 22.5894 32.2398V32.2298ZM16.2494 29.0998L22.4694 31.7598L27.1994 18.0698C26.0394 17.5098 19.8894 15.6798 16.5894 14.7298L15.5494 15.4098L16.2494 29.0998Z" fill="#193B68"/>
<path d="M14.6298 15.04V30.04L27.6197 34.62V17.97C27.6197 17.97 14.3698 14.78 14.6298 15.04Z" fill="#00AAFF"/>
<path d="M26.3299 34.3698C26.2199 34.3698 26.1299 34.2798 26.1299 34.1698V18.2098C26.1299 18.0998 26.2199 18.0098 26.3299 18.0098C26.4399 18.0098 26.5299 18.0998 26.5299 18.2098V34.1698C26.5299 34.2798 26.4399 34.3698 26.3299 34.3698Z" fill="#193B68"/>
<path d="M28.6395 34.3698C28.5295 34.3698 28.4395 34.2798 28.4395 34.1698V18.2098C28.4395 18.0998 28.5295 18.0098 28.6395 18.0098C28.7495 18.0098 28.8395 18.0998 28.8395 18.2098V34.1698C28.8395 34.2798 28.7495 34.3698 28.6395 34.3698Z" fill="#193B68"/>
<path d="M35.1797 33.4597L41.3297 39.4997L46.2197 33.5897L38.0597 29.2197L35.1797 33.4597Z" fill="white"/>
<path d="M41.3299 39.6998C41.2799 39.6998 41.2299 39.6798 41.1899 39.6398L35.0398 33.5998C34.9698 33.5298 34.9599 33.4298 35.0199 33.3498L37.8999 29.1098C37.9599 29.0298 38.0698 28.9998 38.1598 29.0498L46.3199 33.4198C46.3699 33.4498 46.4098 33.4998 46.4198 33.5598C46.4298 33.6198 46.4199 33.6798 46.3799 33.7198L41.4999 39.6298C41.4999 39.6298 41.4098 39.6998 41.3598 39.6998C41.3598 39.6998 41.3598 39.6998 41.3498 39.6998H41.3299ZM35.4299 33.4398L41.3099 39.2198L45.8999 33.6598L38.1098 29.4798L35.4198 33.4398H35.4299Z" fill="#193B68"/>
<path d="M35.5801 30.1899L36.0201 30.7999C36.0201 30.7999 34.4401 32.3799 35.8901 33.9899C36.2501 34.3899 39.06 34.0599 39.92 33.0999C41.6 31.2399 43.5801 27.9099 42.1901 26.2999C40.8001 24.6899 38.2001 22.6299 38.2001 22.6299C38.2001 22.6299 37.04 23.7599 37.87 24.5999C39.03 25.7699 39.9501 27.2699 39.9501 27.2699L35.6401 24.9699C35.6401 24.9699 35.0501 25.6299 34.9001 26.4299C34.7501 27.2299 34.1701 28.3599 35.5701 30.1999L35.5801 30.1899Z" fill="white"/>
<path d="M39.9293 33.2997C39.9293 33.2997 39.8393 33.2797 39.7993 33.2497C39.7193 33.1797 39.7093 33.0597 39.7793 32.9697C40.9193 31.6097 43.4193 28.2497 42.0393 26.4097C40.9293 24.9197 38.7293 23.2797 38.1293 22.8397C37.9293 23.1397 37.5393 23.8297 37.9193 24.3397C38.1393 24.6297 38.4593 24.9797 38.8093 25.3597C39.4893 26.0897 40.1793 26.8497 40.2893 27.3897C40.3093 27.4997 40.2393 27.5997 40.1393 27.6197C40.0293 27.6397 39.9293 27.5697 39.9093 27.4697C39.8193 27.0397 39.1293 26.2897 38.5193 25.6197C38.1693 25.2397 37.8393 24.8797 37.6093 24.5697C36.9293 23.6597 37.8993 22.4897 37.9393 22.4397C38.0093 22.3597 38.1193 22.3497 38.1993 22.4097C38.3093 22.4897 41.0193 24.4097 42.3493 26.1797C42.9893 27.0397 43.5493 29.0897 40.0793 33.2297C40.0393 33.2797 39.9893 33.2997 39.9293 33.2997Z" fill="#193B68"/>
<path d="M41.3297 28.4397C41.3297 28.4397 41.2596 28.4397 41.2296 28.4097L35.7196 25.1297C35.5096 25.2897 35.0696 25.7197 35.3496 26.1897C35.3996 26.2797 35.3697 26.3997 35.2797 26.4597C35.1897 26.5197 35.0697 26.4797 35.0097 26.3897C34.5797 25.6497 35.2096 24.9797 35.5996 24.7297C35.6596 24.6897 35.7396 24.6897 35.8096 24.7297L41.4296 28.0697C41.5196 28.1297 41.5496 28.2497 41.4996 28.3397C41.4596 28.3997 41.3997 28.4397 41.3297 28.4397Z" fill="#193B68"/>
<path d="M39.1796 31.4998C39.1796 31.4998 39.0996 31.4898 39.0596 31.4598C38.8996 31.3398 35.1896 28.5098 34.6596 27.9598C34.0396 27.3198 34.6696 26.1498 34.6996 26.0998C34.7296 26.0498 34.7697 26.0198 34.8297 25.9998C34.8797 25.9898 34.9396 25.9998 34.9896 26.0298L40.5496 29.7198C40.6396 29.7798 40.6696 29.8998 40.6096 29.9898C40.5496 30.0798 40.4297 30.1098 40.3397 30.0498L34.9696 26.4898C34.8296 26.8298 34.6796 27.3998 34.9696 27.6898C35.4796 28.2198 39.2897 31.1198 39.3297 31.1498C39.4197 31.2198 39.4296 31.3398 39.3696 31.4298C39.3296 31.4798 39.2697 31.5098 39.2097 31.5098L39.1796 31.4998Z" fill="#193B68"/>
<path d="M37.9094 32.5499C37.9094 32.5499 37.8294 32.5399 37.7994 32.5199C37.6294 32.4099 33.7395 29.7599 34.6495 27.7999C34.6995 27.6999 34.8094 27.6599 34.9094 27.6999C35.0094 27.7499 35.0495 27.8599 35.0095 27.9599C34.3695 29.3299 36.9695 31.4699 38.0195 32.1799C38.1095 32.2399 38.1295 32.3599 38.0695 32.4499C38.0295 32.5099 37.9694 32.5399 37.9094 32.5399V32.5499Z" fill="#193B68"/>
<path d="M37.0594 34.3798C36.6494 34.3798 36.2395 34.3398 35.8795 34.2898C35.8295 34.2898 35.7895 34.2597 35.7595 34.2297C35.7495 34.2097 34.3095 32.5898 35.8395 30.7798C35.9095 30.6998 36.0294 30.6897 36.1194 30.7597C36.1994 30.8298 36.2095 30.9498 36.1395 31.0398C34.9595 32.4298 35.7995 33.6497 36.0095 33.9197C37.2595 34.0897 38.8894 34.0497 39.7894 32.9797C40.9294 31.6197 43.4294 28.2597 42.0494 26.4197C41.9794 26.3297 41.9995 26.2097 42.0895 26.1397C42.1795 26.0697 42.2994 26.0898 42.3694 26.1798C43.0094 27.0398 43.5694 29.0897 40.0994 33.2297C39.3494 34.1297 38.1695 34.3897 37.0695 34.3897L37.0594 34.3798Z" fill="#193B68"/>
<path d="M19.4904 33.1301L13.7205 39.5501L8.48047 33.9501L16.3504 29.0801L19.4904 33.1301Z" fill="white"/>
<path d="M13.7202 39.7398C13.6702 39.7398 13.6102 39.7198 13.5802 39.6798L8.34017 34.0898C8.34017 34.0898 8.28019 33.9898 8.29019 33.9298C8.29019 33.8698 8.33018 33.8198 8.38018 33.7898L16.2502 28.9198C16.3402 28.8698 16.4502 28.8898 16.5102 28.9698L19.6502 33.0198C19.7102 33.0998 19.7002 33.1998 19.6502 33.2698L13.8902 39.6798C13.8902 39.6798 13.8002 39.7398 13.7502 39.7498L13.7202 39.7398ZM8.79019 33.9898L13.7202 39.2498L19.2302 33.1198L16.3002 29.3398L8.79019 33.9898Z" fill="#193B68"/>
<path d="M18.88 29.8898L18.47 30.5298C18.47 30.5298 20.15 31.9998 18.79 33.7098C18.46 34.1298 15.63 33.9698 14.71 33.0798C12.92 31.3198 10.73 28.1298 12.03 26.4298C13.32 24.7298 15.7801 22.5098 15.7801 22.5098C15.7801 22.5098 17.01 23.5698 16.23 24.4498C15.15 25.6898 14.32 27.2498 14.32 27.2498L18.48 24.6798C18.48 24.6798 19.11 25.2998 19.31 26.0898C19.51 26.8798 20.16 27.9698 18.88 29.8898Z" fill="white"/>
<path d="M14.7198 33.2696C14.6698 33.2696 14.6198 33.2496 14.5798 33.2096C10.8598 29.2996 11.2898 27.2096 11.8698 26.3196C13.0798 24.4696 15.6698 22.3896 15.7798 22.2996C15.8598 22.2396 15.9698 22.2396 16.0398 22.3196C16.0798 22.3696 17.1298 23.4696 16.5098 24.4296C16.2998 24.7496 15.9898 25.1296 15.6698 25.5296C15.0998 26.2296 14.4598 27.0196 14.3998 27.4596C14.3898 27.5696 14.2898 27.6396 14.1798 27.6296C14.0698 27.6196 13.9998 27.5196 14.0098 27.4096C14.0898 26.8596 14.7398 26.0596 15.3598 25.2896C15.6798 24.8996 15.9798 24.5296 16.1798 24.2196C16.5298 23.6896 16.0998 23.0196 15.8798 22.7396C15.3098 23.2096 13.2198 24.9996 12.1998 26.5496C10.9398 28.4796 13.6398 31.6696 14.8598 32.9596C14.9298 33.0396 14.9298 33.1596 14.8598 33.2396C14.8198 33.2796 14.7698 33.2896 14.7198 33.2896V33.2696Z" fill="#193B68"/>
<path d="M13.0302 28.5096C12.9702 28.5096 12.9102 28.4796 12.8702 28.4196C12.8102 28.3296 12.8302 28.2096 12.9202 28.1496L18.3202 24.4596C18.3802 24.4196 18.4603 24.4096 18.5303 24.4596C18.9403 24.6896 19.6102 25.3196 19.2202 26.0796C19.1702 26.1796 19.0503 26.2196 18.9603 26.1696C18.8603 26.1196 18.8202 25.9996 18.8702 25.9096C19.1202 25.4196 18.6502 25.0196 18.4402 24.8796L13.1502 28.4896C13.1502 28.4896 13.0802 28.5196 13.0402 28.5196L13.0302 28.5096Z" fill="#193B68"/>
<path d="M15.3702 31.4298C15.3202 31.4298 15.2602 31.4098 15.2202 31.3598C15.1502 31.2798 15.1602 31.1498 15.2402 31.0798C15.2802 31.0498 18.9002 27.9098 19.3702 27.3498C19.6302 27.0398 19.4502 26.4898 19.2902 26.1498L14.1502 30.0398C14.0602 30.1098 13.9402 30.0898 13.8702 29.9998C13.8002 29.9098 13.8202 29.7898 13.9102 29.7198L19.2302 25.6898C19.2302 25.6898 19.3302 25.6398 19.3802 25.6498C19.4302 25.6498 19.4802 25.6898 19.5102 25.7398C19.5402 25.7898 20.2402 26.9098 19.6702 27.5898C19.1802 28.1698 15.6402 31.2298 15.4902 31.3598C15.4502 31.3898 15.4102 31.4098 15.3602 31.4098L15.3702 31.4298Z" fill="#193B68"/>
<path d="M16.7002 32.3995C16.6402 32.3995 16.5801 32.3695 16.5401 32.3195C16.4701 32.2295 16.4902 32.1095 16.5802 32.0395C17.5902 31.2695 20.0502 28.9695 19.3202 27.6395C19.2702 27.5395 19.3002 27.4295 19.4002 27.3695C19.5002 27.3195 19.6101 27.3495 19.6701 27.4495C20.7001 29.3395 16.9802 32.2295 16.8202 32.3495C16.7802 32.3795 16.7402 32.3895 16.7002 32.3895V32.3995Z" fill="#193B68"/>
<path d="M17.2698 34.1897C16.2898 34.1897 15.2898 33.9597 14.5798 33.2097C10.8598 29.2997 11.2898 27.2097 11.8698 26.3197C11.9298 26.2297 12.0498 26.1997 12.1398 26.2597C12.2298 26.3197 12.2598 26.4397 12.1998 26.5297C10.9398 28.4597 13.6398 31.6497 14.8598 32.9397C15.8198 33.9497 17.4598 33.8897 18.6898 33.6397C18.8798 33.3597 19.6398 32.0897 18.3798 30.7697C18.2998 30.6897 18.3098 30.5697 18.3798 30.4897C18.4598 30.4097 18.5798 30.4197 18.6598 30.4897C20.2998 32.1997 18.9598 33.9097 18.9498 33.9297C18.9198 33.9697 18.8798 33.9897 18.8398 33.9997C18.3598 34.0997 17.8098 34.1697 17.2598 34.1697L17.2698 34.1897Z" fill="#193B68"/>
</svg>
