<svg width="48" height="47" viewBox="0 0 48 47" fill="none" xmlns="http://www.w3.org/2000/svg">
<path d="M34.0488 22.7401L34.1688 23.1501C34.4688 24.1201 35.2988 24.8401 36.3088 24.9801L37.0988 25.0901L38.6989 25.3501C39.1889 25.4301 39.5888 24.9501 39.4088 24.4801C39.3288 24.2701 39.1388 24.1101 38.9188 24.0701L37.8889 23.8801L39.1088 22.3101L40.4188 22.1201C41.0888 22.0201 41.6288 21.5001 41.7288 20.8201L37.5388 20.5601L34.0488 22.7401Z" fill="white"/>
<path d="M38.8091 25.5499C38.8091 25.5499 38.7191 25.5499 38.6691 25.5399L37.0691 25.2799L36.2791 25.1699C35.1991 25.0199 34.2991 24.2399 33.9791 23.1999L33.8591 22.7899C33.8291 22.6999 33.8591 22.6099 33.9391 22.5699L37.4291 20.3899C37.4291 20.3899 37.5091 20.3599 37.5491 20.3599L41.7391 20.6199C41.7991 20.6199 41.8491 20.6499 41.8791 20.6899C41.9091 20.7299 41.9291 20.7899 41.9191 20.8399C41.7991 21.5999 41.2091 22.1899 40.4391 22.2999L39.2091 22.4799L38.2391 23.7299L38.9591 23.8599C39.2491 23.9099 39.4891 24.1199 39.5991 24.3999C39.7091 24.6899 39.6591 24.9999 39.4591 25.2399C39.2991 25.4399 39.0591 25.5499 38.8091 25.5499ZM34.2891 22.8199L34.3691 23.0799C34.6391 23.9799 35.4191 24.6399 36.3491 24.7799L37.1391 24.8899L38.7391 25.1499C38.8991 25.1799 39.0591 25.1199 39.1591 24.9899C39.2591 24.8599 39.2891 24.6999 39.2291 24.5399C39.1691 24.3899 39.0391 24.2799 38.8891 24.2499L37.8591 24.0599C37.7891 24.0499 37.7391 23.9999 37.7091 23.9399C37.6891 23.8799 37.6991 23.7999 37.7391 23.7499L38.9591 22.1799C38.9591 22.1799 39.0391 22.1099 39.0891 22.1099L40.3991 21.9199C40.9191 21.8499 41.3391 21.4899 41.4891 20.9999L37.5991 20.7599L34.2891 22.8299V22.8199Z" fill="#193B68"/>
<path d="M37.9795 21.17L40.5095 20.73L37.9795 21.17Z" fill="white"/>
<path d="M37.9795 21.3598C37.8895 21.3598 37.7995 21.2898 37.7895 21.1998C37.7695 21.0898 37.8396 20.9898 37.9496 20.9698L40.4795 20.5298C40.5895 20.5098 40.6896 20.5798 40.7096 20.6898C40.7296 20.7998 40.6595 20.8998 40.5495 20.9198L38.0196 21.3598C38.0196 21.3598 37.9995 21.3598 37.9895 21.3598H37.9795Z" fill="#193B68"/>
<path d="M38.3494 37.1899L34.7194 39.2699L32.3994 34.7199L36.0294 32.6299L38.3494 37.1899Z" fill="white"/>
<path d="M34.719 39.47C34.719 39.47 34.679 39.47 34.659 39.47C34.609 39.45 34.5691 39.42 34.5391 39.37L32.219 34.81C32.169 34.72 32.2091 34.6 32.2991 34.55L35.9291 32.46C35.9291 32.46 36.0291 32.43 36.0791 32.44C36.1291 32.46 36.1691 32.49 36.1991 32.54L38.5191 37.1C38.5691 37.19 38.5291 37.31 38.4391 37.36L34.8091 39.45C34.8091 39.45 34.7491 39.48 34.7091 39.48L34.719 39.47ZM32.659 34.79L34.7991 39L38.0891 37.11L35.9491 32.9L32.659 34.79Z" fill="#193B68"/>
<path d="M26.5297 31.37H22.3496L22.6096 26.75H26.7896L26.5297 31.37Z" fill="white"/>
<path d="M26.53 31.5698H22.34C22.29 31.5698 22.23 31.5498 22.2 31.5098C22.16 31.4698 22.14 31.4198 22.15 31.3598L22.41 26.7398C22.41 26.6398 22.5 26.5498 22.61 26.5498H26.8C26.85 26.5498 26.91 26.5698 26.94 26.6098C26.98 26.6498 27 26.6998 26.99 26.7598L26.73 31.3798C26.73 31.4798 26.64 31.5698 26.53 31.5698ZM22.55 31.1798H26.34L26.58 26.9498H22.79L22.55 31.1798Z" fill="#193B68"/>
<path d="M19.6395 9.46982C20.0295 9.85982 20.1895 10.2198 20.1695 10.4498C20.1695 10.4498 29.1895 16.3698 32.1995 15.0498C34.6395 13.9798 32.8695 11.8298 32.2495 11.5398C31.0995 10.9998 31.0395 10.9198 31.8695 9.75981C32.6895 8.59981 33.6195 8.00981 31.7495 7.39981C30.4295 6.96981 30.4495 6.54981 30.7295 4.97981C30.9995 3.41981 28.6195 2.67982 27.6595 2.88982C26.6995 3.09982 27.7895 2.27981 27.0295 1.89981C26.2695 1.51981 25.9595 1.94982 25.7495 2.24982C25.5395 2.55982 23.8295 2.31982 23.2195 3.45982C22.6195 4.59982 21.2995 4.16981 21.3195 6.28981C21.3495 8.41981 20.8495 7.45981 20.2695 7.53981C19.6895 7.61981 18.8295 8.62981 19.6395 9.44981V9.46982Z" fill="#193B68"/>
<path d="M16.9396 16.9799L19.9896 13.1399L12.1396 12.1799L19.9196 9.41995C20.9196 9.05995 22.0096 9.07995 22.9996 9.46995L27.0096 11.05C27.7196 11.33 28.3396 11.79 28.8196 12.38L37.0696 22.3699L36.9996 22.49C36.4296 23.4 35.3097 23.8199 34.2797 23.5099L26.7797 16.5299L26.1696 19.2299L16.9296 16.96L16.9396 16.9799Z" fill="white"/>
<path d="M34.9797 23.8201C34.7297 23.8201 34.4797 23.7801 34.2397 23.7101C34.2097 23.7101 34.1797 23.6901 34.1597 23.6701L26.9097 16.9301L26.3697 19.3001C26.3597 19.3501 26.3298 19.4001 26.2798 19.4201C26.2398 19.4501 26.1797 19.4601 26.1297 19.4401L16.8898 17.1701C16.8198 17.1501 16.7697 17.1101 16.7497 17.0401C16.7297 16.9801 16.7498 16.9101 16.7798 16.8501L19.6097 13.2901L12.1097 12.3701C12.0197 12.3601 11.9497 12.2901 11.9397 12.2001C11.9297 12.1101 11.9797 12.0201 12.0697 11.9901L19.8497 9.23007C20.8897 8.86007 22.0397 8.88006 23.0697 9.29006L27.0798 10.8701C27.8198 11.1601 28.4697 11.6401 28.9697 12.2601L37.2197 22.2501C37.2697 22.3201 37.2797 22.4101 37.2297 22.4801L37.1597 22.6001C36.6797 23.3701 35.8398 23.8101 34.9598 23.8101L34.9797 23.8201ZM34.3998 23.3501C35.3298 23.6101 36.3297 23.2201 36.8497 22.4101L28.6897 12.5301C28.2297 11.9601 27.6298 11.5201 26.9598 11.2501L22.9497 9.67007C22.0097 9.30007 20.9597 9.28007 20.0097 9.62007L13.0198 12.1001L20.0397 12.9601C20.1097 12.9601 20.1697 13.0101 20.1997 13.0801C20.2297 13.1501 20.2197 13.2201 20.1697 13.2801L17.3097 16.8801L26.0597 19.0301L26.6297 16.5201C26.6497 16.4501 26.6997 16.4001 26.7597 16.3801C26.8297 16.3601 26.8997 16.3801 26.9497 16.4201L34.4197 23.3601L34.3998 23.3501Z" fill="#193B68"/>
<path d="M25.0098 21.3003L26.2197 21.6603C28.0197 22.1903 29.6097 23.2903 30.7397 24.7903L38.4797 35.0403H38.4398C36.6998 34.9603 34.9898 35.5203 33.6398 36.6203L32.5997 37.4603L26.3198 26.1403L25.0098 21.3003Z" fill="white"/>
<path d="M32.5895 37.6502C32.5895 37.6502 32.5694 37.6502 32.5494 37.6502C32.4894 37.6402 32.4394 37.6002 32.4194 37.5502L26.1394 26.2302C26.1394 26.2302 26.1294 26.2002 26.1194 26.1902L24.8094 21.3502C24.7894 21.2802 24.8094 21.2102 24.8594 21.1602C24.9094 21.1102 24.9894 21.0902 25.0494 21.1102L26.2594 21.4702C28.0894 22.0102 29.7294 23.1502 30.8794 24.6702L38.6194 34.9202C38.6694 34.9802 38.6694 35.0602 38.6394 35.1302C38.5994 35.2002 38.5294 35.2402 38.4594 35.2302H38.4194C36.7194 35.1502 35.0694 35.6902 33.7494 36.7602L32.7094 37.6002C32.7094 37.6002 32.6295 37.6402 32.5895 37.6402V37.6502ZM26.4894 26.0602L32.6394 37.1502L33.4994 36.4502C34.7994 35.4002 36.4094 34.8202 38.0694 34.8202L30.5794 24.9002C29.4794 23.4402 27.9094 22.3602 26.1594 21.8402L25.2894 21.5802L26.4994 26.0602H26.4894Z" fill="#193B68"/>
<path d="M21.4091 29.1501L22.8291 28.4201C23.9891 27.8301 25.2991 27.6301 26.5791 27.8601L27.5591 28.0301L26.2691 18.1001C26.0291 16.2601 24.0991 15.1601 22.3891 15.9001L19.4391 17.1801H16.7591L15.4291 18.5501C12.8491 21.1901 14.8492 25.6101 18.5292 25.4301L21.0791 24.5801L21.4091 29.1601V29.1501Z" fill="white"/>
<path d="M21.4092 29.3399C21.4092 29.3399 21.3393 29.3399 21.3093 29.3099C21.2493 29.2799 21.2193 29.2199 21.2093 29.1499L20.8993 24.8199L18.5893 25.5899C18.5893 25.5899 18.5592 25.5899 18.5392 25.5899C16.7492 25.6799 15.1893 24.7199 14.4493 23.0899C13.7193 21.4599 14.0293 19.6499 15.2793 18.3799L16.6093 17.0099C16.6093 17.0099 16.6993 16.9499 16.7493 16.9499H19.3893L22.2993 15.6899C23.1693 15.3099 24.1393 15.3699 24.9593 15.8299C25.7793 16.2999 26.3193 17.0999 26.4493 18.0399L27.7393 27.9699C27.7393 28.0299 27.7293 28.0899 27.6793 28.1399C27.6293 28.1799 27.5693 28.1999 27.5093 28.1899L26.5293 28.0199C25.2993 27.7999 24.0192 27.9899 22.9092 28.5599L21.4893 29.2899C21.4893 29.2899 21.4293 29.3099 21.3993 29.3099L21.4092 29.3399ZM21.0793 24.3699C21.0793 24.3699 21.1593 24.3799 21.1893 24.3999C21.2393 24.4299 21.2693 24.4899 21.2793 24.5499L21.5893 28.8299L22.7493 28.2399C23.9393 27.6299 25.3093 27.4299 26.6193 27.6599L27.3293 27.7899L26.0793 18.1199C25.9693 17.2999 25.4992 16.5999 24.7892 16.1999C24.0792 15.7899 23.2292 15.7499 22.4792 16.0799L19.5293 17.3599C19.5293 17.3599 19.4793 17.3799 19.4493 17.3799H16.8492L15.5693 18.6899C14.4393 19.8499 14.1493 21.4899 14.8093 22.9699C15.4693 24.4399 16.8793 25.2999 18.4893 25.2399L21.0193 24.3999C21.0193 24.3999 21.0593 24.3899 21.0793 24.3899V24.3699Z" fill="#193B68"/>
<path d="M21.079 24.7598C20.969 24.7598 20.889 24.6798 20.879 24.5698L20.749 19.7298C20.749 19.6198 20.829 19.5298 20.939 19.5298C21.049 19.5298 21.139 19.6098 21.139 19.7198L21.269 24.5598C21.269 24.6698 21.189 24.7598 21.079 24.7598Z" fill="#193B68"/>
<path d="M16.4395 18.6799C16.3595 18.6799 16.2895 18.6399 16.2595 18.5599C16.2195 18.4599 16.2594 18.3399 16.3594 18.2999L19.3695 16.9899C19.4695 16.9499 19.5895 16.9899 19.6295 17.0899C19.6695 17.1899 19.6295 17.3099 19.5295 17.3499L16.5195 18.6599C16.5195 18.6599 16.4695 18.6799 16.4395 18.6799Z" fill="#193B68"/>
<path d="M27.576 7.87077C28.8852 6.40392 28.7575 4.15348 27.2906 2.84427C25.8238 1.53505 23.5733 1.66283 22.2641 3.12968C20.9549 4.59653 21.0827 6.84698 22.5495 8.15619C24.0164 9.4654 26.2668 9.33762 27.576 7.87077Z" fill="#193B68"/>
<path d="M28.8094 7.56995C28.6694 7.50995 28.5194 7.48994 28.3794 7.49994C28.9494 6.15994 28.5194 4.57995 27.2994 3.73995C25.8994 2.76995 23.9793 3.16993 22.9793 4.53993L22.4693 5.24994C21.5693 6.48994 22.0494 8.23995 23.4494 8.84995L23.7094 8.95995L23.5494 9.69994C23.3694 10.5299 23.8893 11.3499 24.7193 11.5299L25.2594 11.6499C25.9894 11.8099 26.6994 11.3499 26.8594 10.6299L27.0794 9.61994C27.3194 9.45994 27.5293 9.23995 27.6693 8.95995L27.6894 8.90994C27.7794 9.04994 27.9194 9.16994 28.0794 9.24994C28.5394 9.45994 29.0793 9.24993 29.2893 8.78993C29.4893 8.32993 29.2694 7.76995 28.8094 7.56995Z" fill="white"/>
<path d="M25.5498 11.8698C25.4398 11.8698 25.3298 11.8598 25.2098 11.8298L24.6698 11.7098C24.2198 11.6098 23.8298 11.3398 23.5798 10.9498C23.3298 10.5598 23.2498 10.0998 23.3498 9.63981L23.4798 9.0598L23.3698 9.0098C22.6498 8.6898 22.1098 8.07981 21.8998 7.31981C21.6898 6.55981 21.8398 5.7498 22.2998 5.1198L22.8098 4.40981C23.8798 2.92981 25.9398 2.5498 27.3998 3.5598C28.6098 4.3898 29.1098 5.92981 28.6498 7.29981C28.7298 7.30981 28.7998 7.3398 28.8798 7.3698C29.1498 7.4798 29.3698 7.70981 29.4798 7.98981C29.5898 8.26981 29.5897 8.57981 29.4697 8.84981C29.2197 9.40981 28.5598 9.65981 27.9998 9.40981C27.8998 9.35981 27.8097 9.2998 27.7197 9.2298C27.5897 9.4198 27.4298 9.57981 27.2498 9.71981L27.0498 10.6498C26.9598 11.0498 26.7198 11.3998 26.3698 11.6198C26.1198 11.7798 25.8298 11.8598 25.5398 11.8598L25.5498 11.8698ZM25.5798 3.3998C24.6498 3.3998 23.7298 3.8398 23.1398 4.6498L22.6298 5.35981C22.2398 5.89981 22.1098 6.5798 22.2898 7.2298C22.4698 7.8798 22.9198 8.3998 23.5298 8.6698L23.7898 8.77981C23.8798 8.81981 23.9198 8.90981 23.8998 8.99981L23.7398 9.73981C23.6598 10.0898 23.7298 10.4498 23.9198 10.7498C24.1098 11.0498 24.4098 11.2598 24.7598 11.3398L25.2998 11.4598C25.9198 11.5998 26.5298 11.1998 26.6698 10.5898L26.8898 9.57981C26.8998 9.52981 26.9298 9.48981 26.9798 9.45981C27.1998 9.31981 27.3798 9.11981 27.4998 8.87981L27.5198 8.82981C27.5498 8.76981 27.6098 8.72981 27.6798 8.71981C27.7498 8.71981 27.8198 8.7498 27.8598 8.8098C27.9398 8.9298 28.0398 9.01981 28.1698 9.06981C28.5298 9.22981 28.9598 9.06981 29.1198 8.70981C29.1998 8.53981 29.1998 8.33981 29.1198 8.15981C29.0498 7.97981 28.9098 7.8298 28.7398 7.7598C28.6298 7.7098 28.5198 7.69981 28.3998 7.70981C28.3298 7.70981 28.2597 7.68981 28.2197 7.62981C28.1797 7.56981 28.1698 7.49981 28.1998 7.43981C28.7398 6.17981 28.3098 4.6998 27.1798 3.9198C26.6898 3.5798 26.1298 3.4198 25.5698 3.4198L25.5798 3.3998Z" fill="#193B68"/>
<path d="M28 8.66001C28 8.66001 27.95 8.66001 27.92 8.64001C27.82 8.60001 27.78 8.48002 27.82 8.38002C28.02 7.94002 28.53 7.74001 28.97 7.94001C29.07 7.98001 29.11 8.10001 29.07 8.20001C29.03 8.30001 28.91 8.34001 28.81 8.30001C28.57 8.19001 28.29 8.3 28.18 8.54C28.15 8.61 28.08 8.66001 28 8.66001Z" fill="#193B68"/>
<path d="M24.1292 5.73995C24.0692 5.73995 24.0091 5.70994 23.9691 5.65994C23.9091 5.56994 23.9292 5.44994 24.0092 5.38994L24.6292 4.93994C24.7692 4.83994 24.8592 4.67994 24.8792 4.49994C24.8892 4.31994 24.8292 4.14994 24.7092 4.02994C24.7092 4.02994 24.6992 4.01993 24.6992 4.00993C24.6992 4.00993 24.4891 3.76994 23.9691 3.87994C23.8591 3.89994 23.7592 3.83994 23.7392 3.72994C23.7192 3.61994 23.7792 3.51994 23.8892 3.49994C24.5992 3.33994 24.9392 3.68993 25.0092 3.75993C25.2092 3.96993 25.3092 4.24993 25.2792 4.53993C25.2592 4.82993 25.1092 5.08993 24.8692 5.25993L24.2492 5.70995C24.2492 5.70995 24.1692 5.74994 24.1292 5.74994V5.73995Z" fill="#193B68"/>
<path d="M26.6194 5.77986C26.4794 5.89986 26.3094 5.89986 26.2394 5.78986C26.1694 5.67986 26.2394 5.48987 26.3794 5.37987C26.5194 5.25987 26.6894 5.25986 26.7594 5.36986C26.8294 5.47986 26.7594 5.66986 26.6194 5.77986Z" fill="#193B68"/>
<path d="M24.2395 4.64001C24.0995 4.76001 23.9295 4.76001 23.8595 4.65001C23.7895 4.54001 23.8595 4.35002 23.9995 4.24002C24.1395 4.13002 24.3095 4.12001 24.3795 4.23001C24.4495 4.34001 24.3795 4.53001 24.2395 4.64001Z" fill="#193B68"/>
<path d="M23.6992 6.31982L25.3792 6.69981C25.3792 6.69981 24.0492 8.44982 23.6992 6.31982Z" fill="white"/>
<path d="M24.3896 7.56999C24.3396 7.56999 24.2796 7.56999 24.2296 7.54999C23.8596 7.45999 23.6196 7.05999 23.4996 6.34999C23.4896 6.28999 23.5096 6.21998 23.5596 6.17998C23.6096 6.13998 23.6696 6.11999 23.7396 6.12999L25.4196 6.50998C25.4896 6.51998 25.5396 6.56999 25.5596 6.62999C25.5796 6.68999 25.5696 6.75999 25.5296 6.81999C25.4696 6.89999 24.9396 7.56999 24.3796 7.56999H24.3896ZM23.9496 6.57999C24.0396 6.92999 24.1696 7.12998 24.3196 7.16998C24.5196 7.21998 24.7996 7.01999 24.9996 6.81999L23.9496 6.57999Z" fill="#193B68"/>
<path d="M28.4293 7.37988C28.8993 6.13988 28.5293 4.72988 27.4993 3.87988C27.1593 5.05988 27.5393 6.35988 28.4293 7.37988Z" fill="#193B68"/>
<path d="M27.5894 6.0898C27.4894 6.0898 27.3994 6.0098 27.3894 5.9098C27.3094 5.0398 26.3594 4.73979 26.3194 4.72979C26.2194 4.69979 26.1594 4.5898 26.1894 4.4898C26.2194 4.3898 26.3294 4.3298 26.4294 4.3598C26.4794 4.3798 27.6694 4.7398 27.7794 5.8798C27.7794 5.9898 27.7094 6.0798 27.5994 6.0898C27.5994 6.0898 27.5894 6.0898 27.5794 6.0898H27.5894Z" fill="#193B68"/>
<path d="M24.1293 9.18013C23.9693 9.18013 23.8092 9.18013 23.6692 9.15013C23.5592 9.13013 23.4893 9.03014 23.5093 8.92014C23.5293 8.81014 23.6292 8.74013 23.7392 8.76013C24.3292 8.86013 25.4293 8.65014 25.4393 8.64014C25.5493 8.62014 25.6492 8.69013 25.6692 8.79013C25.6892 8.90013 25.6193 9.00014 25.5193 9.02014C25.4793 9.02014 24.7593 9.17014 24.1293 9.17014V9.18013Z" fill="#193B68"/>
<path d="M22.6698 30.8697L25.1598 29.6597C26.2898 29.1097 27.5598 29.1297 28.6698 29.7197C29.4598 30.1397 29.3999 31.4697 28.5799 31.7897L23.9499 33.5797C23.6299 33.6997 23.2799 33.6197 23.0299 33.3597L22.4198 32.7397C21.8898 32.1997 22.0298 31.1897 22.6798 30.8697H22.6698Z" fill="#193B68"/>
<path d="M27.3991 14.4502L26.7891 16.5402L27.3991 14.4502Z" fill="white"/>
<path d="M26.7895 16.7402C26.7895 16.7402 26.7496 16.7402 26.7296 16.7402C26.6296 16.7102 26.5695 16.6002 26.5995 16.5002L27.2096 14.4102C27.2396 14.3102 27.3496 14.2502 27.4496 14.2802C27.5496 14.3102 27.6096 14.4202 27.5796 14.5202L26.9695 16.6102C26.9495 16.7002 26.8696 16.7502 26.7796 16.7502L26.7895 16.7402Z" fill="#193B68"/>
<path d="M20.3799 12.02L21.2299 10.75L21.3499 10.84C21.5699 11 21.6699 11.29 21.5899 11.56L20.3799 12.02Z" fill="white"/>
<path d="M20.3799 12.2198C20.3799 12.2198 20.2999 12.2098 20.2699 12.1898C20.1799 12.1298 20.1598 12.0098 20.2198 11.9198L21.0699 10.6498C21.0699 10.6498 21.1499 10.5698 21.1999 10.5698C21.2499 10.5698 21.3098 10.5698 21.3498 10.6098L21.4698 10.6998C21.7598 10.9098 21.8899 11.2898 21.7799 11.6298C21.7499 11.7298 21.6398 11.7898 21.5398 11.7598C21.4398 11.7298 21.3798 11.6198 21.4098 11.5198C21.4598 11.3498 21.4099 11.1698 21.2799 11.0498L20.5498 12.1398C20.5098 12.1998 20.4499 12.2298 20.3899 12.2298L20.3799 12.2198Z" fill="#193B68"/>
<path d="M20.6894 12.0098H12.8794C11.9794 12.0098 11.2294 12.7198 11.1894 13.6198C11.1394 14.6798 12.0694 15.5298 13.1194 15.3798L20.4294 14.3298C20.9894 14.2498 21.5094 13.9798 21.9094 13.5798L22.6394 12.8298H23.1994C23.6494 12.8298 23.9594 12.3698 23.7994 11.9498L23.6494 11.5798L21.8194 11.3198L20.6894 12.0198V12.0098Z" fill="white"/>
<path d="M12.8795 15.5899C12.4095 15.5899 11.9595 15.4199 11.6095 15.0999C11.1895 14.7199 10.9695 14.1799 10.9895 13.6099C11.0395 12.5999 11.8695 11.8099 12.8795 11.8099H20.6295L21.7195 11.1399C21.7195 11.1399 21.8095 11.1099 21.8495 11.1099L23.6795 11.3699C23.7495 11.3699 23.8096 11.4299 23.8296 11.4899L23.9795 11.8599C24.0795 12.1199 24.0496 12.4099 23.8996 12.6399C23.7396 12.8699 23.4796 13.0099 23.2096 13.0099H22.7395L22.0696 13.6999C21.6396 14.1399 21.0795 14.4199 20.4795 14.5099L13.1695 15.5599C13.0795 15.5699 12.9896 15.5799 12.8996 15.5799L12.8795 15.5899ZM12.8795 12.1999C12.0795 12.1999 11.4196 12.8299 11.3896 13.6199C11.3696 14.0699 11.5495 14.4999 11.8795 14.7999C12.2095 15.0999 12.6595 15.2399 13.0995 15.1699L20.4095 14.1199C20.9295 14.0499 21.4096 13.7999 21.7796 13.4199L22.5096 12.6699C22.5096 12.6699 22.5996 12.6099 22.6496 12.6099H23.2096C23.3596 12.6099 23.4896 12.5399 23.5796 12.4099C23.6596 12.2899 23.6795 12.1299 23.6195 11.9999L23.5096 11.7299L21.8595 11.4899L20.7895 12.1499C20.7895 12.1499 20.7195 12.1799 20.6895 12.1799H12.8795V12.1999Z" fill="#193B68"/>
<path d="M23.7998 12.3102H22.2498C22.1398 12.3102 22.0498 12.2202 22.0498 12.1102C22.0498 12.0002 22.1398 11.9102 22.2498 11.9102H23.7998C23.9098 11.9102 23.9998 12.0002 23.9998 12.1102C23.9998 12.2202 23.9098 12.3102 23.7998 12.3102Z" fill="#193B68"/>
<path d="M37.6497 35.9899L37.1397 37.1199C35.9997 37.4299 33.4597 37.6499 34.5097 39.2199L34.5497 39.3899C34.8197 39.9599 34.8797 40.1399 35.6697 39.8799L40.1097 38.3699C40.4097 38.2699 40.6397 38.0499 40.6897 37.7999L40.8297 37.1899C40.9497 36.6599 38.3097 35.8199 37.6497 35.9999V35.9899Z" fill="#193B68"/>
<path d="M46.5297 45.0203L46.5496 42.4903L42.4396 39.9703C41.6296 39.4703 40.6196 39.4003 39.7496 39.7803L39.1696 38.6703C38.9196 38.2003 38.5497 37.8003 38.0897 37.5203L25.7097 30.0903L2.24963 35.8503L1.63965 37.4203L23.9696 43.2603L46.5396 45.0003L46.5297 45.0203Z" fill="white"/>
<path d="M46.5293 45.2202C46.5293 45.2202 46.5193 45.2202 46.5093 45.2202L23.9392 43.4802C23.9392 43.4802 23.9192 43.4802 23.9092 43.4802L1.57926 37.6402C1.52926 37.6302 1.47926 37.5902 1.44926 37.5402C1.41926 37.4902 1.41926 37.4302 1.44926 37.3802L2.05924 35.8102C2.07924 35.7502 2.12926 35.7102 2.19926 35.6902L25.6592 29.9302C25.7092 29.9202 25.7592 29.9302 25.8092 29.9502L38.1892 37.3802C38.6792 37.6702 39.0792 38.1002 39.3492 38.6102L39.8492 39.5602C40.7392 39.2302 41.7392 39.3302 42.5592 39.8302L46.6692 42.3502C46.7292 42.3902 46.7593 42.4502 46.7593 42.5202L46.7392 45.0502C46.7392 45.1002 46.7192 45.1602 46.6792 45.1902C46.6392 45.2202 46.5992 45.2402 46.5492 45.2402L46.5293 45.2202ZM23.9992 43.0802L46.3393 44.8102L46.3592 42.6002L42.3492 40.1402C41.5892 39.6802 40.6493 39.6102 39.8393 39.9702C39.7493 40.0102 39.6293 39.9702 39.5893 39.8802L39.0093 38.7702C38.7793 38.3302 38.4292 37.9602 37.9992 37.7002L25.6892 30.3102L2.40922 36.0202L1.91923 37.2902L24.0193 43.0702L23.9992 43.0802Z" fill="#193B68"/>
<path d="M47.1596 45.1902C46.6396 44.6702 25.0096 32.2002 25.0096 32.2002L0.849609 37.7802L20.8196 46.5002L47.1596 45.1902Z" fill="#00AAFF"/>
<path d="M15.2398 44.34C15.1398 44.34 15.0598 44.27 15.0498 44.17C15.0398 44.06 15.1098 43.96 15.2198 43.95L38.4198 40.81C38.5298 40.8 38.6298 40.87 38.6398 40.98C38.6498 41.09 38.5798 41.19 38.4698 41.2L15.2698 44.34C15.2698 44.34 15.2498 44.34 15.2398 44.34Z" fill="#193B68"/>
</svg>
