<svg width="20" height="20" viewBox="0 0 20 20" fill="none" xmlns="http://www.w3.org/2000/svg">
<path d="M10 15.8V17.8" stroke="#74767B" stroke-width="1.2" stroke-linecap="round"/>
<path d="M4.19995 10L2.19995 10" stroke="#74767B" stroke-width="1.2" stroke-linecap="round"/>
<path d="M17.8 10L15.8 10" stroke="#74767B" stroke-width="1.2" stroke-linecap="round"/>
<path d="M10 2.2V4.2" stroke="#74767B" stroke-width="1.2" stroke-linecap="round"/>
<path d="M10 10L4 4" stroke="#74767B" stroke-width="1.2" stroke-linecap="round"/>
<path d="M3.91888 3.91888C2.51198 5.32578 1.63643 7.17698 1.44141 9.15705C1.24639 11.1371 1.74397 13.1236 2.84936 14.7779C3.95475 16.4322 5.59957 17.6521 7.50355 18.2297C9.40753 18.8073 11.4529 18.7068 13.2911 17.9454C15.1293 17.184 16.6466 15.8087 17.5845 14.054C18.5224 12.2993 18.8229 10.2736 18.4348 8.32222C18.0466 6.3708 16.9938 4.61433 15.4558 3.35211C13.9178 2.08989 11.9897 1.4 10 1.4" stroke="#74767B" stroke-width="1.2" stroke-linecap="round"/>
</svg>
