<svg width="25" height="25" viewBox="0 0 25 25" fill="none" xmlns="http://www.w3.org/2000/svg">
<path d="M16.7969 7.61719V6.44531C16.7969 6.33789 16.709 6.25 16.6016 6.25H7.22656C7.11914 6.25 7.03125 6.33789 7.03125 6.44531V7.61719C7.03125 7.72461 7.11914 7.8125 7.22656 7.8125H16.6016C16.709 7.8125 16.7969 7.72461 16.7969 7.61719ZM7.22656 9.76562C7.11914 9.76562 7.03125 9.85352 7.03125 9.96094V11.1328C7.03125 11.2402 7.11914 11.3281 7.22656 11.3281H11.7188C11.8262 11.3281 11.9141 11.2402 11.9141 11.1328V9.96094C11.9141 9.85352 11.8262 9.76562 11.7188 9.76562H7.22656ZM16.4062 12.5977C13.4937 12.5977 11.1328 14.9585 11.1328 17.8711C11.1328 20.7837 13.4937 23.1445 16.4062 23.1445C19.3188 23.1445 21.6797 20.7837 21.6797 17.8711C21.6797 14.9585 19.3188 12.5977 16.4062 12.5977ZM19.0308 20.4956C18.3301 21.1963 17.3975 21.582 16.4062 21.582C15.415 21.582 14.4824 21.1963 13.7817 20.4956C13.0811 19.7949 12.6953 18.8623 12.6953 17.8711C12.6953 16.8799 13.0811 15.9473 13.7817 15.2466C14.4824 14.5459 15.415 14.1602 16.4062 14.1602C17.3975 14.1602 18.3301 14.5459 19.0308 15.2466C19.7314 15.9473 20.1172 16.8799 20.1172 17.8711C20.1172 18.8623 19.7314 19.7949 19.0308 20.4956ZM18.5791 16.0156H17.4976C17.4341 16.0156 17.3755 16.0449 17.3389 16.0962L15.7886 18.2397L15.2246 17.4609C15.2065 17.4358 15.1827 17.4153 15.1551 17.4013C15.1275 17.3873 15.0969 17.3801 15.0659 17.3804H13.9893C13.8306 17.3804 13.7378 17.561 13.8306 17.6904L15.6323 20.1831C15.7104 20.2905 15.8691 20.2905 15.9473 20.1831L18.7354 16.3257C18.8306 16.1963 18.7378 16.0156 18.5791 16.0156ZM10.7422 20.8008H5.07812V3.61328H18.75V12.0117C18.75 12.1191 18.8379 12.207 18.9453 12.207H20.3125C20.4199 12.207 20.5078 12.1191 20.5078 12.0117V2.63672C20.5078 2.20459 20.1587 1.85547 19.7266 1.85547H4.10156C3.66943 1.85547 3.32031 2.20459 3.32031 2.63672V21.7773C3.32031 22.2095 3.66943 22.5586 4.10156 22.5586H10.7422C10.8496 22.5586 10.9375 22.4707 10.9375 22.3633V20.9961C10.9375 20.8887 10.8496 20.8008 10.7422 20.8008Z" fill="white"/>
</svg>
