<svg width="81" height="71" viewBox="0 0 81 71" fill="none" xmlns="http://www.w3.org/2000/svg">
<path d="M42.0886 16.6111C41.9265 17.1546 42.2361 17.7258 42.7793 17.8878L42.8868 17.9199L42.8915 17.9145C43.401 18.0067 43.9063 17.7017 44.056 17.1963C45.4201 12.613 49.7174 9.41119 54.5053 9.41119C55.0721 9.41119 55.5318 8.95145 55.5318 8.38463C55.5318 7.81779 55.0721 7.35808 54.5053 7.35808C48.6211 7.35808 43.6763 11.2758 42.0886 16.6111ZM42.0886 16.6111L42.256 16.661M42.0886 16.6111C42.0886 16.6111 42.0886 16.6112 42.0886 16.6112L42.256 16.661M42.256 16.661C42.1215 17.1119 42.3783 17.586 42.8292 17.7204L42.256 16.661Z" fill="#483EA8" stroke="#F9FFF9" stroke-width="0.349272"/>
<path d="M66.4312 50.1283H61.3198C60.8494 50.1283 60.4679 49.7467 60.4679 49.2764C60.4679 48.806 60.8494 48.4244 61.3198 48.4244H66.4312C73.4771 48.4244 79.2099 42.6916 79.2099 35.6458C79.2099 28.5999 73.4771 22.8671 66.4312 22.8671H66.3083C66.0612 22.8671 65.8263 22.76 65.6645 22.5732C65.5026 22.3864 65.4296 22.1387 65.4649 21.8941C65.541 21.3635 65.5793 20.8305 65.5793 20.3114C65.5793 14.2051 60.6108 9.23651 54.5044 9.23651C52.1288 9.23651 49.8633 9.97889 47.9525 11.3839C47.5326 11.6924 46.9363 11.5555 46.6935 11.0937C41.2821 0.78923 27.148 -0.594549 19.8202 8.3694C16.7333 12.1458 15.5204 17.0583 16.4923 21.8461C16.5994 22.3749 16.1947 22.8678 15.6574 22.8678H15.3161C8.2702 22.8678 2.5374 28.6006 2.5374 35.6464C2.5374 42.6923 8.2702 48.4251 15.3161 48.4251H20.4275C20.8978 48.4251 21.2794 48.8066 21.2794 49.277C21.2794 49.7474 20.8978 50.1289 20.4275 50.1289H15.3161C7.33054 50.1289 0.833496 43.6319 0.833496 35.6464C0.833496 27.8849 6.97085 21.5296 14.6473 21.1791C13.9262 16.2118 15.3051 11.2013 18.5009 7.29114C26.3464 -2.30683 41.3817 -1.23103 47.7374 9.47141C49.765 8.20023 52.0852 7.53337 54.5041 7.53337C61.9023 7.53337 67.7648 13.8302 67.2518 21.187C74.8575 21.6136 80.9134 27.9354 80.9134 35.6458C80.9134 43.6319 74.4167 50.1283 66.4312 50.1283Z" fill="#483EA8"/>
<path d="M40.7599 70.0931C29.0163 70.0931 19.4619 60.5389 19.4619 48.7951C19.4619 37.0514 29.0161 27.4971 40.7599 27.4971C52.5038 27.4971 62.058 37.0513 62.058 48.7951C62.058 60.5388 52.5038 70.0931 40.7599 70.0931ZM40.7599 29.2013C29.9559 29.2013 21.1661 37.9912 21.1661 48.7951C21.1661 59.5991 29.9561 68.3889 40.7599 68.3889C51.5638 68.3889 60.3537 59.5989 60.3537 48.7951C60.3537 37.9911 51.5638 29.2013 40.7599 29.2013Z" fill="#483EA8"/>
<path d="M40.3508 57.3692C40.3508 57.81 40.7083 58.1676 41.1491 58.1676C41.5898 58.1676 41.9474 57.8106 41.9474 57.3692V41.153C41.9474 40.7122 41.5899 40.3547 41.1491 40.3547C40.7083 40.3547 40.3508 40.7122 40.3508 41.153V57.3692Z" fill="#483EA8" stroke="#483EA8" stroke-width="0.349272"/>
<path d="M41.149 42.2836L36.7241 46.7085L41.149 42.2836ZM41.149 42.2836L45.574 46.7086C45.7297 46.8643 45.9346 46.9424 46.1385 46.9424L41.149 42.2836ZM35.5949 46.7086C35.9067 47.0204 36.4124 47.0206 36.724 46.7086L40.5843 40.5901L35.5949 45.5796C35.283 45.8914 35.283 46.3967 35.5949 46.7086ZM41.7135 40.59C41.4017 40.2783 40.896 40.2781 40.5844 40.59L46.1385 46.9424C46.3421 46.9424 46.5472 46.865 46.7031 46.7085C47.0149 46.3966 47.0149 45.8914 46.703 45.5796L41.7135 40.59Z" fill="#483EA8" stroke="#483EA8" stroke-width="0.349272"/>
</svg>
