<svg width="28" height="28" viewBox="0 0 28 28" fill="none" xmlns="http://www.w3.org/2000/svg">
<path fill-rule="evenodd" clip-rule="evenodd" d="M13.9999 1.45801C12.5302 1.45801 11.1206 2.04186 10.0814 3.08112C9.04209 4.12039 8.45824 5.52993 8.45824 6.99967C8.45824 8.46942 9.04209 9.87896 10.0814 10.9182C11.1206 11.9575 12.5302 12.5413 13.9999 12.5413C15.4696 12.5413 16.8792 11.9575 17.9185 10.9182C18.9577 9.87896 19.5416 8.46942 19.5416 6.99967C19.5416 5.52993 18.9577 4.12039 17.9185 3.08112C16.8792 2.04186 15.4696 1.45801 13.9999 1.45801ZM10.2082 6.99967C10.2082 5.99406 10.6077 5.02964 11.3188 4.31856C12.0299 3.60749 12.9943 3.20801 13.9999 3.20801C15.0055 3.20801 15.9699 3.60749 16.681 4.31856C17.3921 5.02964 17.7916 5.99406 17.7916 6.99967C17.7916 8.00529 17.3921 8.96971 16.681 9.68079C15.9699 10.3919 15.0055 10.7913 13.9999 10.7913C12.9943 10.7913 12.0299 10.3919 11.3188 9.68079C10.6077 8.96971 10.2082 8.00529 10.2082 6.99967ZM13.9999 14.2913C11.3014 14.2913 8.81407 14.905 6.9719 15.941C5.15657 16.963 3.79157 18.51 3.79157 20.4163V20.5353C3.7904 21.891 3.78924 23.592 5.2814 24.8077C6.01524 25.405 7.04307 25.8308 8.4314 26.1108C9.82207 26.3932 11.6362 26.5413 13.9999 26.5413C16.3636 26.5413 18.1766 26.3932 19.5696 26.1108C20.9579 25.8308 21.9846 25.405 22.7196 24.8077C24.2117 23.592 24.2094 21.891 24.2082 20.5353V20.4163C24.2082 18.51 22.8432 16.963 21.0291 15.941C19.1857 14.905 16.6996 14.2913 13.9999 14.2913ZM5.54157 20.4163C5.54157 19.4235 6.26724 18.3455 7.8294 17.467C9.36474 16.6037 11.5441 16.0413 14.0011 16.0413C16.4557 16.0413 18.6351 16.6037 20.1704 17.467C21.7337 18.3455 22.4582 19.4235 22.4582 20.4163C22.4582 21.9423 22.4116 22.801 21.6136 23.4497C21.1819 23.802 20.4586 24.1462 19.2219 24.3958C17.9887 24.6455 16.3029 24.7913 13.9999 24.7913C11.6969 24.7913 10.0099 24.6455 8.7779 24.3958C7.54124 24.1462 6.8179 23.802 6.38624 23.4508C5.58824 22.801 5.54157 21.9423 5.54157 20.4163Z" fill="white"/>
</svg>
