<svg width="218" height="177" viewBox="0 0 218 177" fill="none" xmlns="http://www.w3.org/2000/svg">
<g clip-path="url(#clip0_1378_3804)">
<path d="M80.2355 132.384H0V176.997H80.2355V132.384Z" fill="#FF9064"/>
<path opacity="0.5" d="M28.7485 132.384H0V176.997H28.7485V132.384Z" fill="#B25834"/>
<path opacity="0.3" d="M43.9629 132.384V143.252H51.4466V132.384H43.9629Z" fill="white"/>
<path d="M196.924 83.7803H64.3867V176.998H196.924V83.7803Z" fill="#102048"/>
<path d="M209.83 50.8237H185.311V28.7163C185.325 26.5904 186.188 24.556 187.711 23.0544C189.235 21.5528 191.296 20.7052 193.448 20.6954C195.601 20.6856 197.67 21.5145 199.207 23.0022C200.745 24.4898 201.626 26.5163 201.661 28.6419V28.7163V42.748C201.661 42.8162 201.661 42.8893 201.661 42.9575V43.3827L201.686 43.3705C201.843 45.398 202.769 47.2924 204.279 48.6744C205.789 50.0564 207.771 50.8241 209.83 50.8237Z" fill="#86A7FF"/>
<path d="M218.001 37.8701V42.7601C218 44.847 217.181 46.8525 215.716 48.3556C214.25 49.8587 212.252 50.7424 210.141 50.8212C208.03 50.9 205.97 50.1678 204.394 48.7783C202.817 47.3888 201.847 45.4501 201.688 43.3693L218.001 37.8701Z" fill="#D3DFFF"/>
<path d="M193.487 20.6406C193.312 20.6406 193.144 20.6406 192.975 20.6589C192.863 20.6589 192.757 20.6711 192.651 20.6845C192.545 20.6979 192.42 20.7088 192.302 20.7271C192.233 20.7332 192.165 20.7454 192.096 20.7576C192.008 20.7698 191.922 20.7893 191.84 20.8075C191.717 20.8319 191.594 20.8563 191.47 20.8867C191.295 20.9306 191.12 20.9793 190.946 21.0414C190.86 21.0659 190.775 21.0947 190.691 21.1279C190.61 21.1523 190.522 21.1888 190.444 21.2193C190.327 21.2626 190.213 21.3122 190.102 21.3679C189.999 21.41 189.899 21.4572 189.802 21.5092C189.772 21.5222 189.743 21.5368 189.715 21.5531C189.628 21.5957 189.54 21.6445 189.453 21.6944C189.11 21.8841 188.783 22.1005 188.475 22.3413C188.387 22.4083 188.293 22.4826 188.212 22.5508C188.131 22.6191 188.025 22.7104 187.932 22.7945C187.84 22.8785 187.751 22.9663 187.663 23.0527C187.418 23.2991 187.189 23.5603 186.978 23.8349C186.884 23.9567 186.796 24.0785 186.71 24.2003C186.435 24.6134 186.195 25.0481 185.992 25.5002C185.943 25.6111 185.898 25.728 185.849 25.845C185.716 26.1993 185.606 26.5614 185.519 26.9292C185.494 27.0583 185.468 27.1814 185.443 27.3044C185.4 27.5566 185.362 27.8161 185.343 28.0744V141.353H76.0449V33.2312C76.0449 29.892 77.3878 26.6895 79.7782 24.3283C82.1686 21.9671 85.4107 20.6406 88.7912 20.6406H193.487Z" fill="#D3DFFF"/>
<path d="M171.904 32.1846H88.9668V36.4959H171.904V32.1846Z" fill="#ADC3FF"/>
<path d="M165.478 44.8115H88.9668V49.1229H165.478V44.8115Z" fill="#ADC3FF"/>
<path d="M161.445 57.4395H88.9668V61.7508H161.445V57.4395Z" fill="#ADC3FF"/>
<path d="M171.904 70.0674H88.9668V74.3787H171.904V70.0674Z" fill="#ADC3FF"/>
<path d="M165.98 82.8477H121.016V87.159H165.98V82.8477Z" fill="#ADC3FF"/>
<path d="M130.064 107.059C129.82 107.071 129.576 107.023 129.356 106.919C129.135 106.816 128.943 106.66 128.797 106.466C128.413 105.94 128.44 105.22 128.458 104.744L128.881 93.6016L129.498 93.6235L129.081 104.769C129.061 105.289 129.064 105.782 129.303 106.109C129.833 106.832 131.107 106.207 131.359 106.074C132.614 105.409 133.516 104.156 134.388 102.945C135.357 101.605 136.361 100.208 137.876 99.5539C138.775 99.1653 139.436 99.7354 139.972 100.191C140.275 100.449 140.559 100.693 140.86 100.782C141.653 101.012 142.443 100.81 143.279 100.594C144.019 100.404 144.782 100.204 145.567 100.325C146.286 100.433 146.865 100.716 147.427 100.99C148.255 101.393 148.972 101.743 150.008 101.495C151.436 101.155 152.763 100.352 154.046 99.5758C154.416 99.3504 154.786 99.1251 155.163 98.9107C156.605 98.0835 158.773 97.0394 160.929 97.528L160.791 98.1285C158.846 97.6888 156.827 98.6682 155.476 99.4442C155.106 99.6562 154.736 99.8779 154.366 100.101C153.042 100.902 151.673 101.731 150.148 102.094C148.893 102.392 148.004 101.961 147.145 101.542C146.627 101.289 146.091 101.028 145.468 100.933C144.809 100.834 144.14 101.006 143.432 101.189C142.55 101.417 141.641 101.652 140.679 101.372C140.249 101.25 139.897 100.945 139.559 100.655C139.002 100.179 138.637 99.8987 138.124 100.118C136.767 100.704 135.857 101.965 134.895 103.302C133.981 104.571 133.036 105.881 131.651 106.615C131.166 106.886 130.622 107.039 130.064 107.059Z" fill="#102048"/>
<path opacity="0.3" d="M185.342 87.6832V141.354H76.0449V83.0088L110.187 111.066C112.07 112.618 114.54 113.21 116.97 112.87C117.683 112.772 118.402 112.731 119.122 112.749L142.395 113.395C143.196 113.421 143.993 113.518 144.776 113.685C147.19 114.203 149.709 113.728 151.705 112.275L185.342 87.6832Z" fill="#86A7FF"/>
<path d="M114.223 122.425L113.311 123.422L72.179 168.474L64.3906 177V83.7783L114.223 122.425Z" fill="#7D69ED"/>
<path d="M196.925 83.7803L147.092 122.425L196.925 176.998V83.7803Z" fill="#7D69ED"/>
<path d="M113.311 123.423L72.179 168.474L64.3906 170.169V153.601C84.9511 139.046 108.018 122.17 113.286 121.805L113.311 123.423Z" fill="#5B4DAD"/>
<path d="M148.004 123.423L189.136 168.474L196.924 170.169V153.601C176.365 139.046 153.299 122.17 148.029 121.805L148.004 123.423Z" fill="#5B4DAD"/>
<path d="M196.924 176.998H64.3867L64.4114 164.735L110.081 123.809C112.479 121.661 115.6 120.472 118.837 120.473H142.121C145.308 120.473 148.385 121.628 150.768 123.718L197.06 164.311L196.924 176.998Z" fill="#7D69ED"/>
<path opacity="0.4" d="M204.211 170.412C213.099 161.632 213.099 147.397 204.211 138.617C195.322 129.837 180.911 129.837 172.022 138.617C163.133 147.397 163.133 161.632 172.022 170.412C180.911 179.192 195.322 179.192 204.211 170.412Z" fill="#5B4DAD"/>
<path d="M211.072 170.413C219.961 161.633 219.961 147.398 211.072 138.618C202.183 129.838 187.772 129.838 178.883 138.618C169.995 147.398 169.995 161.633 178.883 170.413C187.772 179.193 202.183 179.193 211.072 170.413Z" fill="#49B874"/>
<path d="M194.493 166.698C193.954 166.698 193.422 166.586 192.93 166.37C192.438 166.154 191.997 165.839 191.636 165.444L183.584 156.661C183.415 156.481 183.284 156.271 183.198 156.041C183.112 155.811 183.073 155.567 183.084 155.322C183.094 155.078 183.154 154.837 183.259 154.616C183.365 154.394 183.514 154.195 183.697 154.031C183.881 153.867 184.096 153.74 184.33 153.658C184.564 153.577 184.812 153.542 185.059 153.556C185.307 153.57 185.549 153.632 185.772 153.739C185.995 153.846 186.194 153.996 186.358 154.18L194.41 162.963C194.423 162.978 194.439 162.989 194.458 162.996C194.477 163.002 194.498 163.003 194.517 162.999C194.537 162.998 194.557 162.99 194.573 162.978C194.589 162.966 194.601 162.95 194.607 162.931L203.276 143.439C203.476 142.99 203.848 142.638 204.31 142.46C204.772 142.282 205.287 142.293 205.742 142.49C206.196 142.687 206.552 143.054 206.733 143.511C206.913 143.968 206.902 144.476 206.702 144.925L198.033 164.417C197.776 165.001 197.374 165.511 196.864 165.901C196.355 166.291 195.754 166.548 195.118 166.649C194.911 166.681 194.702 166.698 194.493 166.698Z" fill="white"/>
<path d="M37 119.96L37.7277 132.383H57.0598L48.3292 125.298L47.81 119.96L44.3801 116.676L37 119.96Z" fill="#102048"/>
<path d="M13.8229 114.418L10.7051 125.505L26.6062 132.383L21.9294 121.911L23.0727 117.189L19.1237 112.056L13.8229 114.418Z" fill="#102048"/>
<path d="M19.9547 59.3896C19.9547 59.3896 18.0838 67.0902 18.7079 84.0287C18.7079 84.0287 13.1987 103.022 13.8227 114.418L23.0725 117.189C27.9182 106.553 31.9043 96.3195 34.0231 86.9622C35.0801 83.6533 35.0603 80.1004 33.9664 76.8032L29.5166 63.394L19.9547 59.3896Z" fill="#1F3C88"/>
<path d="M49.2747 84.3819L47.8095 119.961H36.9996C34.1839 108.374 33.1356 98.4819 32.7681 91.8558C32.4622 86.269 32.6373 83.0041 32.6373 83.0041C25.6901 74.904 21.5622 69.0515 19.161 64.7219C15.5942 58.2968 15.8125 55.2049 16.2121 53.0267C16.7474 50.1248 18.6565 46.3678 19.9466 44.058C20.6705 42.7764 21.2008 41.9395 21.2008 41.9395L39.2849 47.692L37.1229 55.395L37.0859 55.5241C36.9268 56.0981 36.8843 56.6975 36.961 57.2878C37.0376 57.878 37.2318 58.4475 37.5323 58.9632L47.0165 75.2877C48.6211 78.0486 49.4039 81.2009 49.2747 84.3819Z" fill="#3A6BEA"/>
<path d="M43.6526 120.192H43.6378C43.6073 120.19 43.5773 120.182 43.5498 120.169C43.5222 120.156 43.4976 120.138 43.4773 120.115C43.457 120.092 43.4414 120.066 43.4315 120.037C43.4216 120.009 43.4175 119.978 43.4195 119.948C43.4417 119.592 45.6703 84.2146 43.0249 78.5839C42.5599 77.5959 41.7706 76.3326 40.858 74.8719C37.0347 68.7551 30.6449 58.5194 31.9867 43.7664C31.989 43.736 31.9975 43.7064 32.0116 43.6793C32.0257 43.6522 32.0452 43.6281 32.0689 43.6086C32.0926 43.5891 32.12 43.5744 32.1495 43.5655C32.1791 43.5567 32.2101 43.5537 32.2408 43.5569C32.3025 43.5628 32.3593 43.5924 32.399 43.6394C32.4387 43.6864 32.4581 43.7469 32.4529 43.8079C31.1247 58.4073 37.4663 68.5614 41.2563 74.6295C42.1764 76.1035 42.9718 77.3766 43.4491 78.3902C46.1452 84.1269 43.9795 118.517 43.8857 119.977C43.8817 120.036 43.8553 120.09 43.812 120.13C43.7688 120.17 43.7118 120.192 43.6526 120.192Z" fill="#1F3C88"/>
<path opacity="0.6" d="M39.2854 47.6881L37.1234 55.3947C28.8047 52.0129 22.817 46.867 19.9434 44.0541C20.6673 42.7725 21.1976 41.9355 21.1976 41.9355L39.2854 47.6881Z" fill="#1F3C88"/>
<path d="M42.34 125.797L42.1562 122.711L48.1156 122.604C48.1468 122.602 48.178 122.606 48.2073 122.617C48.2367 122.628 48.2634 122.644 48.2859 122.666C48.3083 122.687 48.3259 122.713 48.3376 122.742C48.3493 122.77 48.3547 122.801 48.3536 122.832C48.3546 122.893 48.331 122.952 48.288 122.996C48.2451 123.04 48.1862 123.066 48.1242 123.067L42.652 123.164L42.7754 125.315L48.3129 125.071C48.3728 125.071 48.4303 125.094 48.4735 125.135C48.5167 125.176 48.5424 125.232 48.5452 125.291C48.5481 125.351 48.5279 125.408 48.4888 125.453C48.4497 125.498 48.3947 125.527 48.3351 125.533L42.34 125.797Z" fill="white"/>
<path d="M21.9294 122.142C21.9055 122.142 21.8818 122.139 21.8591 122.131L16.7285 120.514L18.0062 117.561L22.5275 119.173C22.5578 119.183 22.5859 119.198 22.61 119.218C22.6341 119.239 22.6539 119.263 22.668 119.291C22.6821 119.319 22.6903 119.35 22.6921 119.381C22.694 119.413 22.6894 119.444 22.6786 119.473C22.6678 119.503 22.6511 119.53 22.6295 119.553C22.6079 119.575 22.5818 119.594 22.5528 119.606C22.5238 119.619 22.4925 119.626 22.4608 119.626C22.4291 119.626 22.3977 119.62 22.3684 119.608L18.2628 118.147L17.36 120.228L21.9997 121.69C22.0537 121.706 22.1 121.741 22.13 121.788C22.16 121.835 22.1718 121.892 22.163 121.947C22.1543 122.002 22.1257 122.052 22.0825 122.087C22.0393 122.123 21.9845 122.142 21.9282 122.141L21.9294 122.142Z" fill="white"/>
<path d="M45.6748 13.6006L45.3381 14.8445L43.9913 19.877L43.0812 23.2528L34.9746 20.3765L38.8842 12.4738L40.7921 9.75098L45.6748 13.6006Z" fill="#F9B384"/>
<path d="M45.338 14.8442L43.9913 19.8768C41.6036 17.3185 42.0895 14.1182 42.0895 14.1182L45.338 14.8442Z" fill="#102048"/>
<path d="M51.7581 6.51858C51.7581 6.51858 51.2389 17.914 45.4177 16.9382C39.5965 15.9624 39.7013 6.1592 39.7013 6.1592L47.2886 3.74707L51.7581 6.51858Z" fill="#F9B384"/>
<path d="M43.6769 8.23735C43.6769 8.23735 47.0155 4.83723 51.7576 6.51841C51.7576 6.51841 53.8542 7.39067 54.667 5.69731C54.667 5.69731 47.9639 -3.08014 42.7039 1.15448C42.7039 1.15448 33.2715 3.19504 38.8806 12.4732L43.6769 8.23735Z" fill="#102048"/>
<path d="M44.1023 10.4967C45.0789 10.3428 45.726 9.32187 45.5475 8.21626C45.369 7.11066 44.4326 6.3391 43.4559 6.49294C42.4793 6.64678 41.8322 7.66775 42.0107 8.77335C42.1891 9.87896 43.1256 10.6505 44.1023 10.4967Z" fill="#F9B384"/>
<path d="M51.9511 12.4304C52.0428 11.8705 51.6577 11.3432 51.0909 11.2526C50.524 11.1621 49.9902 11.5425 49.8985 12.1024C49.8068 12.6623 50.1919 13.1896 50.7588 13.2802C51.3256 13.3708 51.8594 12.9904 51.9511 12.4304Z" fill="#F9B384"/>
<path opacity="0.4" d="M46.8987 12.986C47.8891 12.986 48.6919 12.193 48.6919 11.2147C48.6919 10.2364 47.8891 9.44336 46.8987 9.44336C45.9083 9.44336 45.1055 10.2364 45.1055 11.2147C45.1055 12.193 45.9083 12.986 46.8987 12.986Z" fill="#EB5D60"/>
<path d="M80.5484 29.6457C80.5484 29.6457 81.6213 31.1003 79.4322 32.5536C79.4322 32.5536 81.1724 33.7305 75.1724 35.6699C74.5052 35.8855 73.7454 36.1073 72.8723 36.3424L70.4648 27.7062C70.4648 27.7062 81.1724 24.1331 81.4413 25.2795C81.7102 26.4259 79.5272 27.9706 79.5272 27.9706C79.5272 27.9706 83.3603 27.0447 80.5484 29.6457Z" fill="#F9B384"/>
<path d="M70.4648 27.7052L57.7876 29.3097C57.7876 29.3097 39.5469 16.4767 35.805 17.7083C32.0632 18.94 19.4365 38.9594 19.4365 38.9594C19.4365 38.9594 16.0067 40.0375 16.1572 41.4202C16.3076 42.8029 38.4505 54.1509 41.4129 51.2758C43.2752 49.468 45.4138 35.0549 45.4138 35.0549L53.4858 38.3746C55.8779 39.3568 58.5202 39.5791 61.046 39.0105L72.8746 36.345L70.4648 27.7052Z" fill="#FBC343"/>
<path d="M69.662 35.4204C69.2266 33.738 68.7986 32.097 68.4151 30.5194C68.3078 30.0796 68.2091 29.6313 68.1105 29.1793C68.0266 28.798 67.939 28.4155 67.849 28.0342L67.3828 28.0939C67.4765 28.4874 67.5666 28.8833 67.6529 29.2768C67.7528 29.7312 67.8515 30.1844 67.9612 30.6266C68.3473 32.2103 68.7727 33.8501 69.2093 35.5325C69.3425 36.0466 69.4757 36.5619 69.6089 37.0784L70.064 36.9761C69.9284 36.4571 69.7964 35.9382 69.662 35.4204Z" fill="white"/>
<path d="M47.9595 22.903L47.3811 23.0248C43.8674 23.7472 40.1045 24.332 36.4342 23.718C34.6516 23.4314 32.9407 22.8112 31.3937 21.8906C31.295 22.0124 31.1976 22.1282 31.0977 22.2561C32.7079 23.2278 34.4932 23.8827 36.3553 24.1846C40.1082 24.812 43.9179 24.2199 47.4773 23.4877C47.83 23.4146 48.1827 23.3379 48.5354 23.2624L47.9595 22.903Z" fill="white"/>
<path d="M43.1024 45.0908C42.0467 45.1773 40.9552 45.2674 39.8958 45.1687C36.7817 44.8825 34.0191 42.9686 32.211 41.5542C31.571 41.0523 30.9432 40.5321 30.3167 40.0107C28.7208 38.6865 27.0706 37.3159 25.212 36.2951C24.198 35.7322 23.112 35.3065 21.9832 35.0293L21.7168 35.435C22.8611 35.7018 23.9614 36.1271 24.9851 36.6983C26.8042 37.6985 28.4383 39.0532 30.0157 40.364C30.646 40.8878 31.2774 41.4117 31.9212 41.916C33.7712 43.367 36.614 45.3271 39.8526 45.6292C40.954 45.7304 42.0664 45.6402 43.1419 45.5513C43.2479 45.5427 43.3552 45.5379 43.4613 45.5293C43.4983 45.3734 43.5341 45.2175 43.5698 45.0591C43.4132 45.0749 43.2578 45.0749 43.1024 45.0908Z" fill="white"/>
<path d="M45.4178 35.0587L42.1348 33.6357C42.1348 33.6357 42.9734 38.7901 44.557 39.526L45.4178 35.0587Z" fill="#E49B31"/>
<path d="M75.1724 35.6697C74.5052 35.8853 73.7454 36.1071 72.8723 36.3422L70.4648 27.7061L75.1724 35.6697Z" fill="#E28B6D"/>
</g>
<defs>
<clipPath id="clip0_1378_3804">
<rect width="218" height="177" fill="white"/>
</clipPath>
</defs>
</svg>
